{"glyphs":{"0":{"ha":746,"x_min":77,"x_max":689,"o":"m 383 932 q 233 827 256 930 q 211 655 211 725 l 211 308 q 235 134 211 237 q 383 31 259 31 q 512 113 469 31 q 555 308 555 194 l 555 655 q 516 851 555 769 q 385 932 477 932 l 383 932 m 383 981 q 610 889 532 981 q 689 671 689 798 l 689 292 q 599 74 689 164 q 383 -17 509 -17 q 151 74 224 -17 q 77 292 77 165 l 77 671 q 158 889 77 798 q 383 981 238 981 z "},"1":{"ha":746,"x_min":178,"x_max":505,"o":"m 262 0 q 248 14 248 0 q 281 43 248 31 q 315 99 315 55 l 315 849 l 178 849 l 178 881 l 438 992 l 438 99 q 471 43 438 54 q 505 14 505 31 q 492 0 505 0 l 262 0 z "},"2":{"ha":746,"x_min":107,"x_max":659,"o":"m 113 0 l 113 53 q 148 156 113 112 q 258 281 182 200 q 347 373 303 324 q 431 470 391 422 q 517 610 490 540 q 536 701 536 659 q 519 774 536 741 q 415 867 483 841 q 333 882 376 882 q 266 874 300 882 q 134 778 185 854 q 110 732 117 753 l 107 732 l 107 821 q 121 852 114 840 q 199 934 149 899 q 320 981 249 970 q 376 985 349 985 q 548 939 467 985 q 656 739 654 879 l 656 736 q 607 562 656 644 q 488 402 557 478 q 349 247 420 326 q 240 102 279 167 l 491 102 q 658 130 578 102 l 659 28 q 576 2 621 5 q 492 0 531 0 l 113 0 z "},"3":{"ha":746,"x_min":123,"x_max":644,"o":"m 492 44 q 310 -19 418 -8 q 277 -21 293 -21 q 126 28 190 -21 l 123 142 l 127 142 q 264 50 169 71 q 330 41 299 41 q 433 66 386 41 q 528 172 503 102 q 541 246 541 209 q 532 309 541 278 q 441 430 510 378 q 257 483 373 481 l 256 502 q 363 544 302 517 q 456 625 423 570 q 481 714 481 669 q 479 741 481 727 q 432 836 469 798 q 313 888 382 888 q 302 887 307 888 q 176 823 225 882 q 145 765 154 796 l 142 765 l 142 870 q 260 957 199 932 q 378 981 321 981 q 584 856 532 979 q 598 785 598 820 q 508 612 598 698 q 463 575 489 594 q 605 450 561 527 q 644 311 644 383 q 643 290 644 300 q 492 44 631 144 z "},"4":{"ha":746,"x_min":56,"x_max":709,"o":"m 572 99 q 621 43 572 55 q 669 14 669 31 q 655 0 669 0 l 368 0 q 354 14 354 0 q 402 43 354 31 q 450 99 450 55 l 450 281 l 56 281 l 56 359 l 450 952 l 572 952 l 572 377 l 709 377 l 709 281 l 572 281 l 572 99 m 450 377 l 450 845 l 143 377 l 450 377 z "},"5":{"ha":746,"x_min":80,"x_max":686,"o":"m 163 517 q 223 551 195 535 q 281 578 250 567 q 393 600 339 600 q 454 593 424 600 q 595 520 536 574 q 671 401 650 467 q 686 308 686 355 q 683 269 686 288 q 585 76 667 155 q 478 11 540 33 q 349 -16 416 -12 q 319 -16 334 -16 q 83 47 182 -16 l 80 176 l 81 176 q 197 81 116 115 q 319 54 262 54 q 347 56 333 54 q 480 123 425 64 q 549 265 536 183 q 553 305 553 286 q 534 401 553 353 q 439 503 507 467 q 338 526 393 526 q 318 526 328 526 q 193 467 252 520 q 159 446 173 448 q 139 444 151 444 q 127 444 133 444 q 107 445 117 444 q 98 466 98 446 l 98 930 q 101 949 98 947 q 130 952 104 952 l 465 952 q 545 950 502 952 q 626 924 589 947 l 626 806 q 465 834 551 834 l 163 834 l 163 517 z "},"6":{"ha":746,"x_min":57,"x_max":709,"o":"m 374 615 q 230 521 289 610 q 170 311 170 432 q 231 108 170 190 q 367 29 288 29 l 375 29 q 519 122 459 33 q 578 333 578 212 q 519 537 578 454 q 382 615 461 615 l 374 615 m 214 620 q 367 659 281 659 q 412 656 389 659 q 597 576 524 644 q 709 322 708 475 q 611 81 709 182 q 386 -18 517 -18 l 376 -18 q 145 84 235 -14 q 57 316 57 179 l 57 322 q 153 694 59 540 q 415 963 247 848 q 435 976 433 975 q 472 984 450 984 l 474 984 q 519 983 497 983 q 548 977 548 983 q 537 968 548 974 q 349 812 423 889 q 214 620 275 735 z "},"7":{"ha":746,"x_min":116,"x_max":650,"o":"m 271 104 q 232 0 245 54 l 117 1 q 116 17 116 9 q 130 83 116 51 q 165 157 147 123 q 365 513 252 318 q 554 834 479 707 l 283 834 q 123 806 196 834 l 123 924 q 202 950 159 947 q 283 952 245 952 l 618 952 q 647 949 644 952 q 650 921 650 947 q 629 833 650 876 q 450 468 539 650 q 271 104 360 286 z "},"8":{"ha":746,"x_min":44,"x_max":722,"o":"m 389 513 q 244 458 304 513 q 184 275 184 403 q 237 91 184 146 q 389 37 290 37 q 541 90 488 37 q 593 275 593 142 q 533 460 593 407 q 389 513 474 513 m 412 982 q 622 913 554 980 q 686 748 686 849 l 686 738 q 505 540 682 578 q 659 451 600 516 q 722 273 718 385 l 722 260 q 629 58 722 125 q 377 -14 532 -12 l 372 -14 q 134 60 221 -14 q 44 273 44 134 q 106 449 44 382 q 269 541 169 516 q 97 747 97 581 l 97 750 q 184 925 98 866 q 402 982 267 982 l 412 982 m 393 938 q 263 882 302 938 q 224 749 224 827 q 257 615 224 670 q 393 559 291 559 q 528 615 494 559 q 562 749 562 670 q 522 882 562 827 q 393 938 482 938 z "},"9":{"ha":746,"x_min":57,"x_max":709,"o":"m 392 351 q 536 444 476 355 q 595 654 595 533 q 536 858 595 775 q 399 937 478 937 l 391 937 q 247 843 306 932 q 187 633 187 753 q 248 429 187 511 q 384 351 304 351 l 392 351 m 552 346 q 399 307 485 307 q 354 310 377 307 q 169 389 241 322 q 57 644 58 492 l 57 646 q 155 886 57 784 q 380 984 249 984 l 390 984 q 621 882 530 980 q 709 648 709 786 l 709 644 q 613 272 707 426 q 351 3 519 118 q 332 -9 333 -9 q 294 -18 315 -18 q 292 -17 292 -18 l 248 -17 q 218 -11 218 -17 q 229 -2 218 -7 q 417 154 342 77 q 552 346 491 230 z "}," ":{"ha":373,"x_min":0,"x_max":0,"o":""},"!":{"ha":338,"x_min":101,"x_max":250,"o":"m 199 254 q 182 238 199 238 l 168 238 q 152 254 152 238 l 104 902 l 104 909 q 154 952 104 952 l 197 952 q 247 908 247 952 l 247 902 l 199 254 m 176 156 q 250 97 250 156 l 250 41 q 176 -17 250 -17 q 101 41 101 -17 l 101 97 q 176 156 101 156 z "},"\"":{"ha":566,"x_min":80,"x_max":438,"o":"m 151 657 q 138 649 151 649 l 127 649 q 115 657 115 649 l 80 956 l 80 958 q 117 979 80 979 l 149 979 q 185 959 185 979 l 185 956 l 151 657 m 403 657 q 391 649 403 649 l 380 649 q 368 657 368 649 l 333 956 l 333 958 q 370 979 333 979 l 401 979 q 438 958 438 979 l 438 956 l 403 657 z "},"#":{"ha":765,"x_min":61,"x_max":728,"o":"m 260 12 l 260 258 l 71 258 q 61 265 61 258 l 61 323 q 71 330 61 330 l 260 330 l 260 516 l 71 516 q 61 523 61 516 l 61 581 q 71 587 61 587 l 260 587 l 260 833 q 267 845 260 845 l 324 845 q 331 833 331 845 l 331 587 l 458 587 l 458 833 q 465 845 458 845 l 522 845 q 530 833 530 845 l 530 587 l 718 587 q 728 581 728 587 l 728 523 q 718 516 728 516 l 530 516 l 530 330 l 718 330 q 728 323 728 330 l 728 265 q 718 258 728 258 l 530 258 l 530 12 q 522 0 530 0 l 465 0 q 458 12 458 0 l 458 258 l 331 258 l 331 12 q 324 0 331 0 l 267 0 q 260 12 260 0 m 331 516 l 331 330 l 458 330 l 458 516 l 331 516 z "},"$":{"ha":694,"x_min":45,"x_max":659,"o":"m 317 1020 l 348 1020 q 363 1004 363 1020 l 363 920 q 610 850 500 920 l 594 716 q 584 704 593 704 q 580 705 582 704 q 564 722 572 705 q 484 820 536 779 q 372 863 432 861 q 368 863 370 863 q 363 863 366 863 l 363 522 q 436 510 398 516 q 509 494 473 505 q 604 440 571 475 q 641 382 628 413 q 659 290 659 342 q 548 64 659 154 q 421 -5 490 16 q 363 -20 394 -14 l 363 -144 q 348 -160 363 -160 l 317 -160 q 301 -144 301 -160 l 301 -26 l 282 -26 q 105 -1 186 -26 l 45 166 l 46 182 q 60 193 48 193 l 61 193 q 77 175 68 192 q 166 64 114 96 q 301 32 218 32 l 301 416 q 231 430 265 422 q 163 454 196 438 q 79 533 107 481 q 52 646 52 585 q 134 842 52 765 q 301 916 199 901 l 301 1004 q 317 1020 301 1020 m 363 406 l 363 35 q 518 130 468 50 q 548 247 548 179 l 548 253 q 494 362 547 324 q 435 390 469 380 q 363 406 405 398 m 301 532 l 301 857 q 257 842 277 851 q 210 808 228 828 q 180 764 193 791 q 164 715 170 741 q 160 677 160 695 q 168 631 160 652 q 213 565 180 589 q 267 540 238 547 q 301 532 271 538 z "},"%":{"ha":694,"x_min":14,"x_max":690,"o":"m 517 408 q 441 355 452 407 q 430 269 430 304 l 430 137 q 442 50 430 101 q 517 -2 454 -2 q 583 39 561 -2 q 605 137 605 79 l 605 269 q 585 367 605 326 q 517 408 565 408 m 517 433 q 633 386 593 433 q 673 276 673 340 l 673 129 q 627 19 673 64 q 517 -26 581 -26 q 399 19 436 -26 q 361 129 361 64 l 361 276 q 402 387 361 340 q 517 433 444 433 m 186 896 q 110 843 121 895 q 98 756 98 791 l 98 625 q 111 537 98 589 q 186 486 123 486 q 251 526 229 486 q 273 625 273 567 l 273 756 q 254 854 273 813 q 186 896 234 896 m 186 920 q 302 874 262 920 q 342 764 342 828 l 342 616 q 296 506 342 552 q 186 460 250 460 q 68 507 105 460 q 31 616 31 553 l 31 764 q 71 874 31 829 q 186 920 112 920 m 630 949 l 690 949 l 73 0 l 14 0 l 630 949 z "},"&":{"ha":876,"x_min":77,"x_max":834,"o":"m 595 205 l 675 105 q 781 28 709 62 q 804 12 800 20 q 806 5 806 7 q 804 2 804 3 q 795 -1 801 -1 l 629 -1 q 576 45 606 -1 q 530 107 554 79 q 414 9 475 40 q 273 -22 351 -22 q 126 33 181 -22 q 77 163 77 84 q 77 179 77 171 q 127 324 81 260 q 273 456 170 387 q 209 566 232 511 q 189 666 189 613 q 189 684 189 675 q 248 829 193 774 q 390 883 302 883 q 522 840 476 883 q 564 732 564 799 l 564 720 q 518 593 559 649 q 384 479 474 535 l 566 241 l 642 382 q 648 405 647 393 q 649 412 649 409 q 647 425 649 419 q 640 439 644 433 q 633 450 635 444 q 633 455 633 453 l 633 457 q 634 462 633 458 q 648 475 639 475 l 823 475 q 833 471 830 475 q 834 468 834 470 l 834 467 q 833 462 834 465 q 810 445 829 454 q 788 435 800 440 q 764 422 776 429 q 679 336 714 389 q 595 205 644 283 m 357 515 q 448 597 419 551 q 480 713 475 643 l 480 723 q 463 802 480 769 q 385 838 444 838 q 313 808 339 838 q 283 720 286 775 q 282 706 282 713 q 357 515 282 610 m 503 145 l 297 417 q 185 229 191 340 q 184 214 184 222 q 222 96 184 145 q 328 42 264 42 q 426 72 383 42 q 503 145 469 102 z "},"'":{"ha":289,"x_min":80,"x_max":185,"o":"m 151 657 q 138 649 151 649 l 127 649 q 115 657 115 649 l 80 956 l 80 958 q 117 979 80 979 l 149 979 q 185 959 185 979 l 185 956 l 151 657 z "},"(":{"ha":463,"x_min":94,"x_max":408,"o":"m 94 513 q 106 692 94 607 q 161 843 119 778 q 204 904 182 877 q 260 953 225 932 q 393 995 328 995 q 408 975 408 995 q 407 960 408 961 q 367 945 404 954 q 287 894 330 937 q 219 757 239 846 q 200 434 200 669 l 200 337 q 219 13 200 100 q 287 -123 239 -75 q 333 -159 312 -146 q 389 -182 355 -172 q 408 -190 406 -188 q 408 -203 408 -191 l 408 -207 q 405 -221 408 -217 q 391 -225 401 -225 q 291 -200 342 -225 q 188 -112 237 -174 q 120 16 140 -50 q 94 256 94 103 l 94 513 z "},")":{"ha":463,"x_min":94,"x_max":408,"o":"m 408 513 l 408 256 q 382 16 408 100 q 314 -112 362 -50 q 212 -200 266 -174 q 113 -225 160 -225 q 98 -221 102 -225 q 94 -206 94 -217 l 94 -203 q 96 -190 94 -191 q 114 -182 96 -188 q 170 -159 146 -172 q 216 -123 193 -145 q 283 13 264 -75 q 303 337 303 104 l 303 434 q 283 757 303 667 q 216 894 264 846 q 135 945 172 937 q 96 960 98 954 q 94 975 94 962 q 109 995 94 995 q 243 953 174 995 q 299 904 277 932 q 342 843 320 877 q 396 692 383 778 q 408 513 408 607 z "},"*":{"ha":694,"x_min":133,"x_max":589,"o":"m 184 572 l 325 490 l 325 653 q 343 678 325 678 l 378 678 q 397 653 397 678 l 397 490 l 538 572 q 555 577 547 577 q 568 569 564 577 l 587 538 q 589 530 589 534 q 574 510 589 519 l 432 429 l 574 347 q 589 327 589 337 q 587 319 589 323 l 568 288 q 555 279 564 279 q 538 285 547 279 l 397 366 l 397 203 q 378 178 397 178 l 343 178 q 325 203 325 178 l 325 366 l 184 285 q 167 279 174 279 q 153 288 158 279 l 136 319 q 133 328 133 323 q 148 347 133 338 l 290 429 l 148 510 q 133 528 133 518 q 136 538 133 533 l 153 569 q 167 577 158 577 q 184 572 174 577 z "},"+":{"ha":694,"x_min":111,"x_max":611,"o":"m 136 464 l 325 464 l 325 653 q 343 678 325 678 l 378 678 q 397 653 397 678 l 397 464 l 586 464 q 611 446 611 464 l 611 410 q 586 393 611 393 l 397 393 l 397 203 q 378 178 397 178 l 343 178 q 325 203 325 178 l 325 393 l 136 393 q 111 410 111 393 l 111 446 q 136 464 111 464 z "},",":{"ha":326,"x_min":62,"x_max":245,"o":"m 170 156 q 245 97 245 156 l 245 41 q 238 8 245 27 q 228 -24 232 -11 q 124 -153 200 -100 q 83 -168 99 -168 q 67 -162 73 -168 q 62 -152 62 -157 q 68 -140 62 -146 q 96 -118 79 -127 q 171 -17 159 -79 l 170 -17 q 96 41 96 -17 l 96 97 q 170 156 96 156 z "},"-":{"ha":694,"x_min":111,"x_max":611,"o":"m 136 464 l 586 464 q 611 446 611 464 l 611 410 q 586 393 611 393 l 136 393 q 111 410 111 393 l 111 446 q 136 464 111 464 z "},".":{"ha":326,"x_min":100,"x_max":249,"o":"m 174 156 q 249 97 249 156 l 249 41 q 174 -17 249 -17 q 100 41 100 -17 l 100 97 q 174 156 100 156 z "},"/":{"ha":694,"x_min":0,"x_max":667,"o":"m 0 -47 l 572 1000 l 667 1000 l 96 -47 l 0 -47 z "},":":{"ha":347,"x_min":100,"x_max":249,"o":"m 174 643 q 249 584 249 643 l 249 528 q 174 469 249 469 q 100 528 100 469 l 100 584 q 174 643 100 643 m 174 156 q 249 97 249 156 l 249 41 q 174 -17 249 -17 q 100 41 100 -17 l 100 97 q 174 156 100 156 z "},";":{"ha":347,"x_min":66,"x_max":249,"o":"m 174 643 q 249 584 249 643 l 249 528 q 174 469 249 469 q 100 528 100 469 l 100 584 q 174 643 100 643 m 174 156 q 249 97 249 156 l 249 41 q 242 8 249 27 q 231 -24 236 -11 q 128 -153 205 -100 q 87 -169 103 -169 q 71 -162 77 -169 q 66 -152 66 -157 q 72 -140 66 -146 q 100 -118 83 -127 q 175 -17 163 -79 l 174 -17 q 100 41 100 -16 l 100 97 q 174 156 100 156 z "},"<":{"ha":694,"x_min":121,"x_max":631,"o":"m 127 412 q 121 427 121 418 q 135 451 121 437 l 553 860 q 578 873 567 873 q 593 866 586 873 l 625 833 q 631 818 631 826 q 618 793 631 806 l 245 428 l 618 63 q 631 38 631 50 q 625 24 631 31 l 593 -9 q 578 -16 586 -16 q 553 -3 567 -16 l 127 412 z "},"=":{"ha":694,"x_min":113,"x_max":613,"o":"m 138 364 l 588 364 q 613 346 613 364 l 613 311 q 588 292 613 292 l 138 292 q 113 311 113 292 l 113 346 q 138 364 113 364 m 138 564 l 588 564 q 613 546 613 564 l 613 511 q 588 492 613 492 l 138 492 q 113 511 113 492 l 113 546 q 138 564 113 564 z "},">":{"ha":694,"x_min":121,"x_max":632,"o":"m 625 445 q 632 430 632 438 q 618 406 632 419 l 199 -3 q 174 -16 186 -16 q 160 -9 167 -16 l 127 24 q 121 39 121 31 q 135 63 121 50 l 509 429 l 135 793 q 121 818 121 806 q 127 833 121 825 l 160 866 q 174 873 167 873 q 199 860 186 873 l 625 445 z "},"?":{"ha":532,"x_min":53,"x_max":496,"o":"m 284 299 q 277 243 284 263 q 257 225 270 225 q 239 245 245 225 q 231 300 231 265 l 231 508 q 347 616 315 568 q 378 734 378 667 q 348 846 378 808 q 256 883 317 883 q 178 849 203 883 q 146 725 153 814 q 132 701 144 709 q 98 692 120 692 q 63 701 75 692 q 53 730 53 710 q 112 873 53 821 q 272 926 171 926 q 437 875 376 926 q 496 735 496 824 q 382 553 496 624 q 353 536 370 546 q 301 487 312 509 q 287 416 289 466 l 284 299 m 257 151 q 330 94 330 151 l 330 40 q 257 -16 330 -16 q 185 40 185 -16 l 185 94 q 257 151 185 151 z "},"@":{"ha":1437,"x_min":33,"x_max":1369,"o":"m 1247 121 q 1167 38 1213 76 q 1070 -21 1122 0 q 951 -47 1010 -47 q 866 -33 908 -47 q 802 59 802 -10 l 802 62 l 593 -9 q 555 -17 570 -17 l 528 -17 q 380 62 431 -12 q 338 203 338 119 q 369 355 338 279 q 444 482 399 431 q 519 545 469 512 q 556 563 535 555 q 674 604 615 583 q 793 644 734 624 q 817 648 806 648 l 820 648 q 920 627 863 646 q 926 624 924 625 q 960 610 939 618 q 975 608 968 608 q 995 614 985 608 q 1020 634 1013 626 q 1030 639 1024 639 q 1036 637 1033 639 q 1048 625 1048 632 l 1048 624 l 935 135 q 929 87 929 108 q 978 15 929 27 q 1003 12 990 12 q 1059 24 1029 12 q 1142 76 1105 41 q 1244 237 1203 132 q 1284 474 1284 345 q 1141 818 1284 707 q 791 929 997 929 q 488 852 637 929 q 244 618 338 777 q 151 262 151 462 q 213 -20 151 107 q 395 -217 275 -146 q 682 -288 514 -288 q 948 -238 823 -288 q 1150 -119 1062 -193 q 1156 -117 1153 -117 q 1165 -121 1160 -117 q 1170 -133 1170 -126 q 1166 -146 1170 -139 q 1149 -171 1159 -162 q 923 -303 1050 -263 q 651 -344 795 -344 q 206 -173 380 -344 q 33 263 33 -1 q 250 772 33 564 q 785 978 468 978 q 1204 841 1038 978 q 1369 476 1369 703 q 1247 121 1369 280 m 805 98 l 902 522 q 840 569 880 547 q 764 593 800 591 l 762 593 q 734 587 748 593 q 681 569 707 578 q 628 551 654 560 q 597 534 610 545 q 515 425 545 489 q 476 299 486 361 q 471 239 471 267 q 492 140 471 181 q 587 58 524 77 q 638 51 612 51 q 655 52 646 51 q 693 60 671 53 q 744 78 708 65 q 805 98 780 90 z "},"A":{"ha":1080,"x_min":35,"x_max":1048,"o":"m 568 968 q 652 772 602 888 q 755 533 702 656 q 858 294 808 410 q 943 99 908 178 q 983 54 953 74 q 1014 37 998 43 q 1038 24 1029 30 q 1047 14 1045 19 q 1048 9 1048 12 q 1047 4 1048 7 q 1039 0 1045 0 l 810 0 q 798 4 804 0 q 789 14 791 9 q 788 18 788 16 q 796 31 788 24 q 811 44 802 37 q 824 62 820 51 q 826 75 826 68 q 821 100 826 86 l 720 332 l 325 332 q 276 215 300 273 q 228 100 252 157 q 221 75 222 86 q 220 66 220 71 q 222 53 220 59 q 229 38 224 44 q 236 26 234 33 q 237 19 237 21 q 235 14 237 17 q 220 0 231 0 l 45 0 q 36 4 39 0 q 35 7 36 5 q 36 14 35 9 q 59 32 40 23 q 81 42 69 37 q 105 56 93 48 q 142 99 130 74 l 526 968 l 568 968 m 696 387 l 519 800 q 433 593 476 696 q 347 387 390 490 l 696 387 z "},"B":{"ha":841,"x_min":77,"x_max":801,"o":"m 477 952 q 616 929 544 952 q 727 838 688 905 q 758 706 758 783 q 716 576 757 633 q 626 505 687 533 q 767 397 722 474 q 801 252 801 337 q 755 109 800 172 q 646 27 716 54 q 516 0 575 0 l 91 0 q 77 14 77 0 q 111 43 77 31 q 144 99 144 56 l 144 853 q 111 908 144 896 q 77 938 77 920 q 91 952 77 952 l 477 952 m 267 466 l 267 50 l 420 50 q 520 64 469 50 q 607 115 570 79 q 663 260 663 170 q 604 405 663 347 q 434 466 541 466 l 267 466 m 267 525 l 454 525 q 583 581 534 534 q 633 712 633 630 q 580 844 633 792 q 427 899 522 899 l 267 899 l 267 525 z "},"C":{"ha":953,"x_min":45,"x_max":908,"o":"m 575 -25 q 206 108 367 -25 q 45 475 45 241 q 202 842 45 704 q 575 980 358 980 q 741 963 653 980 q 908 895 829 945 l 892 752 q 878 740 889 740 l 876 740 q 859 759 868 741 q 741 884 819 844 q 585 920 667 920 l 570 920 q 284 773 387 911 q 191 498 191 649 q 193 465 191 481 q 302 180 202 309 q 575 44 403 52 q 606 43 591 43 q 749 70 693 43 q 859 195 814 101 q 880 214 867 214 q 886 214 883 214 q 897 198 897 210 q 894 186 897 193 l 835 21 q 703 -16 770 -6 q 575 -25 635 -25 z "},"D":{"ha":1075,"x_min":73,"x_max":1019,"o":"m 1017 536 q 1019 493 1019 514 q 977 291 1019 380 q 838 115 927 184 q 467 -5 686 -2 l 413 -5 q 339 -4 374 -5 l 260 -4 q 174 -2 203 -4 l 158 -2 q 87 -6 131 -2 q 73 9 73 -6 q 107 38 73 26 q 141 94 141 50 l 141 856 q 107 911 141 899 q 73 941 73 923 q 87 955 73 955 q 145 954 116 954 q 203 955 174 954 q 317 958 262 957 l 357 958 q 566 953 461 958 q 790 903 690 945 q 945 775 884 861 q 1017 536 1007 690 m 271 890 l 271 68 q 432 52 355 52 q 490 54 462 52 q 674 104 594 62 q 825 258 770 155 q 875 499 875 353 l 875 522 q 836 706 872 631 q 740 825 800 780 q 528 901 652 890 q 441 905 485 905 q 271 890 358 905 z "},"E":{"ha":848,"x_min":105,"x_max":791,"o":"m 296 64 l 585 64 q 692 112 648 64 q 758 188 736 161 q 777 203 770 203 q 791 189 791 203 q 790 174 791 180 l 741 0 l 117 0 q 105 14 105 0 q 139 43 105 31 q 173 99 173 55 l 173 852 q 139 908 173 897 q 105 938 105 920 q 119 952 105 952 l 749 952 l 749 778 q 734 764 749 764 q 709 791 728 764 q 651 863 675 838 q 585 889 626 889 l 296 889 l 296 521 l 451 521 q 508 556 494 521 q 539 591 522 591 q 553 576 553 591 l 553 404 q 539 390 553 390 q 506 425 522 390 q 447 459 490 459 l 296 459 l 296 64 z "},"F":{"ha":772,"x_min":105,"x_max":749,"o":"m 118 0 q 105 14 105 0 q 119 31 105 22 q 143 47 130 38 q 166 71 157 56 q 173 99 173 84 l 173 852 q 139 908 173 897 q 105 938 105 920 q 119 952 105 952 l 749 952 l 749 778 q 734 764 749 764 q 709 791 728 764 q 651 863 675 838 q 585 889 626 889 l 296 889 l 296 521 l 451 521 q 501 546 479 521 q 521 576 513 561 q 539 591 528 591 q 553 576 553 591 l 553 404 q 539 390 553 390 q 518 407 527 390 q 496 441 510 425 q 451 460 477 460 l 296 460 l 296 99 q 304 66 296 80 q 325 46 313 54 q 347 32 337 38 q 363 14 363 22 q 362 8 363 10 q 349 0 357 0 l 118 0 z "},"G":{"ha":1060,"x_min":45,"x_max":1032,"o":"m 575 -25 q 206 108 367 -25 q 45 475 45 241 q 202 842 45 704 q 575 980 358 980 q 741 963 653 980 q 908 895 829 945 l 892 752 q 878 740 889 740 l 876 740 q 859 759 868 741 q 749 884 814 853 q 575 916 684 916 q 306 810 424 916 q 188 475 188 705 q 298 190 188 328 q 575 44 408 52 q 606 43 591 43 q 736 64 684 43 q 842 163 800 88 l 842 290 q 821 323 841 311 q 767 347 802 332 q 732 376 732 361 q 746 390 732 390 l 1018 390 q 1032 376 1032 390 q 998 346 1032 358 q 964 290 964 334 l 964 26 q 763 -3 860 22 q 667 -20 714 -16 q 575 -25 619 -25 z "},"H":{"ha":1111,"x_min":105,"x_max":1059,"o":"m 295 852 l 295 535 l 868 535 l 868 852 q 834 908 868 896 q 800 938 800 920 q 814 952 800 952 l 1044 952 q 1059 938 1059 952 q 1024 908 1059 920 q 990 852 990 896 l 990 99 q 1024 43 990 55 q 1059 14 1059 31 q 1044 0 1059 0 l 814 0 q 800 14 800 0 q 834 43 800 31 q 868 99 868 55 l 868 473 l 295 473 l 295 99 q 329 43 295 55 q 363 14 363 31 q 349 0 363 0 l 119 0 q 105 14 105 0 q 139 43 105 31 q 173 99 173 55 l 173 852 q 139 908 173 896 q 105 938 105 920 q 119 952 105 952 l 349 952 q 363 938 363 952 q 329 908 363 920 q 295 852 295 896 z "},"I":{"ha":468,"x_min":105,"x_max":363,"o":"m 295 852 l 295 100 q 329 43 295 55 q 363 14 363 31 q 349 0 363 0 l 119 0 q 105 14 105 0 q 139 43 105 31 q 173 99 173 55 l 173 852 q 139 908 173 897 q 105 938 105 920 q 119 952 105 952 l 349 952 q 363 938 363 952 q 329 908 363 920 q 295 852 295 897 z "},"J":{"ha":463,"x_min":75,"x_max":359,"o":"m 292 122 q 274 -77 292 -12 q 212 -188 256 -142 q 75 -271 151 -250 l 75 -237 q 124 -195 101 -220 q 160 -128 147 -170 q 169 -50 168 -100 q 169 118 169 0 l 169 853 q 135 909 169 897 q 101 939 101 921 q 115 952 101 952 l 345 952 q 359 939 359 952 q 326 909 359 921 q 292 853 292 897 l 292 122 z "},"K":{"ha":1008,"x_min":105,"x_max":984,"o":"m 295 506 l 650 842 q 739 927 703 891 q 788 951 764 951 q 812 945 800 951 l 884 910 q 896 894 896 903 q 894 885 896 890 l 859 786 l 812 806 q 763 817 785 817 q 701 790 728 817 l 428 524 l 938 53 q 968 32 952 39 q 984 14 984 24 q 970 0 984 0 l 741 0 q 726 14 726 0 q 734 26 726 20 q 747 45 746 37 l 747 45 q 723 75 747 54 l 295 470 l 295 99 q 329 43 295 55 q 363 14 363 31 q 349 0 363 0 l 119 0 q 105 14 105 0 q 139 43 105 31 q 173 99 173 55 l 173 852 q 139 908 173 896 q 105 938 105 920 q 119 952 105 952 l 349 952 q 363 938 363 952 q 329 908 363 920 q 295 852 295 896 l 295 506 z "},"L":{"ha":848,"x_min":105,"x_max":791,"o":"m 296 64 l 585 64 q 692 112 648 64 q 758 188 736 161 q 777 203 770 203 q 791 189 791 203 q 790 174 791 180 l 741 0 l 119 0 q 105 14 105 0 q 139 43 105 31 q 173 99 173 55 l 173 852 q 139 908 173 896 q 105 938 105 920 q 119 952 105 952 l 349 952 q 363 938 363 952 q 329 908 363 920 q 295 852 295 896 l 296 64 z "},"M":{"ha":1294,"x_min":91,"x_max":1219,"o":"m 1151 852 l 1151 99 q 1185 43 1151 55 q 1219 14 1219 31 q 1205 0 1219 0 l 975 0 q 961 14 961 0 q 995 43 961 31 q 1029 99 1029 55 l 1029 825 l 637 -20 l 611 -20 l 224 793 l 224 99 q 258 43 224 55 q 292 14 292 31 q 277 0 292 0 l 105 0 q 91 14 91 0 q 125 43 91 31 q 159 99 159 55 l 159 852 q 125 908 159 896 q 91 938 91 920 q 105 952 91 952 l 286 952 l 656 191 l 1016 952 l 1205 952 q 1219 938 1219 952 q 1185 908 1219 920 q 1151 852 1151 896 z "},"N":{"ha":1115,"x_min":91,"x_max":1062,"o":"m 928 138 l 928 852 q 895 908 928 896 q 861 938 861 920 q 875 952 861 952 l 1048 952 q 1062 938 1062 952 q 1028 908 1062 920 q 994 852 994 896 l 994 -29 l 873 0 l 224 806 l 224 99 q 258 43 224 55 q 292 14 292 31 q 277 0 292 0 l 105 0 q 91 14 91 0 q 125 43 91 31 q 159 99 159 55 l 159 852 q 125 908 159 896 q 91 938 91 920 q 105 952 91 952 l 279 952 l 928 138 z "},"O":{"ha":1092,"x_min":33,"x_max":1065,"o":"m 548 921 q 257 790 340 920 q 174 476 174 659 q 278 162 174 292 q 548 31 382 33 l 551 31 q 818 170 713 31 q 921 472 921 307 l 921 476 q 833 783 920 645 q 548 921 746 921 m 548 981 l 555 981 q 924 846 774 981 q 1065 515 1065 721 q 1063 478 1065 497 q 902 116 1049 245 q 547 -24 754 -12 q 515 -24 531 -24 q 182 106 327 -24 q 33 454 33 239 q 33 478 33 466 q 183 844 41 709 q 548 981 324 978 z "},"P":{"ha":839,"x_min":91,"x_max":801,"o":"m 281 99 q 315 43 281 55 q 349 14 349 31 q 335 0 349 0 l 105 0 q 91 14 91 0 q 124 43 91 31 q 157 99 157 55 l 159 852 q 125 908 159 896 q 91 938 91 920 q 105 952 91 952 l 505 952 q 651 927 575 952 q 768 831 727 903 q 801 693 801 774 q 757 555 800 616 q 653 478 720 503 q 530 452 585 452 l 281 452 l 281 99 m 281 896 l 281 500 l 438 500 q 533 513 485 500 q 616 562 581 527 q 670 700 670 614 q 614 838 670 783 q 452 896 553 896 l 281 896 z "},"Q":{"ha":1092,"x_min":33,"x_max":1065,"o":"m 548 921 q 257 790 340 920 q 174 476 174 659 q 278 162 174 292 q 548 31 382 33 l 551 31 q 818 170 713 31 q 921 472 921 307 l 921 476 q 833 783 920 645 q 548 921 746 921 m 468 -22 q 155 132 285 -4 q 33 454 33 260 q 33 478 33 466 q 183 844 41 709 q 548 981 324 978 l 555 981 q 924 846 774 981 q 1065 515 1065 721 q 1063 478 1065 497 q 913 127 1050 255 q 583 -21 777 -1 q 667 -56 629 -38 q 884 -125 815 -125 q 952 -112 907 -125 l 952 -146 q 856 -217 886 -184 q 765 -198 809 -211 q 642 -152 720 -184 q 458 -96 503 -96 q 429 -102 446 -96 q 356 -146 410 -110 l 356 -103 q 468 -22 428 -47 z "},"R":{"ha":928,"x_min":91,"x_max":925,"o":"m 857 49 q 906 31 876 33 q 925 16 925 28 l 925 14 q 911 0 923 0 l 730 0 q 684 53 724 0 q 591 179 644 106 q 482 329 538 252 q 389 452 427 406 l 281 452 l 281 99 q 315 43 281 55 q 349 14 349 31 q 335 0 349 0 l 105 0 q 91 14 91 0 q 125 43 91 31 q 159 99 159 55 l 159 852 q 125 908 159 896 q 91 938 91 920 q 105 952 91 952 l 505 952 q 651 927 575 952 q 768 831 727 903 q 801 693 801 774 q 757 555 800 616 q 663 482 723 507 q 548 453 602 456 l 857 49 m 281 896 l 281 500 l 438 500 q 533 513 485 500 q 616 562 581 527 q 670 700 670 614 q 614 838 670 783 q 452 896 553 896 l 281 896 z "},"S":{"ha":729,"x_min":43,"x_max":699,"o":"m 363 37 q 468 66 418 41 q 549 140 519 92 q 581 263 581 191 l 581 271 q 523 388 579 347 q 460 418 497 407 q 314 446 389 437 q 172 486 239 454 q 81 570 111 515 q 52 690 52 625 q 140 899 52 818 q 370 983 231 983 l 390 983 q 647 907 541 976 l 631 765 q 618 753 629 753 l 615 753 q 598 772 606 753 q 513 876 569 833 q 393 922 458 919 l 382 922 q 271 899 320 922 q 220 863 239 883 q 189 817 203 844 q 172 764 178 794 q 168 723 168 743 q 176 674 168 696 q 224 604 190 629 q 282 577 251 585 q 323 568 299 572 q 374 559 348 564 q 456 547 413 553 q 540 528 499 541 q 641 471 608 507 q 681 410 665 443 q 699 311 699 365 q 581 70 699 166 q 446 -4 520 20 q 319 -26 387 -23 q 290 -26 304 -26 q 109 0 195 -26 l 45 179 q 43 186 43 182 q 48 199 43 193 q 62 208 54 208 q 79 189 71 206 q 189 62 123 94 q 326 36 243 36 q 363 37 344 36 z "},"T":{"ha":851,"x_min":29,"x_max":824,"o":"m 824 778 q 810 764 824 764 q 784 791 804 764 q 725 863 749 838 q 659 889 700 889 l 489 889 l 489 99 q 523 43 489 55 q 557 14 557 31 q 543 0 557 0 l 313 0 q 299 14 299 0 q 333 43 299 31 q 367 99 367 55 l 367 889 l 194 889 q 128 863 153 889 q 68 791 102 838 q 43 764 50 764 q 29 778 29 764 l 29 903 q 42 948 29 940 q 106 956 54 956 l 747 956 q 813 949 803 956 q 824 903 824 942 l 824 778 z "},"U":{"ha":1054,"x_min":91,"x_max":990,"o":"m 159 399 l 159 853 q 125 908 159 897 q 91 938 91 920 q 105 952 91 952 l 335 952 q 349 938 349 952 q 315 909 349 920 q 282 854 282 898 l 282 489 q 289 305 282 385 q 324 170 296 225 q 410 87 352 115 q 569 58 467 58 q 812 199 748 58 q 857 489 857 298 l 857 852 q 823 908 857 896 q 789 938 789 920 q 804 952 789 952 l 977 952 q 990 938 990 952 q 957 908 990 920 q 923 852 923 896 l 923 399 q 904 214 922 298 q 838 73 886 130 q 569 -26 752 -26 q 372 -5 453 -26 q 241 74 290 17 q 159 399 159 170 z "},"V":{"ha":1003,"x_min":39,"x_max":975,"o":"m 266 857 l 553 120 l 861 751 q 870 783 870 768 q 864 804 870 795 q 824 857 851 825 l 791 896 l 875 960 q 886 964 880 964 q 901 958 893 964 l 957 901 q 975 856 975 882 q 969 824 975 841 q 921 711 953 776 l 589 22 q 579 4 584 10 q 568 0 574 0 l 466 0 q 455 5 459 0 q 448 21 453 7 q 441 41 443 35 l 184 753 q 145 853 157 825 q 105 899 133 878 q 74 915 89 909 q 49 928 58 922 q 41 938 43 932 q 39 944 39 941 q 40 948 39 946 q 48 952 43 952 l 278 952 q 290 948 284 952 q 298 938 296 943 q 299 935 299 936 q 292 921 299 928 q 276 908 285 915 q 264 890 268 901 q 261 876 261 884 q 266 857 261 867 z "},"W":{"ha":1389,"x_min":11,"x_max":1375,"o":"m 237 857 l 525 120 l 690 458 l 584 753 q 562 812 572 787 q 545 853 552 836 q 505 899 533 878 q 474 915 489 909 q 449 928 458 922 q 440 938 444 932 q 439 943 439 941 q 440 948 439 946 q 448 952 442 952 l 678 952 q 690 948 684 952 q 699 938 696 943 q 699 935 699 936 q 692 921 699 928 q 676 908 685 915 q 664 890 668 901 q 661 876 661 884 q 666 857 661 867 l 763 608 l 833 751 q 841 783 841 768 q 836 804 841 795 q 795 857 822 825 l 762 896 l 846 960 q 858 964 852 964 q 873 958 865 964 l 928 901 q 946 856 946 882 q 941 824 946 841 q 892 711 924 776 l 799 517 l 954 120 l 1261 751 q 1270 783 1270 768 q 1264 804 1270 795 q 1223 857 1251 825 l 1190 896 l 1274 960 q 1286 964 1280 964 q 1301 958 1293 964 l 1357 901 q 1375 856 1375 882 q 1369 824 1375 841 q 1321 711 1353 776 l 989 22 q 979 4 984 9 q 968 0 975 0 l 866 0 q 855 5 859 0 q 848 21 852 7 q 841 41 843 35 l 725 363 l 560 22 q 550 4 555 9 q 539 0 546 0 l 437 0 q 427 5 430 0 q 419 21 424 7 q 412 41 414 35 l 117 853 q 77 899 107 877 q 45 915 60 909 q 20 928 30 922 q 12 938 15 932 q 11 943 11 941 q 12 948 11 946 q 20 952 14 952 l 250 952 q 262 948 256 952 q 270 938 268 943 q 271 935 271 936 q 263 921 271 928 q 248 908 256 915 q 235 890 239 901 q 233 876 233 884 q 237 857 233 867 z "},"X":{"ha":926,"x_min":24,"x_max":922,"o":"m 225 53 l 231 26 q 224 9 231 18 q 208 0 218 0 l 33 0 q 24 4 25 0 l 24 7 q 46 28 24 18 l 81 42 q 158 99 132 64 l 425 473 l 179 853 q 91 916 153 892 q 64 926 74 921 q 48 945 48 936 l 48 948 q 55 952 49 952 l 285 952 q 304 943 296 952 q 311 930 311 935 q 307 921 311 926 q 295 908 302 915 q 288 890 288 901 l 288 887 q 298 857 288 871 l 489 564 l 670 817 q 749 919 717 882 q 810 956 782 956 q 824 954 817 956 l 891 933 q 903 922 903 928 q 901 909 903 914 l 873 794 l 829 804 q 770 814 792 812 l 768 814 q 724 782 746 814 l 528 503 l 791 99 q 879 37 812 64 q 905 24 895 30 q 922 7 922 14 q 915 0 922 0 l 685 0 q 671 4 679 0 q 659 18 659 11 q 670 39 659 26 q 682 62 681 53 l 682 66 q 673 96 682 80 l 465 413 l 245 100 q 225 53 225 72 z "},"Y":{"ha":926,"x_min":32,"x_max":841,"o":"m 399 459 l 163 853 q 111 899 147 876 q 74 915 92 909 q 46 928 57 922 q 35 938 39 932 q 32 945 32 942 l 32 948 q 39 952 33 952 l 269 952 q 281 948 275 952 q 293 938 289 943 q 295 931 295 935 q 290 921 295 926 q 279 908 286 915 q 271 890 272 901 l 271 887 q 282 857 271 872 l 511 494 l 686 762 q 709 814 706 792 q 710 821 710 817 q 694 873 710 841 l 671 920 l 768 962 q 777 964 772 964 q 793 953 785 964 l 833 884 q 841 859 841 871 q 818 812 841 836 q 741 715 782 774 l 561 452 q 545 400 549 433 q 541 337 541 367 l 541 99 q 575 43 541 55 q 609 14 609 31 q 595 0 609 0 l 365 0 q 351 14 351 0 q 385 43 351 31 q 418 99 418 55 l 418 389 q 399 459 418 428 z "},"Z":{"ha":926,"x_min":20,"x_max":909,"o":"m 33 41 l 692 890 l 279 889 q 214 863 239 889 q 155 791 189 838 q 129 764 136 764 q 115 778 115 764 l 115 903 q 127 948 115 940 q 192 956 140 956 l 819 956 q 886 944 874 956 q 891 932 891 939 q 881 903 891 920 l 215 66 l 745 67 q 810 93 785 67 q 870 165 836 118 q 895 192 889 192 q 909 178 909 192 l 909 52 q 899 6 909 13 q 833 0 888 0 l 106 0 q 30 6 50 0 q 20 17 20 9 q 33 41 20 26 z "},"[":{"ha":463,"x_min":149,"x_max":339,"o":"m 328 -249 q 339 -267 339 -249 q 331 -285 339 -285 l 163 -285 q 149 -271 149 -285 l 149 974 q 163 994 149 994 l 331 994 q 339 975 339 994 q 328 956 339 956 l 229 956 l 229 -249 l 328 -249 z "},"\\":{"ha":694,"x_min":3,"x_max":671,"o":"m 671 -47 l 575 -47 l 3 1000 l 99 1000 l 671 -47 z "},"]":{"ha":463,"x_min":149,"x_max":340,"o":"m 161 -249 l 260 -249 l 260 956 l 161 956 q 149 975 149 956 q 158 994 149 994 l 326 994 q 340 974 340 994 q 339 693 340 859 q 339 351 339 527 l 339 9 q 340 -271 339 -157 q 326 -285 340 -285 l 158 -285 q 149 -267 149 -285 q 161 -249 149 -249 z "},"^":{"ha":694,"x_min":113,"x_max":610,"o":"m 325 970 l 397 970 l 610 618 l 572 618 l 361 890 l 149 618 l 113 618 l 325 970 z "},"_":{"ha":694,"x_min":0,"x_max":692,"o":"m 0 -148 l 692 -148 l 692 -228 l 0 -228 l 0 -148 z "},"`":{"ha":694,"x_min":120,"x_max":458,"o":"m 441 751 l 152 859 q 120 906 120 871 q 170 956 120 956 q 199 947 186 956 l 452 772 q 458 762 458 768 q 446 751 458 751 q 441 751 442 751 z "},"a":{"ha":783,"x_min":42,"x_max":731,"o":"m 541 59 l 354 -9 q 318 -17 332 -17 l 290 -17 q 124 62 194 -12 q 45 243 54 136 q 42 298 42 272 q 47 367 42 334 q 92 482 55 425 q 152 545 109 512 q 185 563 167 555 q 294 604 239 583 q 404 644 349 624 q 425 648 415 648 l 429 648 q 534 627 472 646 q 541 624 539 625 q 577 610 555 618 q 593 608 586 608 q 612 614 604 608 q 633 634 627 626 q 642 639 636 639 q 648 637 645 639 q 663 624 663 632 l 663 99 q 697 43 663 55 q 731 14 731 31 q 717 0 731 0 l 552 0 q 541 9 541 0 l 541 59 m 541 522 q 467 569 513 547 q 387 593 422 591 l 384 593 q 357 587 370 593 q 308 569 332 578 q 260 551 284 560 q 233 534 243 545 q 176 425 191 489 q 165 330 165 377 q 166 299 165 315 q 219 140 174 201 q 333 58 264 77 q 385 51 359 51 q 402 52 393 51 q 437 60 417 53 q 486 78 453 66 q 541 99 519 91 l 541 522 z "},"b":{"ha":772,"x_min":42,"x_max":730,"o":"m 233 109 q 305 61 260 83 q 387 38 350 39 l 391 38 q 416 43 401 38 q 465 61 440 52 q 513 79 489 70 q 541 97 528 85 q 597 205 582 141 q 608 304 608 254 q 607 332 608 318 q 554 490 600 429 q 440 572 509 552 q 385 580 412 580 q 370 579 378 580 q 335 570 355 577 q 286 552 319 564 q 233 532 253 540 l 233 109 m 233 7 q 195 20 217 13 q 178 23 186 23 q 161 17 168 23 q 140 -3 146 4 q 132 -7 137 -7 q 125 -6 128 -7 q 110 7 110 -1 l 110 852 q 76 908 110 896 q 42 938 42 920 q 56 952 42 952 q 145 966 101 954 q 233 992 189 977 l 233 572 l 419 641 q 454 649 439 648 q 468 649 460 649 q 483 648 475 648 q 648 570 579 644 q 728 387 718 494 q 730 332 730 359 q 726 263 730 296 q 682 149 718 205 q 621 86 662 117 q 587 68 606 75 q 478 27 532 47 q 370 -13 424 7 q 347 -17 357 -17 l 344 -17 q 239 4 301 -15 q 233 7 235 5 z "},"c":{"ha":627,"x_min":54,"x_max":600,"o":"m 376 648 l 391 648 q 594 589 501 648 l 583 474 q 574 465 581 465 l 572 465 q 559 479 565 466 q 488 564 532 538 q 382 590 445 590 l 366 590 q 252 547 292 586 q 199 463 216 512 q 181 352 181 413 q 183 311 181 332 q 238 145 190 210 q 379 49 301 60 q 406 47 392 47 q 541 87 467 47 q 593 109 579 109 q 598 107 596 109 q 600 102 600 106 q 591 76 600 94 q 568 44 581 56 q 473 -4 530 9 q 366 -17 417 -17 q 154 53 240 -16 q 57 252 68 123 q 54 311 54 282 q 59 382 54 347 q 105 501 68 441 q 215 604 144 564 q 376 648 285 644 z "},"d":{"ha":835,"x_min":56,"x_max":745,"o":"m 554 59 l 368 -9 q 332 -17 346 -17 l 304 -17 q 138 62 208 -12 q 58 243 68 136 q 56 298 56 272 q 60 367 56 334 q 105 482 68 425 q 165 545 123 512 q 199 563 180 555 q 308 604 253 583 q 417 644 362 624 q 439 648 429 648 l 442 648 q 547 627 486 646 q 554 624 553 625 l 554 852 q 520 908 554 896 q 486 938 486 920 q 500 952 486 952 q 589 966 545 954 q 677 992 633 977 l 677 99 q 711 43 677 55 q 745 14 745 31 q 730 0 745 0 l 566 0 q 554 9 554 0 l 554 59 m 554 522 q 479 571 524 550 q 400 593 435 591 l 397 593 q 370 587 384 593 q 322 569 346 578 q 273 551 298 560 q 246 534 256 545 q 190 425 204 489 q 178 330 178 377 q 180 299 178 315 q 233 140 187 201 q 347 58 278 77 q 399 51 372 51 q 416 52 407 51 q 451 60 431 53 q 500 78 467 66 q 554 99 533 91 l 554 522 z "},"e":{"ha":681,"x_min":42,"x_max":639,"o":"m 48 374 q 148 574 67 499 q 361 651 229 650 l 364 651 q 568 575 498 651 q 639 374 639 498 q 637 335 638 347 q 609 324 635 324 l 177 324 q 233 142 179 214 q 368 54 286 70 q 416 48 391 48 q 549 85 480 48 q 602 106 588 106 q 607 105 605 106 q 609 99 609 103 q 600 74 609 90 q 587 52 592 58 q 578 43 582 47 q 377 -21 504 -21 q 111 93 199 -20 q 42 299 42 180 q 48 374 42 335 m 177 374 l 534 374 q 497 526 534 456 q 366 591 461 591 l 358 591 q 221 522 262 589 q 177 374 180 456 z "},"f":{"ha":463,"x_min":46,"x_max":465,"o":"m 263 696 l 263 643 l 425 646 l 425 646 q 435 629 435 646 q 433 606 435 619 q 402 574 426 574 l 263 574 l 263 99 q 297 43 263 55 q 331 14 331 31 q 317 0 331 0 l 87 0 q 73 14 73 0 q 106 43 73 31 q 140 99 140 55 l 140 573 q 63 570 115 572 l 60 570 q 46 583 47 570 l 46 585 q 59 602 46 595 q 115 631 73 608 q 135 640 125 636 q 140 641 137 641 l 140 696 q 156 837 140 783 q 185 895 166 871 q 211 912 194 906 l 384 977 q 407 980 390 979 l 410 980 q 437 972 425 980 q 461 949 456 959 q 465 928 465 941 q 465 916 465 922 q 456 882 463 884 l 454 882 q 432 892 446 882 q 368 913 399 913 q 330 906 349 913 q 267 813 273 882 q 263 758 264 787 q 263 696 263 728 z "},"g":{"ha":748,"x_min":42,"x_max":663,"o":"m 541 135 l 541 522 q 467 569 513 547 q 387 593 422 591 l 384 593 q 357 587 370 593 q 308 569 332 578 q 260 551 284 560 q 233 534 243 545 q 176 425 191 489 q 165 330 165 377 q 166 299 165 315 q 219 140 174 201 q 333 58 264 77 q 385 51 359 51 q 402 52 393 51 q 437 60 417 53 q 486 78 453 66 q 540 98 519 90 l 540 135 l 541 135 m 540 59 l 354 -9 q 318 -17 332 -17 l 290 -17 q 124 62 194 -12 q 45 243 54 136 q 42 298 42 272 q 47 367 42 334 q 92 482 55 425 q 152 545 109 512 q 185 563 167 555 q 294 604 239 583 q 404 644 349 624 q 425 648 415 648 l 429 648 q 534 627 472 646 q 541 624 539 625 q 577 610 555 618 q 593 608 586 608 q 612 614 604 608 q 633 634 627 626 q 642 639 636 639 q 648 637 645 639 q 663 624 663 632 l 663 -122 q 631 -262 663 -234 q 541 -311 600 -290 l 354 -381 q 318 -389 332 -389 q 290 -388 300 -389 q 124 -309 195 -385 q 66 -214 87 -269 q 186 -168 125 -191 q 219 -231 199 -203 q 333 -313 265 -293 q 384 -319 359 -319 q 402 -319 393 -319 q 437 -311 417 -317 q 458 -302 446 -307 q 486 -292 471 -298 q 530 -227 519 -276 q 541 -161 541 -177 l 540 59 z "},"h":{"ha":819,"x_min":56,"x_max":770,"o":"m 245 99 q 279 43 245 55 q 313 14 313 31 q 300 0 313 0 l 70 0 q 56 14 56 0 q 90 43 56 31 q 123 99 123 55 l 123 852 q 90 908 123 896 q 56 938 56 920 q 70 952 56 952 q 158 966 115 954 q 245 992 202 977 l 245 578 q 311 604 283 593 q 366 623 340 614 q 495 652 428 645 q 512 652 503 652 q 621 614 569 652 q 703 343 703 551 l 703 99 q 736 43 703 55 q 770 14 770 31 q 757 0 770 0 l 592 0 q 581 9 581 0 l 581 343 q 519 552 581 492 q 422 591 479 591 q 351 578 390 591 q 314 564 336 572 q 275 549 291 555 q 245 538 258 543 l 245 99 z "},"i":{"ha":402,"x_min":76,"x_max":334,"o":"m 205 949 q 279 875 279 949 q 205 800 279 800 q 131 875 131 800 q 205 949 131 949 m 266 99 q 300 43 266 55 q 334 14 334 31 q 320 0 334 0 l 90 0 q 76 14 76 0 q 110 43 76 31 q 144 99 144 55 l 144 533 q 110 588 144 576 q 76 618 76 600 q 90 632 76 632 q 179 646 135 634 q 266 673 222 658 l 266 99 z "},"j":{"ha":330,"x_min":15,"x_max":245,"o":"m 171 949 q 245 875 245 949 q 171 800 245 800 q 97 875 97 800 q 171 949 97 949 m 233 8 q 214 -191 232 -125 q 153 -302 197 -256 q 15 -385 90 -366 l 15 -351 q 101 -242 79 -312 q 110 -164 109 -214 q 110 4 110 -114 l 110 533 q 76 588 110 576 q 42 618 42 600 q 56 632 42 632 q 145 646 101 634 q 233 673 189 658 l 233 8 z "},"k":{"ha":789,"x_min":69,"x_max":772,"o":"m 259 300 l 259 99 q 293 43 259 55 q 327 14 327 31 q 313 0 327 0 l 83 0 q 69 14 69 0 q 103 43 69 31 q 137 99 137 55 l 137 852 q 103 908 137 896 q 69 938 69 920 q 83 952 69 952 q 172 966 128 954 q 259 992 216 977 l 259 374 l 499 566 q 572 619 541 600 q 607 630 591 630 q 631 624 619 630 l 681 593 q 689 581 689 587 q 687 574 689 577 l 655 503 l 621 520 q 582 530 601 530 q 538 515 559 530 q 365 383 440 441 l 601 153 q 696 72 674 81 q 728 64 711 64 q 742 66 734 64 q 752 67 747 67 q 770 57 766 67 q 772 50 772 53 q 765 41 772 43 l 722 20 q 656 4 686 4 q 618 12 636 4 q 538 65 574 29 l 279 317 q 259 300 274 311 z "},"l":{"ha":405,"x_min":69,"x_max":327,"o":"m 259 99 q 293 43 259 55 q 327 14 327 31 q 313 0 327 0 l 83 0 q 69 14 69 0 q 103 43 69 31 q 137 99 137 55 l 137 852 q 103 908 137 896 q 69 938 69 920 q 83 952 69 952 q 172 966 128 954 q 259 992 216 977 l 259 99 z "},"m":{"ha":1219,"x_min":67,"x_max":1154,"o":"m 257 584 q 314 606 289 596 q 363 623 340 615 q 492 652 425 645 q 509 652 500 652 q 618 614 566 652 q 646 585 635 600 q 702 606 677 597 q 749 623 726 615 q 878 652 811 645 q 895 652 886 652 q 1003 614 951 652 q 1086 343 1086 551 l 1086 99 q 1120 43 1086 55 q 1154 14 1154 31 q 1139 0 1154 0 l 975 0 q 964 9 964 0 l 964 343 q 902 552 964 492 q 806 591 863 591 q 734 578 773 591 q 702 566 721 573 q 666 553 682 559 q 700 343 700 483 l 700 99 q 734 43 700 55 q 768 14 768 31 q 754 0 768 0 l 524 0 q 510 14 510 0 q 544 43 510 31 q 578 99 578 55 l 578 343 q 516 552 578 492 q 420 591 477 591 q 349 578 387 591 q 302 561 325 570 q 257 544 279 552 l 257 99 q 291 43 257 55 q 325 14 325 31 q 311 0 325 0 l 81 0 q 67 14 67 0 q 101 43 67 31 q 135 99 135 55 l 135 533 q 101 588 135 576 q 67 618 67 600 q 81 632 67 632 q 170 646 126 634 q 257 673 214 658 l 257 584 z "},"n":{"ha":808,"x_min":56,"x_max":770,"o":"m 245 578 q 311 604 283 593 q 366 623 340 614 q 495 652 428 645 q 512 652 503 652 q 621 614 569 652 q 703 343 703 551 l 703 99 q 736 43 703 55 q 770 14 770 31 q 757 0 770 0 l 592 0 q 581 9 581 0 l 581 343 q 519 552 581 492 q 422 591 479 591 q 351 578 390 591 q 314 564 336 572 q 275 549 291 555 q 245 538 258 543 l 245 99 q 279 43 245 55 q 313 14 313 31 q 300 0 313 0 l 70 0 q 56 14 56 0 q 90 43 56 31 q 123 99 123 55 l 123 533 q 90 588 123 576 q 56 618 56 600 q 70 632 56 632 q 158 646 115 634 q 245 673 202 658 l 245 578 z "},"o":{"ha":751,"x_min":42,"x_max":709,"o":"m 391 648 q 615 546 524 643 q 709 315 707 450 l 709 311 q 613 82 709 176 q 375 -17 515 -13 l 364 -17 q 140 79 234 -17 q 42 313 42 178 l 42 315 q 154 565 43 464 q 192 586 167 577 q 268 613 218 595 q 334 637 298 624 q 389 648 368 648 l 391 648 m 377 603 l 369 603 q 233 526 290 603 q 172 326 172 445 q 232 120 172 208 q 376 29 291 33 l 385 29 q 521 106 464 29 q 581 305 581 186 q 521 511 581 424 q 377 603 461 598 z "},"p":{"ha":812,"x_min":76,"x_max":755,"o":"m 266 575 l 444 641 q 479 649 464 648 q 492 649 486 649 q 507 648 499 648 q 673 570 603 644 q 753 387 743 494 q 755 333 755 359 q 751 263 755 296 q 707 149 742 205 q 646 86 688 118 q 612 68 631 75 q 394 -13 494 23 q 372 -17 382 -17 l 369 -17 q 266 3 329 -15 l 266 -299 q 300 -355 266 -342 q 334 -385 334 -367 q 320 -398 334 -398 l 90 -398 q 76 -385 76 -398 q 110 -355 76 -367 q 144 -299 144 -342 l 144 533 q 110 588 144 576 q 76 618 76 600 q 90 632 76 632 q 179 646 135 634 q 266 673 222 658 l 266 575 m 266 102 q 336 58 294 77 q 412 38 378 39 l 416 38 q 441 43 427 38 q 489 61 465 52 q 538 79 513 70 q 566 97 553 85 q 621 205 606 141 q 633 301 633 253 q 631 332 633 317 q 578 490 624 429 q 465 572 532 553 q 411 580 437 580 q 395 579 403 580 q 360 570 380 577 q 317 554 346 565 q 266 536 288 544 l 266 102 z "},"q":{"ha":795,"x_min":56,"x_max":742,"o":"m 551 58 l 367 -9 q 332 -17 347 -17 l 303 -17 q 138 62 206 -12 q 58 243 68 136 q 56 300 56 273 q 60 367 56 334 q 104 482 68 425 q 165 545 123 513 q 199 563 180 555 q 307 604 253 583 q 416 644 361 624 q 439 648 429 648 l 442 648 q 547 627 486 646 q 551 625 549 626 q 555 624 553 624 l 555 623 q 591 610 570 616 q 605 608 599 608 q 623 614 616 608 q 644 634 637 626 q 652 639 647 639 q 659 637 656 639 q 674 624 674 632 l 674 -299 q 708 -355 674 -342 q 742 -385 742 -367 q 728 -398 742 -398 l 498 -398 q 484 -385 484 -398 q 517 -355 484 -367 q 551 -299 551 -342 l 551 58 m 551 524 q 478 570 523 549 q 399 593 434 591 l 397 593 q 370 587 383 593 q 321 569 346 578 q 273 551 297 560 q 245 534 257 545 q 189 425 203 489 q 178 330 178 377 q 179 299 178 315 q 232 140 186 201 q 346 58 277 78 q 398 51 372 51 q 415 52 407 51 q 451 60 431 53 q 497 78 465 66 q 551 98 530 90 l 551 524 z "},"r":{"ha":564,"x_min":83,"x_max":534,"o":"m 273 404 l 273 99 q 307 43 273 55 q 340 14 340 31 q 327 0 340 0 l 97 0 q 83 14 83 0 q 117 43 83 31 q 151 99 151 55 l 151 533 q 117 588 151 576 q 83 618 83 600 q 97 632 83 632 q 185 646 142 634 q 273 673 229 658 l 273 583 l 368 619 q 449 648 420 639 q 470 651 458 651 q 534 637 495 651 l 519 467 l 488 467 q 386 566 461 566 q 371 566 378 566 q 297 513 319 559 q 273 404 275 467 z "},"s":{"ha":600,"x_min":52,"x_max":554,"o":"m 332 650 q 521 589 432 644 l 507 471 q 496 460 505 460 l 494 460 q 479 477 486 461 q 408 562 454 528 q 307 598 361 596 l 304 598 q 222 577 262 598 q 170 511 180 555 q 167 484 167 496 q 205 422 167 441 q 317 384 253 398 q 476 331 404 364 q 554 192 547 298 l 554 185 q 515 85 554 135 q 394 3 473 31 q 284 -16 345 -14 l 266 -16 q 106 6 182 -16 l 52 155 l 54 169 q 66 179 54 179 l 67 179 q 81 163 74 178 q 158 67 113 96 q 272 37 203 39 l 280 37 q 386 60 328 37 q 451 148 448 84 l 451 152 q 382 245 451 225 q 256 281 310 265 q 130 339 189 299 q 71 456 71 378 l 71 459 q 153 609 72 564 q 316 650 227 650 q 332 650 324 650 z "},"t":{"ha":463,"x_min":46,"x_max":435,"o":"m 140 573 q 63 570 115 572 l 60 570 q 46 583 47 570 l 46 585 q 59 602 46 595 q 115 631 73 608 q 135 640 125 636 q 140 641 137 641 l 140 757 q 154 804 140 791 q 218 841 168 817 q 248 850 237 850 q 263 832 263 850 l 263 643 l 425 646 l 425 646 q 435 629 435 646 q 433 606 435 619 q 402 574 426 574 l 263 574 l 263 149 q 306 57 263 87 q 380 22 349 26 l 380 1 q 210 20 279 1 q 140 170 140 39 l 140 573 z "},"u":{"ha":840,"x_min":58,"x_max":773,"o":"m 705 99 q 739 43 705 55 q 773 14 773 31 q 759 0 773 0 l 594 0 q 583 9 583 0 l 583 53 q 516 27 545 39 q 463 8 488 16 q 334 -20 400 -13 q 315 -20 324 -20 q 208 18 259 -20 q 125 288 125 80 l 125 533 q 92 588 125 576 q 58 618 58 600 q 72 632 58 632 q 160 646 117 634 q 248 673 204 658 l 248 288 q 310 79 248 139 q 406 41 349 41 q 477 54 439 41 q 515 67 492 58 q 554 82 538 76 q 565 86 557 83 q 583 93 573 89 l 583 533 q 549 588 583 576 q 515 618 515 600 q 529 632 515 632 q 617 646 574 634 q 705 673 661 658 l 705 99 z "},"v":{"ha":703,"x_min":21,"x_max":667,"o":"m 241 546 l 418 113 l 574 486 q 581 514 581 500 q 562 560 581 538 l 539 587 l 600 635 q 608 639 604 639 q 618 633 612 639 l 656 595 q 667 565 667 583 q 663 543 667 555 q 631 467 652 510 l 423 1 q 416 -9 420 -5 q 409 -13 413 -13 l 352 -13 q 345 -9 347 -13 q 339 2 342 -7 q 335 14 336 10 l 113 543 q 80 583 102 568 q 52 598 66 592 q 30 610 38 604 q 22 619 25 613 q 21 624 21 622 q 22 628 21 626 q 29 631 24 631 l 252 631 q 262 628 256 631 q 270 619 268 623 q 271 616 271 617 q 264 604 271 610 q 239 576 241 583 q 237 563 237 570 q 241 546 237 555 z "},"w":{"ha":1117,"x_min":21,"x_max":1082,"o":"m 655 546 l 833 113 l 989 486 q 995 514 995 500 q 976 560 995 538 l 954 587 l 1014 635 q 1022 638 1017 638 q 1032 633 1027 638 l 1070 595 q 1082 565 1082 583 q 1078 543 1082 555 q 1046 467 1067 510 l 838 1 q 831 -9 834 -5 q 823 -13 827 -13 l 766 -13 q 759 -9 762 -13 q 754 2 757 -7 q 749 14 751 10 l 594 383 l 423 1 q 416 -9 420 -5 q 409 -13 413 -13 l 352 -13 q 345 -9 347 -13 q 339 2 342 -7 q 335 14 336 10 l 113 543 q 80 583 102 568 q 52 598 66 592 q 30 610 38 604 q 22 619 25 613 q 21 624 21 622 q 22 628 21 626 q 29 631 24 631 l 252 631 q 262 628 256 631 q 270 619 268 623 q 271 616 271 617 q 264 604 271 610 q 239 576 241 583 q 237 563 237 570 q 241 546 237 555 l 418 113 l 563 458 l 528 543 q 494 583 516 568 q 466 598 480 592 q 444 610 452 604 q 436 619 437 614 q 435 624 435 622 q 436 628 435 626 q 444 631 438 631 l 666 631 q 677 628 671 631 q 684 619 682 623 q 685 616 685 617 q 678 604 685 610 q 653 576 655 583 q 651 563 651 570 q 655 546 651 555 z "},"x":{"ha":745,"x_min":16,"x_max":709,"o":"m 111 66 l 304 303 l 125 564 q 88 594 114 581 q 63 605 75 601 q 43 614 51 610 q 28 627 28 623 q 38 630 28 630 l 256 630 q 273 621 267 630 q 275 614 275 618 q 269 607 275 610 q 258 589 259 601 q 267 567 258 578 l 382 398 l 498 540 q 576 630 559 615 q 593 635 583 635 q 635 622 610 635 l 679 599 q 685 589 685 595 q 683 582 685 586 l 648 511 q 602 535 623 525 q 591 538 597 538 q 556 514 575 538 l 418 346 l 612 66 q 652 35 624 46 q 672 25 662 30 q 693 16 683 21 q 709 3 709 7 q 699 0 709 0 l 480 0 q 463 9 470 0 q 461 15 461 12 q 467 23 461 19 q 478 41 477 28 l 478 42 q 470 63 478 52 l 341 251 l 189 66 q 176 37 176 48 l 176 35 q 180 22 176 26 q 180 18 180 20 q 177 9 180 14 q 164 0 171 0 l 23 0 q 16 3 16 0 q 19 9 16 6 q 57 28 28 20 q 111 66 86 35 z "},"y":{"ha":703,"x_min":20,"x_max":667,"o":"m 113 543 q 80 583 102 568 q 44 602 62 594 q 22 619 26 609 q 20 625 20 623 q 29 631 20 631 l 252 631 q 270 619 264 631 q 271 614 271 616 q 260 600 271 606 q 239 576 245 592 q 237 563 237 570 q 241 546 237 555 l 418 113 l 574 486 q 581 514 581 500 q 562 560 581 538 l 539 587 l 600 635 q 608 639 604 639 q 618 633 612 639 l 656 595 q 667 565 667 583 q 663 543 667 555 q 631 467 652 510 l 296 -281 q 259 -355 275 -326 q 218 -384 243 -384 l 216 -384 l 161 -382 q 149 -369 149 -380 l 144 -292 l 179 -291 q 243 -251 224 -290 l 358 -13 q 345 -9 348 -13 q 339 2 342 -7 q 335 14 336 10 l 113 543 z "},"z":{"ha":691,"x_min":35,"x_max":642,"o":"m 632 597 l 199 54 l 494 54 q 552 77 528 55 q 605 140 576 100 q 627 163 622 163 q 639 151 639 163 l 639 44 q 630 5 639 11 q 573 0 621 0 l 109 -1 q 43 5 60 0 q 35 14 35 7 q 45 35 35 22 l 474 584 l 235 584 q 178 562 200 584 q 128 499 157 539 q 106 477 111 477 q 94 488 94 477 l 94 596 q 104 634 94 627 q 160 641 115 641 l 582 641 q 642 619 642 641 q 632 597 642 610 z "},"{":{"ha":694,"x_min":88,"x_max":551,"o":"m 107 416 q 92 423 96 416 q 88 436 88 428 q 89 442 88 439 q 107 456 91 454 q 248 506 210 465 q 278 572 271 530 q 285 652 285 613 l 285 795 q 295 896 285 844 q 336 979 304 948 q 525 1028 387 1028 q 544 1022 538 1028 q 551 1005 551 1012 q 530 994 551 994 q 408 957 440 993 q 381 893 387 935 q 376 817 376 852 l 376 720 q 369 607 376 667 q 337 512 361 547 q 194 435 298 456 q 337 359 298 414 q 369 264 361 323 q 376 151 376 204 l 376 54 q 408 -85 376 -50 q 530 -122 441 -121 q 545 -132 541 -122 q 547 -140 547 -136 q 543 -151 547 -146 q 525 -157 538 -157 q 336 -107 388 -157 q 295 -25 304 -77 q 285 76 285 26 l 285 219 q 277 299 285 258 q 248 367 270 341 q 184 402 224 391 q 107 416 144 413 z "},"|":{"ha":694,"x_min":305,"x_max":401,"o":"m 305 1010 l 401 1010 l 401 -154 l 305 -154 l 305 1010 z "},"}":{"ha":694,"x_min":84,"x_max":547,"o":"m 528 416 q 450 402 490 413 q 387 367 410 391 q 357 299 364 341 q 350 219 350 258 l 350 76 q 340 -25 350 26 q 299 -107 330 -77 q 110 -157 246 -157 q 92 -151 97 -157 q 87 -140 87 -146 q 89 -132 87 -136 q 104 -122 93 -122 q 227 -85 195 -121 q 260 54 260 -50 l 260 151 q 267 264 260 204 q 298 359 274 323 q 441 435 337 415 q 298 512 336 456 q 267 607 273 547 q 260 720 260 667 l 260 817 q 253 893 260 852 q 227 957 247 935 q 104 994 194 993 q 84 1005 84 994 q 92 1022 84 1012 q 110 1028 96 1028 q 299 979 248 1028 q 340 896 330 948 q 350 795 350 844 l 350 652 q 357 572 350 613 q 387 506 364 530 q 528 456 423 465 q 547 442 544 454 l 547 436 q 543 423 547 428 q 528 416 538 416 z "},"~":{"ha":694,"x_min":39,"x_max":656,"o":"m 653 494 q 574 383 612 418 q 490 346 534 346 q 321 403 413 346 q 225 434 271 434 q 158 414 190 434 q 138 402 150 409 q 113 382 127 395 q 72 333 90 360 q 60 326 67 326 q 48 330 55 326 q 39 343 39 335 q 45 359 39 350 q 110 459 77 408 q 212 511 142 511 q 385 452 297 511 q 477 420 431 420 q 557 444 517 420 q 622 516 594 465 q 636 524 627 524 q 640 524 638 524 q 655 509 653 522 q 656 505 656 507 q 653 494 656 500 z "},"":{"ha":373,"x_min":0,"x_max":0,"o":""},"":{"ha":386,"x_min":101,"x_max":250,"o":"m 199 351 l 247 -296 l 247 -301 q 197 -345 247 -345 l 154 -345 q 104 -302 104 -345 l 104 -296 l 152 351 q 168 368 152 368 l 182 368 q 199 351 199 368 m 176 450 q 101 509 101 450 l 101 565 q 176 624 101 624 q 250 565 250 624 l 250 509 q 176 450 250 450 z "},"":{"ha":694,"x_min":88,"x_max":634,"o":"m 422 648 l 425 648 q 628 589 536 648 l 616 475 q 608 466 615 466 l 606 466 q 593 479 599 467 q 522 565 566 537 q 422 591 483 588 l 422 50 q 439 49 431 49 q 574 89 500 49 q 627 111 614 111 q 632 109 631 111 q 634 102 634 106 q 625 77 634 94 q 602 45 614 56 q 518 1 568 14 q 422 -15 469 -13 l 422 -144 l 365 -144 l 365 -14 q 177 65 252 -3 q 91 254 102 134 q 88 312 88 283 q 93 382 88 349 q 139 502 102 442 q 365 644 214 621 l 365 756 l 422 756 l 422 648 m 365 585 q 286 547 315 575 q 233 463 249 511 q 215 352 215 414 q 217 311 215 332 q 272 146 224 211 q 365 65 314 90 l 365 585 z "},"":{"ha":694,"x_min":6,"x_max":658,"o":"m 49 73 q 92 20 49 20 q 145 51 130 20 q 170 111 160 81 q 118 136 144 136 q 49 73 49 136 m 43 532 l 163 532 q 157 629 157 585 q 161 701 157 668 q 200 840 170 781 q 433 979 273 979 q 525 955 480 979 q 592 887 570 931 q 604 839 602 865 l 604 834 q 587 793 604 810 q 550 775 569 775 q 515 790 533 775 q 493 833 497 803 q 486 883 489 863 q 425 938 478 930 q 402 939 413 939 q 341 919 365 939 q 287 833 298 882 q 276 732 276 785 q 280 631 276 681 q 289 532 285 581 l 466 532 q 476 522 476 532 l 476 474 q 466 464 476 464 l 293 464 q 294 417 294 441 q 293 370 294 393 q 276 264 289 314 q 252 161 263 214 q 326 135 289 148 q 400 113 362 123 q 477 103 441 103 q 530 110 505 103 q 612 169 582 124 q 623 198 621 183 q 644 213 625 213 q 658 197 658 213 q 650 155 658 175 q 635 115 642 135 q 555 12 610 51 q 452 -21 506 -21 q 438 -20 445 -21 q 324 20 376 -16 q 274 52 311 28 q 223 87 237 75 q 139 -7 185 29 q 95 -22 119 -22 q 67 -17 81 -22 q 12 31 27 -3 q 6 61 6 44 q 12 97 6 77 q 46 155 24 136 q 106 180 79 180 l 111 180 q 178 176 139 178 q 182 242 182 210 l 182 262 q 178 347 180 304 q 169 464 176 397 l 43 464 q 33 474 33 464 l 33 522 q 43 532 33 532 z "},"":{"ha":694,"x_min":60,"x_max":636,"o":"m 348 496 q 224 445 275 496 q 174 322 174 394 q 224 199 174 250 q 348 149 275 149 q 470 199 419 149 q 522 322 522 250 q 470 445 522 394 q 348 496 419 496 m 348 557 q 490 509 427 557 l 588 607 q 595 611 592 611 q 602 608 599 611 l 633 576 q 636 570 636 573 q 633 563 636 566 l 534 465 q 583 323 583 402 q 534 181 583 243 l 633 83 q 636 76 636 79 q 633 69 636 73 l 602 38 q 595 35 598 35 q 588 39 591 35 l 490 136 q 348 89 427 89 q 206 136 269 89 l 109 39 q 101 35 104 35 q 94 38 98 35 l 63 69 q 60 76 60 73 q 64 83 60 79 l 161 181 q 114 323 114 243 q 161 465 114 401 l 64 563 q 60 570 60 566 q 63 576 60 573 l 94 608 q 101 611 98 611 q 109 607 104 611 l 206 509 q 348 557 269 557 z "},"":{"ha":926,"x_min":32,"x_max":841,"o":"m 381 489 l 163 853 q 111 899 147 876 q 74 915 92 909 q 46 928 57 922 q 35 938 39 932 q 32 945 32 942 l 32 948 q 39 952 33 952 l 269 952 q 281 948 275 952 q 293 938 289 943 q 295 931 295 935 q 290 921 295 926 q 279 908 286 915 q 271 890 272 901 l 271 887 q 282 857 271 872 l 511 494 q 601 627 555 555 q 686 762 647 699 q 709 814 705 793 l 709 821 q 694 873 709 842 l 671 920 l 768 962 q 777 964 772 964 q 793 953 785 964 l 833 884 q 841 858 841 871 q 819 811 841 835 q 741 715 784 772 q 665 606 704 665 q 587 489 627 547 l 772 489 l 772 435 l 553 435 q 544 390 546 416 q 541 339 541 363 l 772 339 l 772 286 l 541 286 l 541 99 q 575 43 541 55 q 609 14 609 31 q 595 0 609 0 l 365 0 q 351 14 351 0 q 385 43 351 31 q 418 99 418 55 q 419 228 418 220 q 419 286 419 237 l 214 286 l 214 339 l 419 339 q 419 362 419 349 q 418 389 418 374 q 412 435 418 420 l 214 435 l 214 489 l 381 489 z "},"":{"ha":694,"x_min":231,"x_max":320,"o":"m 231 1010 l 320 1010 l 320 551 l 231 551 l 231 1010 m 231 -151 l 231 307 l 320 307 l 320 -151 l 231 -151 z "},"":{"ha":694,"x_min":43,"x_max":650,"o":"m 338 -248 q 436 -220 389 -243 q 511 -152 483 -197 q 541 -39 541 -104 l 541 -32 q 487 75 538 38 q 429 103 463 93 q 293 129 362 121 q 162 167 224 136 q 79 244 106 193 q 52 355 52 295 q 129 544 52 469 q 52 713 52 603 q 133 905 52 830 q 345 983 218 983 q 363 983 354 983 q 602 913 503 977 l 586 782 q 576 770 585 770 q 572 770 574 770 q 556 788 563 771 q 478 884 530 844 q 367 926 426 924 l 357 926 q 254 905 299 926 q 207 872 226 892 q 178 829 190 855 q 163 781 168 806 q 159 742 159 761 q 165 698 159 718 q 211 633 178 656 q 264 608 233 616 q 302 600 280 604 q 349 592 325 596 q 425 580 385 586 q 502 563 465 574 q 595 509 566 542 q 633 453 618 486 q 650 362 650 412 q 575 171 650 252 q 595 153 586 163 q 633 96 618 127 q 650 5 650 54 q 541 -218 650 -127 q 416 -286 485 -262 q 298 -307 364 -303 q 273 -308 286 -308 q 104 -283 184 -308 l 45 -117 q 43 -111 43 -113 q 48 -98 43 -104 q 59 -90 52 -90 l 61 -90 q 77 -108 68 -91 q 178 -224 117 -195 q 305 -249 229 -249 q 338 -248 321 -249 m 510 203 l 511 204 q 541 317 541 251 l 541 325 q 487 433 538 395 q 429 460 460 451 q 314 483 372 475 q 201 508 256 490 q 178 472 187 493 q 163 424 168 450 q 159 385 159 404 q 165 340 159 361 q 211 276 179 298 q 264 251 232 258 q 349 235 288 245 q 425 222 385 229 q 502 205 465 216 q 506 204 504 205 q 510 203 508 203 z "},"":{"ha":463,"x_min":9,"x_max":450,"o":"m 376 790 q 323 812 344 790 q 302 864 302 832 q 376 938 302 938 q 429 917 408 938 q 450 864 450 895 q 429 812 450 833 q 376 790 407 790 m 88 790 q 35 812 57 790 q 9 864 9 838 q 35 916 9 890 q 88 938 57 938 q 140 917 119 938 q 162 864 162 896 q 140 812 162 833 q 88 790 119 790 z "},"":{"ha":1039,"x_min":14,"x_max":1027,"o":"m 520 985 q 878 837 730 985 q 1027 480 1027 689 q 878 123 1027 271 q 520 -24 730 -24 q 162 123 311 -24 q 14 480 14 271 q 162 837 14 689 q 520 985 311 985 m 520 930 q 201 799 333 930 q 68 480 68 667 q 201 161 68 293 q 520 30 333 30 q 840 161 707 30 q 972 480 972 293 q 840 799 972 667 q 520 930 707 930 m 563 765 l 572 765 q 749 714 669 765 l 739 616 q 732 609 739 609 l 730 609 q 720 621 725 609 q 659 694 696 670 q 568 715 622 715 l 554 715 q 456 679 490 712 q 410 606 426 650 q 395 511 395 564 q 397 476 395 494 q 444 334 403 389 q 565 252 498 262 q 588 250 576 250 q 703 285 640 250 q 749 304 737 304 q 753 302 751 304 q 755 297 755 300 q 747 275 755 289 q 728 248 738 257 q 646 206 694 218 q 559 195 601 195 l 554 195 q 372 255 446 195 q 288 427 298 315 q 286 478 286 453 q 290 537 286 509 q 330 640 297 588 q 563 765 405 760 z "},"":{"ha":465,"x_min":33,"x_max":437,"o":"m 330 610 l 218 568 q 197 564 205 564 q 180 564 186 564 q 81 611 122 566 q 34 720 40 655 q 33 750 33 735 q 62 862 33 816 q 98 899 73 880 q 118 910 106 906 q 183 935 151 922 q 248 959 216 947 q 263 962 255 962 q 326 948 290 960 q 348 939 334 945 q 359 937 354 937 q 370 941 365 937 q 393 956 385 956 q 395 955 394 956 q 403 947 403 951 q 401 905 403 922 q 398 864 399 888 q 397 821 397 852 l 398 628 q 418 597 398 604 q 437 582 437 591 q 429 574 437 574 l 337 574 q 331 579 331 574 l 330 610 m 52 496 l 418 496 q 426 488 426 496 l 426 452 q 418 444 426 444 l 52 444 q 43 452 43 444 l 43 488 q 52 496 43 496 m 248 606 q 269 610 258 606 q 330 633 297 621 l 330 886 q 238 928 286 926 q 220 925 229 928 q 191 914 205 920 q 162 903 176 909 q 146 893 153 900 q 112 828 121 867 q 106 773 106 800 q 106 753 106 763 q 138 658 111 696 q 206 609 165 621 q 236 605 221 605 q 248 606 242 605 z "},"":{"ha":694,"x_min":66,"x_max":629,"o":"m 70 418 q 66 425 66 421 q 70 434 66 429 q 183 550 111 483 q 307 670 256 617 q 311 672 309 672 q 315 671 313 672 l 340 654 q 342 649 342 651 q 341 646 342 648 l 168 427 l 342 205 q 343 201 343 203 q 340 197 343 199 l 315 180 q 311 178 313 178 q 307 181 309 178 q 188 298 248 238 q 70 418 127 357 m 355 418 q 352 425 352 420 q 355 434 352 429 q 469 550 396 483 q 592 670 541 617 q 597 673 595 673 q 600 671 599 673 l 625 654 q 628 649 628 651 q 627 646 628 648 l 454 427 l 628 205 q 629 203 629 203 q 625 197 629 199 l 600 180 q 597 178 599 178 q 592 181 595 178 q 474 298 534 238 q 355 418 413 357 z "},"":{"ha":694,"x_min":20,"x_max":677,"o":"m 677 231 l 597 231 l 597 526 l 20 526 l 20 602 l 677 602 l 677 231 z "},"":{"ha":454,"x_min":79,"x_max":376,"o":"m 106 277 q 79 296 79 277 l 79 353 q 106 372 79 372 l 348 372 q 376 353 376 372 l 376 296 q 349 277 376 277 l 106 277 z "},"":{"ha":1038,"x_min":14,"x_max":1027,"o":"m 572 467 l 753 229 q 783 218 765 220 q 794 209 794 216 l 794 208 q 786 200 793 200 l 680 200 q 597 306 672 200 q 479 467 523 411 l 416 467 l 416 258 q 436 225 416 233 q 456 209 456 218 q 447 200 456 200 l 312 200 q 304 209 304 200 q 324 225 304 218 q 344 258 344 233 l 344 701 q 324 734 344 727 q 304 751 304 741 q 312 760 304 760 l 547 760 q 633 746 589 760 q 702 689 677 731 q 722 608 720 656 q 695 527 720 562 q 640 484 675 498 q 572 467 604 469 m 520 985 q 878 837 730 985 q 1027 480 1027 689 q 878 123 1027 271 q 520 -24 730 -24 q 162 123 311 -24 q 14 480 14 271 q 162 837 14 689 q 520 985 311 985 m 416 727 l 416 494 l 508 494 q 612 530 575 494 q 644 612 644 561 q 611 693 644 661 q 516 727 576 727 l 416 727 m 520 930 q 201 799 333 930 q 68 480 68 667 q 201 161 68 293 q 520 30 333 30 q 840 161 707 30 q 972 480 972 293 q 840 799 972 667 q 520 930 707 930 z "},"":{"ha":461,"x_min":27,"x_max":448,"o":"m 35 913 l 441 913 q 448 907 448 913 l 448 848 q 441 841 448 841 l 35 841 q 27 848 27 841 l 27 907 q 35 913 27 913 z "},"":{"ha":555,"x_min":66,"x_max":485,"o":"m 275 941 q 424 879 362 941 q 485 731 485 818 q 424 583 485 644 q 275 522 362 522 q 127 583 188 522 q 66 731 66 644 q 127 879 66 818 q 275 941 188 941 m 275 885 q 167 840 212 885 q 122 731 122 794 q 167 623 122 667 q 275 578 212 578 q 384 623 338 578 q 429 731 429 667 q 384 840 429 794 q 275 885 338 885 z "},"":{"ha":694,"x_min":111,"x_max":611,"o":"m 136 547 l 325 547 l 325 736 q 343 761 325 761 l 378 761 q 397 736 397 761 l 397 547 l 586 547 q 611 529 611 547 l 611 493 q 586 475 611 475 l 397 475 l 397 286 q 378 261 397 261 l 343 261 q 325 286 325 261 l 325 475 l 136 475 q 111 493 111 475 l 111 529 q 136 547 111 547 m 136 161 l 586 161 q 611 143 611 161 l 611 108 q 586 90 611 90 l 136 90 q 111 108 111 90 l 111 143 q 136 161 111 161 z "},"":{"ha":498,"x_min":69,"x_max":425,"o":"m 73 306 l 73 340 q 96 406 73 378 q 167 487 118 434 q 223 546 195 515 q 278 608 252 578 q 333 699 314 650 q 346 758 346 730 q 334 804 346 783 q 267 865 311 848 q 214 874 242 874 q 172 869 194 874 q 86 807 119 856 q 69 771 73 788 l 69 834 q 78 855 72 844 q 206 938 120 924 q 241 941 224 941 q 353 911 300 941 q 423 782 422 871 l 423 779 q 315 565 423 659 q 156 385 205 469 l 317 385 q 425 403 376 385 l 425 324 q 371 307 400 308 q 317 306 342 306 l 73 306 z "},"":{"ha":498,"x_min":80,"x_max":420,"o":"m 321 328 q 202 286 273 293 q 180 285 191 285 q 82 317 123 285 l 80 397 q 170 332 106 348 q 216 326 193 326 q 282 342 252 326 q 345 411 328 366 q 353 460 353 435 q 347 501 353 481 q 288 579 332 546 q 168 614 243 612 l 167 627 q 236 653 197 636 q 297 707 275 671 q 314 764 314 736 q 313 782 314 773 q 282 844 306 819 q 210 878 254 873 l 200 878 q 122 844 161 878 q 93 791 100 823 l 93 867 q 246 939 159 939 q 381 857 347 937 q 391 811 391 833 q 331 699 391 754 q 302 674 321 688 q 395 593 366 642 q 420 502 420 549 q 419 488 420 495 q 321 328 411 393 z "},"":{"ha":496,"x_min":86,"x_max":423,"o":"m 103 787 q 98 787 101 787 q 86 798 86 787 q 91 808 86 804 l 345 983 q 373 992 357 992 q 423 942 423 992 q 391 895 423 907 l 103 787 z "},"":{"ha":899,"x_min":77,"x_max":795,"o":"m 604 510 q 569 565 604 553 q 534 595 534 577 q 549 609 534 609 q 627 621 586 610 q 726 650 673 631 l 726 96 q 761 42 726 52 q 795 14 795 31 q 781 0 795 0 l 603 0 l 603 59 l 463 4 q 382 -12 422 -12 q 360 -10 371 -12 q 271 16 309 -5 q 186 94 211 50 q 190 15 186 58 l 222 -361 l 222 -362 q 208 -375 222 -375 l 146 -375 q 132 -361 132 -375 l 132 550 q 96 574 116 566 q 77 595 77 583 q 91 609 77 609 q 170 621 131 611 q 216 634 194 626 q 263 650 239 642 l 263 288 q 317 101 263 167 q 429 45 363 45 q 505 60 464 45 l 604 97 l 604 510 z "},"":{"ha":859,"x_min":92,"x_max":819,"o":"m 459 907 l 459 -159 l 635 -159 l 635 907 l 459 907 m 359 541 q 294 530 326 530 q 151 592 210 530 q 92 741 92 654 q 151 890 92 828 q 293 952 210 951 l 801 952 q 819 935 819 952 q 777 899 819 914 q 736 831 736 884 l 736 -83 q 777 -151 736 -136 q 819 -186 819 -165 q 801 -203 819 -203 l 294 -203 q 276 -186 276 -203 q 317 -151 276 -165 q 359 -83 359 -136 l 359 541 z "},"":{"ha":347,"x_min":90,"x_max":256,"o":"m 173 336 q 114 360 138 336 q 90 419 90 385 q 114 477 90 453 q 173 502 138 502 q 232 477 208 502 q 256 419 256 453 q 232 360 256 385 q 173 336 208 336 z "},"":{"ha":686,"x_min":202,"x_max":399,"o":"m 261 -3 l 300 -3 q 295 -31 295 -18 q 310 -67 295 -53 q 361 -113 334 -90 q 399 -196 399 -145 l 399 -202 q 316 -264 397 -258 l 306 -264 q 212 -245 267 -264 l 202 -199 q 265 -222 235 -222 q 309 -208 288 -222 q 330 -175 330 -195 q 295 -116 330 -150 q 256 -67 273 -96 q 248 -41 248 -56 q 261 -3 248 -24 z "},"":{"ha":453,"x_min":100,"x_max":319,"o":"m 157 304 q 147 313 147 304 q 170 332 147 323 q 192 370 192 340 l 192 870 l 100 870 l 100 892 l 274 966 l 274 370 q 297 332 274 340 q 319 313 319 323 q 310 304 319 304 l 157 304 z "},"":{"ha":463,"x_min":23,"x_max":435,"o":"m 229 969 q 374 907 314 969 q 435 759 435 846 q 374 610 435 671 q 229 548 314 548 q 83 610 144 548 q 23 759 23 671 q 83 907 23 846 q 229 969 144 969 m 52 495 l 407 495 q 415 487 415 495 l 415 448 q 407 439 415 439 l 52 439 q 44 448 44 439 l 44 487 q 52 495 44 495 m 220 939 q 134 886 168 939 q 103 774 103 839 q 104 759 103 767 q 147 631 107 684 q 239 578 186 578 q 326 631 291 578 q 357 743 357 678 q 356 759 357 751 q 312 886 352 833 q 220 939 273 939 z "},"":{"ha":694,"x_min":66,"x_max":629,"o":"m 625 418 q 507 298 567 357 q 389 181 446 238 q 384 178 386 178 q 380 180 382 178 l 355 197 q 352 201 352 199 q 353 205 352 203 l 527 427 l 354 646 q 353 649 353 648 q 355 654 353 651 l 380 671 q 384 672 382 672 q 389 670 386 672 q 512 550 439 617 q 625 434 584 483 q 629 425 629 429 q 625 418 629 421 m 340 418 q 221 298 281 357 q 103 181 161 238 q 98 178 100 178 q 95 180 96 178 l 70 197 q 66 202 66 199 q 67 205 66 203 l 241 427 l 68 646 q 67 649 67 648 q 70 654 67 651 l 95 671 q 98 673 96 673 q 103 670 100 673 q 226 550 154 617 q 340 434 298 483 q 343 425 343 429 q 340 418 343 420 z "},"":{"ha":916,"x_min":14,"x_max":872,"o":"m 797 949 l 872 949 l 90 0 l 14 0 l 797 949 m 808 450 l 808 178 l 871 178 l 871 132 l 808 132 l 808 58 q 840 25 808 35 q 872 7 872 16 q 865 0 872 0 l 688 0 q 682 7 682 0 q 714 25 682 16 q 747 57 747 35 l 747 132 l 564 132 l 564 170 l 747 450 l 808 450 m 749 178 l 749 399 l 747 399 l 606 181 l 606 178 l 749 178 m 266 949 l 266 552 q 298 519 266 529 q 330 500 330 509 q 322 493 330 493 l 146 493 q 139 500 139 493 q 171 519 139 509 q 203 551 203 529 l 203 877 q 161 899 203 894 q 132 905 132 901 q 138 915 132 913 l 266 949 z "},"":{"ha":890,"x_min":13,"x_max":848,"o":"m 266 949 l 266 552 q 298 519 266 529 q 330 500 330 509 q 322 493 330 493 l 146 493 q 139 500 139 493 q 171 519 139 509 q 203 551 203 529 l 203 877 q 161 899 203 894 q 132 905 132 901 q 138 915 132 913 l 266 949 m 774 924 l 848 924 l 87 0 l 13 0 l 774 924 m 587 4 l 587 27 q 603 75 587 55 q 654 134 619 96 q 734 221 692 171 q 773 286 759 250 q 783 334 783 312 q 726 405 783 384 q 681 413 702 413 q 596 363 630 413 q 584 338 586 347 l 584 380 l 583 381 q 590 397 584 381 q 682 457 620 447 q 707 459 695 459 q 788 437 749 459 q 838 345 837 410 l 838 344 q 760 190 838 258 q 646 60 682 121 l 762 60 q 839 74 804 60 l 839 17 q 801 5 821 5 q 762 4 780 4 l 587 4 z "},"":{"ha":890,"x_min":13,"x_max":848,"o":"m 774 924 l 848 924 l 87 0 l 13 0 l 774 924 m 267 498 q 180 468 232 473 q 165 467 172 467 q 93 491 123 467 l 92 548 q 157 501 110 513 q 190 497 174 497 q 239 509 216 497 q 284 559 272 526 q 290 594 290 576 q 286 624 290 609 q 243 681 275 656 q 155 707 210 705 l 155 715 q 205 735 177 722 q 250 774 234 748 q 264 820 264 798 q 239 874 264 848 q 185 899 218 895 q 178 899 182 899 q 122 873 149 899 q 101 836 106 858 l 101 890 q 213 943 149 943 q 311 883 286 941 q 317 850 317 866 q 275 768 317 808 q 264 759 269 764 q 254 750 259 754 q 339 628 339 707 q 338 615 339 622 q 267 498 332 546 m 785 437 l 785 173 l 848 173 l 848 129 l 785 129 l 785 56 q 817 24 785 34 q 848 7 848 15 q 841 0 848 0 l 669 0 q 663 7 663 0 q 694 24 663 15 q 726 56 726 33 l 726 129 l 548 129 l 548 165 l 726 437 l 785 437 m 728 173 l 728 388 l 726 388 l 589 176 l 589 173 l 728 173 z "},"":{"ha":543,"x_min":54,"x_max":483,"o":"m 279 268 l 281 155 q 294 86 281 109 q 345 39 305 64 q 357 31 350 35 q 373 22 364 27 q 483 -153 483 -45 q 425 -288 483 -239 q 267 -338 368 -338 q 111 -287 168 -338 q 54 -149 54 -236 q 64 -120 54 -129 q 98 -112 75 -112 q 132 -120 119 -112 q 144 -143 143 -128 q 175 -263 151 -229 q 251 -296 199 -296 q 340 -260 310 -296 q 369 -153 369 -225 q 338 -38 369 -87 q 227 66 308 9 l 227 267 q 234 320 227 301 q 252 339 241 339 q 271 322 265 339 q 279 268 277 303 m 242 423 q 192 473 192 423 l 192 516 q 242 566 192 566 l 285 566 q 335 516 335 566 l 335 473 q 285 423 335 423 l 242 423 z "},"":{"ha":1080,"x_min":35,"x_max":1048,"o":"m 706 1096 l 417 1204 q 385 1251 385 1215 q 435 1301 385 1301 q 464 1292 452 1301 l 718 1117 q 723 1107 723 1112 q 711 1095 723 1095 q 706 1096 707 1095 m 568 968 q 652 772 602 888 q 755 533 702 656 q 858 294 808 410 q 943 99 908 178 q 983 54 953 74 q 1014 37 998 43 q 1038 24 1029 30 q 1047 14 1045 19 q 1048 9 1048 12 q 1047 4 1048 7 q 1039 0 1045 0 l 810 0 q 798 4 804 0 q 789 14 791 9 q 788 18 788 16 q 796 31 788 24 q 811 44 802 37 q 824 62 820 51 q 826 75 826 68 q 821 100 826 86 l 720 332 l 325 332 q 276 215 300 273 q 228 100 252 157 q 221 75 222 86 q 220 66 220 71 q 222 53 220 59 q 229 38 224 44 q 236 26 234 33 q 237 19 237 21 q 235 14 237 17 q 220 0 231 0 l 45 0 q 36 4 39 0 q 35 7 36 5 q 36 14 35 9 q 59 32 40 23 q 81 42 69 37 q 105 56 93 48 q 142 99 130 74 l 526 968 l 568 968 m 696 387 l 519 800 q 433 593 476 696 q 347 387 390 490 l 696 387 z "},"":{"ha":1080,"x_min":35,"x_max":1048,"o":"m 401 1093 q 396 1092 398 1092 q 385 1104 385 1092 q 389 1114 385 1109 l 644 1289 q 671 1298 656 1298 q 722 1248 722 1298 q 690 1200 722 1212 l 401 1093 m 568 968 q 652 772 602 888 q 755 533 702 656 q 858 294 808 410 q 943 99 908 178 q 983 54 953 74 q 1014 37 998 43 q 1038 24 1029 30 q 1047 14 1045 19 q 1048 9 1048 12 q 1047 4 1048 7 q 1039 0 1045 0 l 810 0 q 798 4 804 0 q 789 14 791 9 q 788 18 788 16 q 796 31 788 24 q 811 44 802 37 q 824 62 820 51 q 826 75 826 68 q 821 100 826 86 l 720 332 l 325 332 q 276 215 300 273 q 228 100 252 157 q 221 75 222 86 q 220 66 220 71 q 222 53 220 59 q 229 38 224 44 q 236 26 234 33 q 237 19 237 21 q 235 14 237 17 q 220 0 231 0 l 45 0 q 36 4 39 0 q 35 7 36 5 q 36 14 35 9 q 59 32 40 23 q 81 42 69 37 q 105 56 93 48 q 142 99 130 74 l 526 968 l 568 968 m 696 387 l 519 800 q 433 593 476 696 q 347 387 390 490 l 696 387 z "},"":{"ha":1080,"x_min":35,"x_max":1048,"o":"m 568 968 q 652 772 602 888 q 755 533 702 656 q 858 294 808 410 q 943 99 908 178 q 983 54 953 74 q 1014 37 998 43 q 1038 24 1029 30 q 1047 14 1045 19 q 1048 9 1048 12 q 1047 4 1048 7 q 1039 0 1045 0 l 810 0 q 798 4 804 0 q 789 14 791 9 q 788 18 788 16 q 796 31 788 24 q 811 44 802 37 q 824 62 820 51 q 826 75 826 68 q 821 100 826 86 l 720 332 l 325 332 q 276 215 300 273 q 228 100 252 157 q 221 75 222 86 q 220 66 220 71 q 222 53 220 59 q 229 38 224 44 q 236 26 234 33 q 237 19 237 21 q 235 14 237 17 q 220 0 231 0 l 45 0 q 36 4 39 0 q 35 7 36 5 q 36 14 35 9 q 59 32 40 23 q 81 42 69 37 q 105 56 93 48 q 142 99 130 74 l 526 968 l 568 968 m 357 1055 l 512 1291 l 591 1291 l 747 1055 l 708 1055 l 552 1196 l 395 1055 l 357 1055 m 696 387 l 519 800 q 433 593 476 696 q 347 387 390 490 l 696 387 z "},"":{"ha":1080,"x_min":35,"x_max":1048,"o":"m 568 968 q 652 772 602 888 q 755 533 702 656 q 858 294 808 410 q 943 99 908 178 q 983 54 953 74 q 1014 37 998 43 q 1038 24 1029 30 q 1047 14 1045 19 q 1048 9 1048 12 q 1047 4 1048 7 q 1039 0 1045 0 l 810 0 q 798 4 804 0 q 789 14 791 9 q 788 18 788 16 q 796 31 788 24 q 811 44 802 37 q 824 62 820 51 q 826 75 826 68 q 821 100 826 86 l 720 332 l 325 332 q 276 215 300 273 q 228 100 252 157 q 221 75 222 86 q 220 66 220 71 q 222 53 220 59 q 229 38 224 44 q 236 26 234 33 q 237 19 237 21 q 235 14 237 17 q 220 0 231 0 l 45 0 q 36 4 39 0 q 35 7 36 5 q 36 14 35 9 q 59 32 40 23 q 81 42 69 37 q 105 56 93 48 q 142 99 130 74 l 526 968 l 568 968 m 755 1227 q 700 1116 726 1150 q 640 1079 671 1079 q 524 1136 587 1079 q 456 1167 488 1167 q 409 1147 431 1167 q 395 1135 403 1142 q 378 1116 387 1128 q 349 1066 360 1092 q 340 1059 345 1059 q 332 1063 336 1059 q 326 1076 326 1068 q 330 1092 326 1083 q 375 1192 352 1141 q 447 1244 398 1244 q 567 1185 506 1244 q 632 1153 600 1153 q 687 1177 660 1153 q 733 1249 713 1198 q 743 1257 736 1257 q 746 1257 744 1257 q 756 1242 754 1255 l 756 1239 q 755 1227 756 1234 m 696 387 l 519 800 q 433 593 476 696 q 347 387 390 490 l 696 387 z "},"":{"ha":1080,"x_min":35,"x_max":1048,"o":"m 568 968 q 652 772 602 888 q 755 533 702 656 q 858 294 808 410 q 943 99 908 178 q 983 54 953 74 q 1014 37 998 43 q 1038 24 1029 30 q 1047 14 1045 19 q 1048 9 1048 12 q 1047 4 1048 7 q 1039 0 1045 0 l 810 0 q 798 4 804 0 q 789 14 791 9 q 788 18 788 16 q 796 31 788 24 q 811 44 802 37 q 824 62 820 51 q 826 75 826 68 q 821 100 826 86 l 720 332 l 325 332 q 276 215 300 273 q 228 100 252 157 q 221 75 222 86 q 220 66 220 71 q 222 53 220 59 q 229 38 224 44 q 236 26 234 33 q 237 19 237 21 q 235 14 237 17 q 220 0 231 0 l 45 0 q 36 4 39 0 q 35 7 36 5 q 36 14 35 9 q 59 32 40 23 q 81 42 69 37 q 105 56 93 48 q 142 99 130 74 l 526 968 l 568 968 m 604 1158 q 624 1205 604 1185 q 671 1226 644 1226 q 734 1184 715 1226 q 740 1154 740 1168 q 720 1109 740 1130 q 671 1090 700 1090 q 670 1089 671 1089 q 623 1109 642 1089 q 604 1158 604 1128 m 364 1158 q 406 1221 364 1203 q 433 1227 420 1227 q 479 1206 458 1227 q 500 1160 500 1185 q 494 1132 500 1146 q 431 1090 477 1090 q 364 1158 364 1090 m 696 387 l 519 800 q 433 593 476 696 q 347 387 390 490 l 696 387 z "},"":{"ha":1080,"x_min":35,"x_max":1048,"o":"m 568 968 q 652 772 602 888 q 755 533 702 656 q 858 294 808 410 q 943 99 908 178 q 983 54 953 74 q 1014 37 998 43 q 1038 24 1029 30 q 1047 14 1045 19 q 1048 9 1048 12 q 1047 4 1048 7 q 1039 0 1045 0 l 810 0 q 798 4 804 0 q 789 14 791 9 q 788 18 788 16 q 796 31 788 24 q 811 44 802 37 q 824 62 820 51 q 826 75 826 68 q 821 100 826 86 l 720 332 l 325 332 q 276 215 300 273 q 228 100 252 157 q 221 75 222 86 q 220 66 220 71 q 222 53 220 59 q 229 38 224 44 q 236 26 234 33 q 237 19 237 21 q 235 14 237 17 q 220 0 231 0 l 45 0 q 36 4 39 0 q 35 7 36 5 q 36 14 35 9 q 59 32 40 23 q 81 42 69 37 q 105 56 93 48 q 142 99 130 74 l 526 968 l 568 968 m 542 1302 q 635 1262 596 1302 q 674 1166 674 1222 q 635 1071 674 1110 q 542 1031 596 1031 q 448 1071 487 1031 q 409 1166 409 1110 q 448 1262 409 1222 q 542 1302 487 1302 m 536 1283 q 480 1249 502 1283 q 461 1177 461 1219 l 461 1166 q 489 1084 463 1118 q 548 1050 514 1050 q 604 1084 581 1050 q 623 1158 623 1116 l 623 1166 q 595 1249 621 1215 q 536 1283 570 1283 m 696 387 l 519 800 q 433 593 476 696 q 347 387 390 490 l 696 387 z "},"":{"ha":1311,"x_min":-63,"x_max":1234,"o":"m 739 64 l 1029 64 q 1135 112 1091 64 q 1201 188 1179 161 q 1220 203 1213 203 q 1234 189 1234 203 q 1233 174 1234 180 l 1183 0 l 560 0 q 548 14 548 0 q 582 43 548 31 q 616 99 616 55 l 616 332 l 273 332 q 208 215 241 273 q 142 100 175 157 q 132 75 136 89 q 130 60 130 68 q 130 53 130 56 q 135 38 132 44 q 140 26 138 33 q 140 22 140 24 q 140 19 140 21 q 138 16 139 18 q 138 14 138 15 q 121 0 130 0 l -54 0 q -63 4 -61 0 l -63 7 q -61 14 -63 10 q -36 32 -56 22 q -12 42 -24 37 q 14 56 1 48 q 56 99 41 74 l 532 906 q 484 919 505 912 q 462 938 462 926 q 476 952 462 952 l 1192 952 l 1192 778 q 1177 764 1192 764 q 1152 791 1171 764 q 1094 863 1118 838 q 1029 889 1069 889 l 739 889 l 739 521 l 894 521 q 951 556 937 521 q 982 591 964 591 q 996 576 996 591 l 996 404 q 982 390 996 390 q 949 425 964 390 q 890 459 933 459 l 739 459 l 739 64 m 618 387 l 616 899 l 597 899 q 450 643 538 795 q 304 387 362 490 l 618 387 z "},"":{"ha":949,"x_min":45,"x_max":908,"o":"m 575 -25 q 206 108 367 -25 q 45 475 45 241 q 202 842 45 704 q 575 980 358 980 q 741 963 653 980 q 908 895 829 945 l 892 752 q 878 740 889 740 l 876 740 q 859 759 868 741 q 741 884 819 844 q 585 920 667 920 l 570 920 q 284 773 387 911 q 191 498 191 649 q 193 465 191 481 q 302 180 202 309 q 575 44 403 52 q 606 43 591 43 q 749 70 693 43 q 859 195 814 101 q 880 214 867 214 q 886 214 883 214 q 897 198 897 210 q 894 186 897 193 l 835 21 q 703 -16 770 -6 q 575 -25 635 -25 m 561 -60 l 600 -60 q 595 -87 595 -75 q 610 -123 595 -109 q 661 -169 633 -146 q 699 -252 699 -201 l 699 -258 q 616 -320 696 -314 l 606 -320 q 512 -302 566 -320 l 502 -256 q 565 -279 535 -279 q 609 -264 588 -279 q 629 -231 629 -251 q 595 -172 629 -206 q 555 -123 573 -152 q 548 -98 548 -112 q 561 -60 548 -80 z "},"":{"ha":848,"x_min":105,"x_max":791,"o":"m 589 1090 l 300 1198 q 269 1245 269 1210 q 319 1295 269 1295 q 347 1286 335 1295 l 601 1112 q 606 1101 606 1107 q 594 1090 606 1090 q 589 1090 591 1090 m 296 64 l 585 64 q 692 112 648 64 q 758 188 736 161 q 777 203 770 203 q 791 189 791 203 q 790 174 791 180 l 741 0 l 117 0 q 105 14 105 0 q 139 43 105 31 q 173 99 173 55 l 173 852 q 139 908 173 897 q 105 938 105 920 q 119 952 105 952 l 749 952 l 749 778 q 734 764 749 764 q 709 791 728 764 q 651 863 675 838 q 585 889 626 889 l 296 889 l 296 521 l 451 521 q 508 556 494 521 q 539 591 522 591 q 553 576 553 591 l 553 404 q 539 390 553 390 q 506 425 522 390 q 447 459 490 459 l 296 459 l 296 64 z "},"":{"ha":848,"x_min":105,"x_max":791,"o":"m 303 1093 q 298 1092 300 1092 q 287 1104 287 1092 q 292 1114 287 1109 l 546 1289 q 574 1298 559 1298 q 624 1248 624 1298 q 592 1200 624 1212 l 303 1093 m 296 64 l 585 64 q 692 112 648 64 q 758 188 736 161 q 777 203 770 203 q 791 189 791 203 q 790 174 791 180 l 741 0 l 117 0 q 105 14 105 0 q 139 43 105 31 q 173 99 173 55 l 173 852 q 139 908 173 897 q 105 938 105 920 q 119 952 105 952 l 749 952 l 749 778 q 734 764 749 764 q 709 791 728 764 q 651 863 675 838 q 585 889 626 889 l 296 889 l 296 521 l 451 521 q 508 556 494 521 q 539 591 522 591 q 553 576 553 591 l 553 404 q 539 390 553 390 q 506 425 522 390 q 447 459 490 459 l 296 459 l 296 64 z "},"":{"ha":848,"x_min":105,"x_max":791,"o":"m 296 64 l 585 64 q 692 112 648 64 q 758 188 736 161 q 777 203 770 203 q 791 189 791 203 q 790 174 791 180 l 741 0 l 117 0 q 105 14 105 0 q 139 43 105 31 q 173 99 173 55 l 173 852 q 139 908 173 897 q 105 938 105 920 q 119 952 105 952 l 749 952 l 749 778 q 734 764 749 764 q 709 791 728 764 q 651 863 675 838 q 585 889 626 889 l 296 889 l 296 521 l 451 521 q 508 556 494 521 q 539 591 522 591 q 553 576 553 591 l 553 404 q 539 390 553 390 q 506 425 522 390 q 447 459 490 459 l 296 459 l 296 64 m 253 1055 l 409 1291 l 488 1291 l 643 1055 l 604 1055 l 448 1196 l 292 1055 l 253 1055 z "},"":{"ha":848,"x_min":105,"x_max":791,"o":"m 296 64 l 585 64 q 692 112 648 64 q 758 188 736 161 q 777 203 770 203 q 791 189 791 203 q 790 174 791 180 l 741 0 l 117 0 q 105 14 105 0 q 139 43 105 31 q 173 99 173 55 l 173 852 q 139 908 173 897 q 105 938 105 920 q 119 952 105 952 l 749 952 l 749 778 q 734 764 749 764 q 709 791 728 764 q 651 863 675 838 q 585 889 626 889 l 296 889 l 296 521 l 451 521 q 508 556 494 521 q 539 591 522 591 q 553 576 553 591 l 553 404 q 539 390 553 390 q 506 425 522 390 q 447 459 490 459 l 296 459 l 296 64 m 500 1158 q 520 1205 500 1185 q 568 1226 540 1226 q 630 1184 612 1226 q 636 1154 636 1168 q 616 1109 636 1130 q 568 1086 592 1086 q 519 1109 543 1086 q 500 1158 500 1128 m 260 1158 q 302 1221 260 1203 q 330 1227 316 1227 q 376 1206 355 1227 q 397 1160 397 1185 q 391 1132 397 1146 q 328 1090 374 1090 q 260 1158 260 1090 z "},"":{"ha":468,"x_min":76,"x_max":414,"o":"m 397 1096 l 108 1204 q 76 1251 76 1215 q 126 1301 76 1301 q 155 1292 142 1301 l 408 1117 q 414 1107 414 1112 q 401 1095 414 1095 q 397 1096 398 1095 m 295 852 l 295 100 q 329 43 295 55 q 363 14 363 31 q 349 0 363 0 l 119 0 q 105 14 105 0 q 139 43 105 31 q 173 99 173 55 l 173 852 q 139 908 173 897 q 105 938 105 920 q 119 952 105 952 l 349 952 q 363 938 363 952 q 329 908 363 920 q 295 852 295 897 z "},"":{"ha":468,"x_min":64,"x_max":401,"o":"m 81 1093 q 76 1092 78 1092 q 64 1104 64 1092 q 69 1114 64 1109 l 323 1289 q 351 1298 336 1298 q 401 1248 401 1298 q 370 1200 401 1212 l 81 1093 m 295 852 l 295 100 q 329 43 295 55 q 363 14 363 31 q 349 0 363 0 l 119 0 q 105 14 105 0 q 139 43 105 31 q 173 99 173 55 l 173 852 q 139 908 173 897 q 105 938 105 920 q 119 952 105 952 l 349 952 q 363 938 363 952 q 329 908 363 920 q 295 852 295 897 z "},"":{"ha":468,"x_min":39,"x_max":429,"o":"m 295 852 l 295 100 q 329 43 295 55 q 363 14 363 31 q 349 0 363 0 l 119 0 q 105 14 105 0 q 139 43 105 31 q 173 99 173 55 l 173 852 q 139 908 173 897 q 105 938 105 920 q 119 952 105 952 l 349 952 q 363 938 363 952 q 329 908 363 920 q 295 852 295 897 m 39 1055 l 195 1291 l 273 1291 l 429 1055 l 390 1055 l 234 1196 l 78 1055 l 39 1055 z "},"":{"ha":468,"x_min":46,"x_max":422,"o":"m 295 852 l 295 100 q 329 43 295 55 q 363 14 363 31 q 349 0 363 0 l 119 0 q 105 14 105 0 q 139 43 105 31 q 173 99 173 55 l 173 852 q 139 908 173 897 q 105 938 105 920 q 119 952 105 952 l 349 952 q 363 938 363 952 q 329 908 363 920 q 295 852 295 897 m 286 1158 q 306 1205 286 1185 q 353 1226 326 1226 q 416 1184 398 1226 q 422 1155 422 1168 q 401 1109 422 1130 q 353 1086 378 1086 q 305 1109 330 1086 q 286 1158 286 1128 m 46 1158 q 87 1221 46 1203 q 115 1227 102 1227 q 161 1206 140 1227 q 182 1160 182 1185 q 176 1132 182 1146 q 113 1090 159 1090 q 46 1158 46 1090 z "},"":{"ha":1075,"x_min":17,"x_max":1019,"o":"m 1017 536 q 1019 493 1019 514 q 977 291 1019 380 q 838 115 927 184 q 467 -5 686 -2 l 413 -5 q 339 -4 374 -5 l 260 -4 q 174 -2 203 -4 l 158 -2 q 87 -6 131 -2 q 73 9 73 -6 q 107 38 73 26 q 141 94 141 50 l 141 465 l 31 465 q 17 477 17 465 l 17 504 q 31 517 17 517 l 141 517 l 141 856 q 107 911 141 899 q 73 941 73 923 q 87 955 73 955 q 145 954 116 954 q 203 955 174 954 q 317 958 262 957 l 357 958 q 566 953 461 958 q 790 903 690 945 q 945 775 884 861 q 1017 536 1007 690 m 272 517 l 486 517 q 499 504 499 517 l 499 477 q 486 465 499 465 l 272 465 l 274 67 q 435 51 360 51 q 674 104 572 51 q 825 258 770 155 q 875 499 875 353 l 875 522 q 836 706 872 631 q 740 825 800 780 q 528 901 652 890 q 441 905 485 905 q 271 890 358 905 l 272 517 z "},"":{"ha":1115,"x_min":91,"x_max":1062,"o":"m 928 138 l 928 852 q 895 908 928 896 q 861 938 861 920 q 875 952 861 952 l 1048 952 q 1062 938 1062 952 q 1028 908 1062 920 q 994 852 994 896 l 994 -29 l 873 0 l 224 806 l 224 99 q 258 43 224 55 q 292 14 292 31 q 277 0 292 0 l 105 0 q 91 14 91 0 q 125 43 91 31 q 159 99 159 55 l 159 852 q 125 908 159 896 q 91 938 91 920 q 105 952 91 952 l 279 952 l 928 138 m 789 1227 q 734 1116 760 1150 q 675 1079 706 1079 q 558 1136 622 1079 q 491 1167 522 1167 q 444 1147 467 1167 q 430 1135 438 1142 q 413 1116 422 1128 q 383 1066 396 1094 q 374 1059 380 1059 q 366 1063 371 1059 q 360 1076 360 1068 q 364 1092 360 1083 q 410 1192 387 1141 q 481 1244 433 1244 q 602 1185 541 1244 q 667 1153 635 1153 q 722 1177 694 1153 q 768 1249 748 1198 q 778 1257 771 1257 q 781 1257 779 1257 q 791 1242 789 1255 l 791 1239 q 789 1227 791 1233 z "},"":{"ha":1092,"x_min":33,"x_max":1065,"o":"m 706 1096 l 417 1204 q 385 1251 385 1215 q 435 1301 385 1301 q 464 1292 452 1301 l 718 1117 q 723 1107 723 1112 q 711 1095 723 1095 q 706 1096 707 1095 m 548 921 q 257 790 340 920 q 174 476 174 659 q 278 162 174 292 q 548 31 382 33 l 551 31 q 818 170 713 31 q 921 472 921 307 l 921 476 q 833 783 920 645 q 548 921 746 921 m 548 981 l 555 981 q 924 846 774 981 q 1065 515 1065 721 q 1063 478 1065 497 q 902 116 1049 245 q 547 -24 754 -12 q 515 -24 531 -24 q 182 106 327 -24 q 33 454 33 239 q 33 478 33 466 q 183 844 41 709 q 548 981 324 978 z "},"":{"ha":1092,"x_min":33,"x_max":1065,"o":"m 401 1093 q 396 1092 398 1092 q 385 1104 385 1092 q 389 1114 385 1109 l 644 1289 q 671 1298 656 1298 q 722 1248 722 1298 q 690 1200 722 1212 l 401 1093 m 548 921 q 257 790 340 920 q 174 476 174 659 q 278 162 174 292 q 548 31 382 33 l 551 31 q 818 170 713 31 q 921 472 921 307 l 921 476 q 833 783 920 645 q 548 921 746 921 m 548 981 l 555 981 q 924 846 774 981 q 1065 515 1065 721 q 1063 478 1065 497 q 902 116 1049 245 q 547 -24 754 -12 q 515 -24 531 -24 q 182 106 327 -24 q 33 454 33 239 q 33 478 33 466 q 183 844 41 709 q 548 981 324 978 z "},"":{"ha":1092,"x_min":33,"x_max":1065,"o":"m 548 921 q 257 790 340 920 q 174 476 174 659 q 278 162 174 292 q 548 31 382 33 l 551 31 q 818 170 713 31 q 921 472 921 307 l 921 476 q 833 783 920 645 q 548 921 746 921 m 354 1055 l 509 1291 l 588 1291 l 743 1055 l 705 1055 l 549 1196 l 393 1055 l 354 1055 m 548 981 l 555 981 q 924 846 774 981 q 1065 515 1065 721 q 1063 478 1065 497 q 902 116 1049 245 q 547 -24 754 -12 q 515 -24 531 -24 q 182 106 327 -24 q 33 454 33 239 q 33 478 33 466 q 183 844 41 709 q 548 981 324 978 z "},"":{"ha":1092,"x_min":33,"x_max":1065,"o":"m 548 921 q 257 790 340 920 q 174 476 174 659 q 278 162 174 292 q 548 31 382 33 l 551 31 q 818 170 713 31 q 921 472 921 307 l 921 476 q 833 783 920 645 q 548 921 746 921 m 762 1227 q 707 1116 734 1153 q 648 1079 678 1079 q 530 1136 594 1079 q 463 1167 494 1167 q 416 1147 439 1167 q 402 1135 410 1142 q 385 1116 394 1128 q 356 1066 368 1093 q 347 1059 353 1059 q 339 1063 344 1059 q 333 1076 333 1068 q 337 1092 333 1083 q 382 1192 359 1141 q 454 1244 405 1244 q 574 1185 513 1244 q 639 1153 607 1153 q 694 1177 667 1153 q 741 1249 720 1198 q 750 1257 743 1257 q 753 1257 751 1257 q 764 1242 762 1255 l 764 1239 q 762 1227 764 1233 m 548 981 l 555 981 q 924 846 774 981 q 1065 515 1065 721 q 1063 478 1065 497 q 902 116 1049 245 q 547 -24 754 -12 q 515 -24 531 -24 q 182 106 327 -24 q 33 454 33 239 q 33 478 33 466 q 183 844 41 709 q 548 981 324 978 z "},"":{"ha":1092,"x_min":33,"x_max":1065,"o":"m 548 921 q 257 790 340 920 q 174 476 174 659 q 278 162 174 292 q 548 31 382 33 l 551 31 q 818 170 713 31 q 921 472 921 307 l 921 476 q 833 783 920 645 q 548 921 746 921 m 601 1158 q 621 1205 601 1185 q 668 1226 640 1226 q 730 1184 713 1226 q 736 1155 736 1168 q 716 1109 736 1130 q 668 1086 692 1086 q 620 1109 644 1086 q 601 1158 601 1128 m 361 1158 q 403 1221 361 1203 q 430 1227 417 1227 q 476 1206 455 1227 q 497 1160 497 1185 q 491 1132 497 1146 q 428 1090 474 1090 q 361 1158 361 1090 m 548 981 l 555 981 q 924 846 774 981 q 1065 515 1065 721 q 1063 478 1065 497 q 902 116 1049 245 q 547 -24 754 -12 q 515 -24 531 -24 q 182 106 327 -24 q 33 454 33 239 q 33 478 33 466 q 183 844 41 709 q 548 981 324 978 z "},"":{"ha":694,"x_min":166,"x_max":555,"o":"m 227 613 l 361 479 l 495 613 q 513 623 505 623 q 525 618 519 623 l 550 593 q 555 581 555 587 q 545 562 555 572 l 412 429 l 545 294 q 555 275 555 283 q 550 264 555 269 l 525 239 q 513 233 519 233 q 495 244 505 233 l 361 378 l 227 244 q 208 233 216 233 q 197 239 201 233 l 172 264 q 166 276 166 270 q 176 294 166 284 l 311 429 l 176 562 q 166 581 166 572 q 172 593 166 587 l 197 618 q 208 623 202 623 q 227 613 216 623 z "},"":{"ha":1092,"x_min":33,"x_max":1105,"o":"m 548 921 q 257 790 340 920 q 174 476 174 659 q 249 203 174 321 l 844 767 q 727 879 800 836 q 548 921 654 921 m 874 712 l 285 155 q 548 31 391 32 l 551 31 q 818 170 713 31 q 921 472 921 307 l 921 476 q 874 712 920 610 m 1100 926 l 968 801 q 1064 511 1064 677 q 1063 478 1064 494 q 902 116 1049 245 q 547 -24 754 -12 q 514 -24 530 -24 q 209 82 342 -24 l 102 -18 q 93 -22 97 -22 q 84 -18 88 -22 l 60 7 q 56 16 56 12 q 60 24 56 20 l 164 123 q 65 279 100 189 q 33 456 33 359 q 33 478 33 467 q 183 844 41 709 q 548 981 324 978 l 555 981 q 927 845 781 981 l 1059 970 q 1067 973 1063 973 q 1076 969 1072 973 l 1100 943 q 1105 935 1105 939 q 1100 926 1105 930 z "},"":{"ha":1054,"x_min":91,"x_max":990,"o":"m 706 1096 l 417 1204 q 385 1251 385 1215 q 435 1301 385 1301 q 464 1292 452 1301 l 718 1117 q 723 1107 723 1112 q 711 1095 723 1095 q 706 1096 707 1095 m 159 399 l 159 853 q 125 908 159 897 q 91 938 91 920 q 105 952 91 952 l 335 952 q 349 938 349 952 q 315 909 349 920 q 282 854 282 898 l 282 489 q 289 305 282 385 q 324 170 296 225 q 410 87 352 115 q 569 58 467 58 q 812 199 748 58 q 857 489 857 298 l 857 852 q 823 908 857 896 q 789 938 789 920 q 804 952 789 952 l 977 952 q 990 938 990 952 q 957 908 990 920 q 923 852 923 896 l 923 399 q 904 214 922 298 q 838 73 886 130 q 569 -26 752 -26 q 372 -5 453 -26 q 241 74 290 17 q 159 399 159 170 z "},"":{"ha":1054,"x_min":91,"x_max":990,"o":"m 401 1093 q 396 1092 398 1092 q 385 1104 385 1092 q 389 1114 385 1109 l 644 1289 q 671 1298 656 1298 q 722 1248 722 1298 q 690 1200 722 1212 l 401 1093 m 159 399 l 159 853 q 125 908 159 897 q 91 938 91 920 q 105 952 91 952 l 335 952 q 349 938 349 952 q 315 909 349 920 q 282 854 282 898 l 282 489 q 289 305 282 385 q 324 170 296 225 q 410 87 352 115 q 569 58 467 58 q 812 199 748 58 q 857 489 857 298 l 857 852 q 823 908 857 896 q 789 938 789 920 q 804 952 789 952 l 977 952 q 990 938 990 952 q 957 908 990 920 q 923 852 923 896 l 923 399 q 904 214 922 298 q 838 73 886 130 q 569 -26 752 -26 q 372 -5 453 -26 q 241 74 290 17 q 159 399 159 170 z "},"":{"ha":1054,"x_min":91,"x_max":990,"o":"m 159 399 l 159 853 q 125 908 159 897 q 91 938 91 920 q 105 952 91 952 l 335 952 q 349 938 349 952 q 315 909 349 920 q 282 854 282 898 l 282 489 q 289 305 282 385 q 324 170 296 225 q 410 87 352 115 q 569 58 467 58 q 812 199 748 58 q 857 489 857 298 l 857 852 q 823 908 857 896 q 789 938 789 920 q 804 952 789 952 l 977 952 q 990 938 990 952 q 957 908 990 920 q 923 852 923 896 l 923 399 q 904 214 922 298 q 838 73 886 130 q 569 -26 752 -26 q 372 -5 453 -26 q 241 74 290 17 q 159 399 159 170 m 346 1055 l 501 1291 l 580 1291 l 736 1055 l 696 1055 l 541 1196 l 385 1055 l 346 1055 z "},"":{"ha":1054,"x_min":91,"x_max":990,"o":"m 159 399 l 159 853 q 125 908 159 897 q 91 938 91 920 q 105 952 91 952 l 335 952 q 349 938 349 952 q 315 909 349 920 q 282 854 282 898 l 282 489 q 289 305 282 385 q 324 170 296 225 q 410 87 352 115 q 569 58 467 58 q 812 199 748 58 q 857 489 857 298 l 857 852 q 823 908 857 896 q 789 938 789 920 q 804 952 789 952 l 977 952 q 990 938 990 952 q 957 908 990 920 q 923 852 923 896 l 923 399 q 904 214 922 298 q 838 73 886 130 q 569 -26 752 -26 q 372 -5 453 -26 q 241 74 290 17 q 159 399 159 170 m 593 1158 q 612 1205 593 1185 q 660 1226 632 1226 q 722 1184 705 1226 q 728 1154 728 1168 q 709 1109 728 1130 q 660 1086 684 1086 q 612 1109 635 1086 q 593 1158 593 1128 m 353 1158 q 395 1221 353 1203 q 422 1227 409 1227 q 468 1206 447 1227 q 489 1160 489 1185 q 484 1132 489 1146 q 420 1090 466 1090 q 353 1158 353 1090 z "},"":{"ha":926,"x_min":32,"x_max":841,"o":"m 336 1093 q 331 1092 333 1092 q 319 1104 319 1092 q 324 1114 319 1109 l 578 1289 q 606 1298 591 1298 q 656 1248 656 1298 q 625 1200 656 1212 l 336 1093 m 399 459 l 163 853 q 111 899 147 876 q 74 915 92 909 q 46 928 57 922 q 35 938 39 932 q 32 945 32 942 l 32 948 q 39 952 33 952 l 269 952 q 281 948 275 952 q 293 938 289 943 q 295 931 295 935 q 290 921 295 926 q 279 908 286 915 q 271 890 272 901 l 271 887 q 282 857 271 872 l 511 494 l 686 762 q 709 814 706 792 q 710 821 710 817 q 694 873 710 841 l 671 920 l 768 962 q 777 964 772 964 q 793 953 785 964 l 833 884 q 841 859 841 871 q 818 812 841 836 q 741 715 782 774 l 561 452 q 545 400 549 433 q 541 337 541 367 l 541 99 q 575 43 541 55 q 609 14 609 31 q 595 0 609 0 l 365 0 q 351 14 351 0 q 385 43 351 31 q 418 99 418 55 l 418 389 q 399 459 418 428 z "},"":{"ha":781,"x_min":48,"x_max":744,"o":"m 238 852 l 238 738 l 448 738 q 594 713 518 738 q 711 617 670 688 q 744 479 744 559 q 700 341 743 402 q 596 263 663 289 q 473 238 528 238 l 238 238 l 238 99 q 272 43 238 55 q 306 14 306 31 q 292 0 306 0 l 62 0 q 48 14 48 0 q 82 43 48 31 q 116 99 116 55 l 116 852 q 82 908 116 896 q 48 938 48 920 q 62 952 48 952 l 292 952 q 306 938 306 952 q 272 908 306 920 q 238 852 238 896 m 238 286 l 381 286 q 476 299 428 286 q 559 347 524 313 q 613 486 613 399 q 557 624 612 569 q 395 682 496 682 l 238 682 l 238 286 z "},"":{"ha":861,"x_min":73,"x_max":817,"o":"m 293 867 q 266 789 269 836 q 263 696 263 742 l 263 99 q 297 43 263 55 q 331 14 331 31 q 317 0 331 0 l 87 0 q 73 14 73 0 q 106 43 73 31 q 140 99 140 55 l 140 696 q 156 815 140 758 q 209 916 171 873 q 376 994 277 994 q 422 990 398 994 q 597 858 540 970 q 618 773 618 814 q 565 652 618 709 q 485 583 528 613 q 433 509 442 553 q 429 482 429 494 q 467 421 429 439 q 579 382 515 397 q 739 330 667 363 q 817 191 810 296 l 817 182 q 778 83 817 133 q 656 1 736 29 q 547 -17 607 -15 l 528 -17 q 369 5 446 -17 l 315 154 l 316 168 q 328 178 317 178 l 330 178 q 344 161 336 176 q 420 66 375 94 q 534 36 465 38 l 543 36 q 649 58 591 36 q 713 146 711 83 l 713 151 q 644 243 713 224 q 518 279 572 264 q 392 338 451 298 q 334 456 334 377 l 334 458 q 378 559 334 525 q 466 633 423 593 q 519 741 510 674 q 520 768 520 755 q 494 855 520 818 q 395 906 463 899 q 378 907 387 907 q 293 867 323 907 z "},"":{"ha":783,"x_min":42,"x_max":731,"o":"m 506 761 l 217 869 q 185 916 185 880 q 235 966 185 966 q 264 957 252 966 l 517 782 q 523 772 523 777 q 511 760 523 760 q 506 761 507 760 m 541 59 l 354 -9 q 318 -17 332 -17 l 290 -17 q 124 62 194 -12 q 45 243 54 136 q 42 298 42 272 q 47 367 42 334 q 92 482 55 425 q 152 545 109 512 q 185 563 167 555 q 294 604 239 583 q 404 644 349 624 q 425 648 415 648 l 429 648 q 534 627 472 646 q 541 624 539 625 q 577 610 555 618 q 593 608 586 608 q 612 614 604 608 q 633 634 627 626 q 642 639 636 639 q 648 637 645 639 q 663 624 663 632 l 663 99 q 697 43 663 55 q 731 14 731 31 q 717 0 731 0 l 552 0 q 541 9 541 0 l 541 59 m 541 522 q 467 569 513 547 q 387 593 422 591 l 384 593 q 357 587 370 593 q 308 569 332 578 q 260 551 284 560 q 233 534 243 545 q 176 425 191 489 q 165 330 165 377 q 166 299 165 315 q 219 140 174 201 q 333 58 264 77 q 385 51 359 51 q 402 52 393 51 q 437 60 417 53 q 486 78 453 66 q 541 99 519 91 l 541 522 z "},"":{"ha":783,"x_min":42,"x_max":731,"o":"m 214 780 q 210 779 212 779 q 197 791 197 779 q 202 801 197 796 l 456 976 q 484 985 469 985 q 534 935 534 985 q 503 888 534 899 l 214 780 m 541 59 l 354 -9 q 318 -17 332 -17 l 290 -17 q 124 62 194 -12 q 45 243 54 136 q 42 298 42 272 q 47 367 42 334 q 92 482 55 425 q 152 545 109 512 q 185 563 167 555 q 294 604 239 583 q 404 644 349 624 q 425 648 415 648 l 429 648 q 534 627 472 646 q 541 624 539 625 q 577 610 555 618 q 593 608 586 608 q 612 614 604 608 q 633 634 627 626 q 642 639 636 639 q 648 637 645 639 q 663 624 663 632 l 663 99 q 697 43 663 55 q 731 14 731 31 q 717 0 731 0 l 552 0 q 541 9 541 0 l 541 59 m 541 522 q 467 569 513 547 q 387 593 422 591 l 384 593 q 357 587 370 593 q 308 569 332 578 q 260 551 284 560 q 233 534 243 545 q 176 425 191 489 q 165 330 165 377 q 166 299 165 315 q 219 140 174 201 q 333 58 264 77 q 385 51 359 51 q 402 52 393 51 q 437 60 417 53 q 486 78 453 66 q 541 99 519 91 l 541 522 z "},"":{"ha":783,"x_min":42,"x_max":731,"o":"m 541 59 l 354 -9 q 318 -17 332 -17 l 290 -17 q 124 62 194 -12 q 45 243 54 136 q 42 298 42 272 q 47 367 42 334 q 92 482 55 425 q 152 545 109 512 q 185 563 167 555 q 294 604 239 583 q 404 644 349 624 q 425 648 415 648 l 429 648 q 534 627 472 646 q 541 624 539 625 q 577 610 555 618 q 593 608 586 608 q 612 614 604 608 q 633 634 627 626 q 642 639 636 639 q 648 637 645 639 q 663 624 663 632 l 663 99 q 697 43 663 55 q 731 14 731 31 q 717 0 731 0 l 552 0 q 541 9 541 0 l 541 59 m 541 522 q 467 569 513 547 q 387 593 422 591 l 384 593 q 357 587 370 593 q 308 569 332 578 q 260 551 284 560 q 233 534 243 545 q 176 425 191 489 q 165 330 165 377 q 166 299 165 315 q 219 140 174 201 q 333 58 264 77 q 385 51 359 51 q 402 52 393 51 q 437 60 417 53 q 486 78 453 66 q 541 99 519 91 l 541 522 m 166 743 l 321 979 l 401 979 l 556 743 l 517 743 l 361 885 l 205 743 l 166 743 z "},"":{"ha":783,"x_min":42,"x_max":731,"o":"m 541 59 l 354 -9 q 318 -17 332 -17 l 290 -17 q 124 62 194 -12 q 45 243 54 136 q 42 298 42 272 q 47 367 42 334 q 92 482 55 425 q 152 545 109 512 q 185 563 167 555 q 294 604 239 583 q 404 644 349 624 q 425 648 415 648 l 429 648 q 534 627 472 646 q 541 624 539 625 q 577 610 555 618 q 593 608 586 608 q 612 614 604 608 q 633 634 627 626 q 642 639 636 639 q 648 637 645 639 q 663 624 663 632 l 663 99 q 697 43 663 55 q 731 14 731 31 q 717 0 731 0 l 552 0 q 541 9 541 0 l 541 59 m 541 522 q 467 569 513 547 q 387 593 422 591 l 384 593 q 357 587 370 593 q 308 569 332 578 q 260 551 284 560 q 233 534 243 545 q 176 425 191 489 q 165 330 165 377 q 166 299 165 315 q 219 140 174 201 q 333 58 264 77 q 385 51 359 51 q 402 52 393 51 q 437 60 417 53 q 486 78 453 66 q 541 99 519 91 l 541 522 m 606 921 q 551 809 577 844 q 491 772 522 772 q 374 829 438 772 q 307 861 338 861 q 260 841 282 861 q 246 828 254 836 q 229 809 238 821 q 199 760 215 791 q 191 753 196 753 q 182 757 187 753 q 176 770 176 762 q 180 785 176 777 q 225 886 203 834 q 297 937 248 937 q 418 878 357 937 q 483 846 451 846 q 538 870 511 846 q 584 942 562 890 q 594 950 587 950 l 597 950 q 608 936 606 948 l 608 932 q 606 921 608 926 z "},"":{"ha":783,"x_min":42,"x_max":731,"o":"m 541 59 l 354 -9 q 318 -17 332 -17 l 290 -17 q 124 62 194 -12 q 45 243 54 136 q 42 298 42 272 q 47 367 42 334 q 92 482 55 425 q 152 545 109 512 q 185 563 167 555 q 294 604 239 583 q 404 644 349 624 q 425 648 415 648 l 429 648 q 534 627 472 646 q 541 624 539 625 q 577 610 555 618 q 593 608 586 608 q 612 614 604 608 q 633 634 627 626 q 642 639 636 639 q 648 637 645 639 q 663 624 663 632 l 663 99 q 697 43 663 55 q 731 14 731 31 q 717 0 731 0 l 552 0 q 541 9 541 0 l 541 59 m 541 522 q 467 569 513 547 q 387 593 422 591 l 384 593 q 357 587 370 593 q 308 569 332 578 q 260 551 284 560 q 233 534 243 545 q 176 425 191 489 q 165 330 165 377 q 166 299 165 315 q 219 140 174 201 q 333 58 264 77 q 385 51 359 51 q 402 52 393 51 q 437 60 417 53 q 486 78 453 66 q 541 99 519 91 l 541 522 m 445 855 q 465 902 445 882 q 512 923 484 923 q 574 881 558 923 q 581 852 581 865 q 560 806 581 827 q 512 787 541 787 q 511 786 511 786 q 464 806 483 786 q 445 855 445 825 m 205 855 q 246 918 205 902 q 273 923 260 923 q 319 903 298 923 q 341 856 341 881 q 335 829 341 843 q 272 787 318 787 q 205 855 205 787 z "},"":{"ha":783,"x_min":42,"x_max":731,"o":"m 541 59 l 354 -9 q 318 -17 332 -17 l 290 -17 q 124 62 194 -12 q 45 243 54 136 q 42 298 42 272 q 47 367 42 334 q 92 482 55 425 q 152 545 109 512 q 185 563 167 555 q 294 604 239 583 q 404 644 349 624 q 425 648 415 648 l 429 648 q 534 627 472 646 q 541 624 539 625 q 577 610 555 618 q 593 608 586 608 q 612 614 604 608 q 633 634 627 626 q 642 639 636 639 q 648 637 645 639 q 663 624 663 632 l 663 99 q 697 43 663 55 q 731 14 731 31 q 717 0 731 0 l 552 0 q 541 9 541 0 l 541 59 m 541 522 q 467 569 513 547 q 387 593 422 591 l 384 593 q 357 587 370 593 q 308 569 332 578 q 260 551 284 560 q 233 534 243 545 q 176 425 191 489 q 165 330 165 377 q 166 299 165 315 q 219 140 174 201 q 333 58 264 77 q 385 51 359 51 q 402 52 393 51 q 437 60 417 53 q 486 78 453 66 q 541 99 519 91 l 541 522 m 397 1029 q 490 989 451 1029 q 529 893 529 949 q 490 798 529 837 q 397 758 451 758 q 303 798 342 758 q 264 893 264 837 q 303 989 264 949 q 397 1029 342 1029 m 391 1010 q 335 976 357 1010 q 316 904 316 945 l 316 894 q 343 811 318 845 q 403 777 369 777 q 458 811 436 777 q 478 886 478 842 l 478 894 q 450 976 475 941 q 391 1010 425 1010 z "},"":{"ha":1195,"x_min":42,"x_max":1139,"o":"m 652 578 q 861 651 734 650 l 864 651 q 1068 575 998 651 q 1139 374 1139 498 q 1137 335 1139 347 q 1109 324 1135 324 l 677 324 q 733 142 680 214 q 867 54 787 70 q 916 48 891 48 q 1050 85 981 48 q 1102 106 1089 106 q 1107 105 1105 106 q 1109 99 1109 103 q 1100 74 1109 90 q 1078 43 1089 53 q 878 -21 1004 -21 q 618 83 710 -20 l 354 -9 q 318 -17 332 -17 l 290 -17 q 124 62 194 -12 q 45 243 54 136 q 42 298 42 272 q 47 367 42 334 q 92 482 55 425 q 152 545 109 512 q 185 563 167 555 q 294 604 239 583 q 404 644 349 624 q 425 648 415 648 l 429 648 q 534 627 472 646 q 652 578 608 599 m 541 522 q 467 569 513 547 q 387 593 422 591 l 384 593 q 357 587 370 593 q 308 569 332 578 q 260 551 284 560 q 233 534 243 545 q 176 425 191 489 q 165 330 165 377 q 166 299 165 315 q 219 140 174 201 q 333 58 264 77 q 385 51 359 51 q 402 52 393 51 q 437 60 417 53 q 486 78 453 66 q 541 99 519 91 l 541 522 m 677 374 l 1035 374 q 998 526 1035 456 q 865 591 961 591 l 858 591 q 721 522 762 589 q 677 374 680 456 z "},"":{"ha":627,"x_min":54,"x_max":600,"o":"m 281 -27 l 319 -27 q 315 -55 315 -42 q 330 -91 315 -77 q 380 -136 353 -113 q 419 -220 419 -169 l 419 -226 q 336 -288 416 -281 l 326 -288 q 232 -269 286 -288 l 222 -223 q 285 -246 255 -246 q 329 -232 308 -246 q 349 -199 349 -218 q 315 -140 349 -174 q 275 -91 293 -119 q 268 -65 268 -79 q 281 -27 268 -47 m 376 648 l 391 648 q 594 589 501 648 l 583 474 q 574 465 581 465 l 572 465 q 559 479 565 466 q 488 564 532 538 q 382 590 445 590 l 366 590 q 252 547 292 586 q 199 463 216 512 q 181 352 181 413 q 183 311 181 332 q 238 145 190 210 q 379 49 301 60 q 406 47 392 47 q 541 87 467 47 q 593 109 579 109 q 598 107 596 109 q 600 102 600 106 q 591 76 600 94 q 568 44 581 56 q 473 -4 530 9 q 366 -17 417 -17 q 154 53 240 -16 q 57 252 68 123 q 54 311 54 282 q 59 382 54 347 q 105 501 68 441 q 215 604 144 564 q 376 648 285 644 z "},"":{"ha":681,"x_min":42,"x_max":639,"o":"m 506 761 l 217 869 q 185 916 185 880 q 235 966 185 966 q 264 957 252 966 l 517 782 q 523 772 523 777 q 511 760 523 760 q 506 761 507 760 m 48 374 q 148 574 67 499 q 361 651 229 650 l 364 651 q 568 575 498 651 q 639 374 639 498 q 637 335 638 347 q 609 324 635 324 l 177 324 q 233 142 179 214 q 368 54 286 70 q 416 48 391 48 q 549 85 480 48 q 602 106 588 106 q 607 105 605 106 q 609 99 609 103 q 600 74 609 90 q 587 52 592 58 q 578 43 582 47 q 377 -21 504 -21 q 111 93 199 -20 q 42 299 42 180 q 48 374 42 335 m 177 374 l 534 374 q 497 526 534 456 q 366 591 461 591 l 358 591 q 221 522 262 589 q 177 374 180 456 z "},"":{"ha":681,"x_min":42,"x_max":639,"o":"m 214 780 q 210 779 212 779 q 197 791 197 779 q 202 801 197 796 l 456 976 q 484 985 469 985 q 534 935 534 985 q 503 888 534 899 l 214 780 m 48 374 q 148 574 67 499 q 361 651 229 650 l 364 651 q 568 575 498 651 q 639 374 639 498 q 637 335 638 347 q 609 324 635 324 l 177 324 q 233 142 179 214 q 368 54 286 70 q 416 48 391 48 q 549 85 480 48 q 602 106 588 106 q 607 105 605 106 q 609 99 609 103 q 600 74 609 90 q 587 52 592 58 q 578 43 582 47 q 377 -21 504 -21 q 111 93 199 -20 q 42 299 42 180 q 48 374 42 335 m 177 374 l 534 374 q 497 526 534 456 q 366 591 461 591 l 358 591 q 221 522 262 589 q 177 374 180 456 z "},"":{"ha":681,"x_min":42,"x_max":639,"o":"m 48 374 q 148 574 67 499 q 361 651 229 650 l 364 651 q 568 575 498 651 q 639 374 639 498 q 637 335 638 347 q 609 324 635 324 l 177 324 q 233 142 179 214 q 368 54 286 70 q 416 48 391 48 q 549 85 480 48 q 602 106 588 106 q 607 105 605 106 q 609 99 609 103 q 600 74 609 90 q 587 52 592 58 q 578 43 582 47 q 377 -21 504 -21 q 111 93 199 -20 q 42 299 42 180 q 48 374 42 335 m 177 374 l 534 374 q 497 526 534 456 q 366 591 461 591 l 358 591 q 221 522 262 589 q 177 374 180 456 m 136 743 l 292 979 l 370 979 l 526 743 l 487 743 l 331 885 l 174 743 l 136 743 z "},"":{"ha":681,"x_min":42,"x_max":639,"o":"m 48 374 q 148 574 67 499 q 361 651 229 650 l 364 651 q 568 575 498 651 q 639 374 639 498 q 637 335 638 347 q 609 324 635 324 l 177 324 q 233 142 179 214 q 368 54 286 70 q 416 48 391 48 q 549 85 480 48 q 602 106 588 106 q 607 105 605 106 q 609 99 609 103 q 600 74 609 90 q 587 52 592 58 q 578 43 582 47 q 377 -21 504 -21 q 111 93 199 -20 q 42 299 42 180 q 48 374 42 335 m 177 374 l 534 374 q 497 526 534 456 q 366 591 461 591 l 358 591 q 221 522 262 589 q 177 374 180 456 m 383 857 q 403 904 383 883 q 450 924 422 924 q 513 882 495 924 q 519 853 519 867 q 498 808 519 828 q 450 788 479 788 q 449 787 450 787 q 402 808 421 787 q 383 857 383 827 m 143 857 q 184 919 143 901 q 212 924 199 924 q 258 904 237 924 q 279 858 279 883 q 273 830 279 844 q 210 788 256 788 q 143 857 143 788 z "},"":{"ha":404,"x_min":37,"x_max":374,"o":"m 357 765 l 68 873 q 37 920 37 884 q 87 970 37 970 q 115 961 103 970 l 369 786 q 374 776 374 781 q 362 764 374 764 q 357 765 359 764 m 267 650 l 267 99 q 300 43 267 55 q 334 14 334 31 q 321 0 334 0 l 91 0 q 77 14 77 0 q 111 43 77 31 q 144 99 144 55 l 144 510 q 111 565 144 553 q 77 595 77 577 q 91 609 77 609 q 179 623 136 611 q 267 650 223 635 z "},"":{"ha":404,"x_min":29,"x_max":366,"o":"m 46 776 q 41 775 44 775 q 29 787 29 775 q 34 797 29 792 l 288 972 q 316 981 300 981 q 366 930 366 981 q 334 884 366 895 l 46 776 m 267 650 l 267 99 q 300 43 267 55 q 334 14 334 31 q 321 0 334 0 l 91 0 q 77 14 77 0 q 111 43 77 31 q 144 99 144 55 l 144 510 q 111 565 144 553 q 77 595 77 577 q 91 609 77 609 q 179 623 136 611 q 267 650 223 635 z "},"":{"ha":404,"x_min":11,"x_max":400,"o":"m 267 650 l 267 99 q 300 43 267 55 q 334 14 334 31 q 321 0 334 0 l 91 0 q 77 14 77 0 q 111 43 77 31 q 144 99 144 55 l 144 510 q 111 565 144 553 q 77 595 77 577 q 91 609 77 609 q 179 623 136 611 q 267 650 223 635 m 11 743 l 166 979 l 245 979 l 400 743 l 361 743 l 205 885 l 50 743 l 11 743 z "},"":{"ha":404,"x_min":18,"x_max":393,"o":"m 267 650 l 267 99 q 300 43 267 55 q 334 14 334 31 q 321 0 334 0 l 91 0 q 77 14 77 0 q 111 43 77 31 q 144 99 144 55 l 144 510 q 111 565 144 553 q 77 595 77 577 q 91 609 77 609 q 179 623 136 611 q 267 650 223 635 m 258 857 q 277 904 258 883 q 325 924 297 924 q 387 882 370 924 q 393 853 393 867 q 373 808 393 828 q 325 788 353 788 l 324 787 q 277 808 296 787 q 258 857 258 827 m 18 857 q 60 919 18 901 q 87 924 74 924 q 133 904 112 924 q 154 858 154 883 q 148 830 154 844 q 85 788 131 788 q 18 857 18 788 z "},"":{"ha":749,"x_min":46,"x_max":713,"o":"m 381 606 l 373 606 q 237 528 294 606 q 177 324 177 445 l 177 321 q 236 113 177 201 q 380 20 296 24 l 389 20 q 525 98 468 20 q 585 302 585 180 q 526 512 585 423 q 381 606 466 602 m 205 730 q 193 749 199 740 q 181 769 187 759 q 365 858 275 806 q 218 959 303 913 q 205 973 205 966 q 206 977 205 975 q 220 1001 212 986 q 238 1013 227 1013 q 252 1010 244 1013 q 423 893 353 949 q 584 1017 510 951 q 600 999 592 1008 q 616 982 608 990 q 463 859 545 913 q 645 622 578 755 q 713 313 711 488 l 713 309 q 617 75 713 170 q 380 -27 520 -23 l 371 -27 q 144 71 239 -27 q 46 311 46 172 l 46 313 q 159 568 47 465 q 197 589 172 580 q 273 617 222 597 q 338 641 302 628 q 393 653 372 653 l 395 653 q 541 611 473 650 q 476 724 509 673 q 402 821 443 776 q 205 730 312 768 z "},"":{"ha":808,"x_min":56,"x_max":770,"o":"m 245 578 q 311 604 283 593 q 366 623 340 614 q 495 652 428 645 q 512 652 503 652 q 621 614 569 652 q 703 343 703 551 l 703 99 q 736 43 703 55 q 770 14 770 31 q 757 0 770 0 l 592 0 q 581 9 581 0 l 581 343 q 519 552 581 492 q 422 591 479 591 q 351 578 390 591 q 314 564 336 572 q 275 549 291 555 q 245 538 258 543 l 245 99 q 279 43 245 55 q 313 14 313 31 q 300 0 313 0 l 70 0 q 56 14 56 0 q 90 43 56 31 q 123 99 123 55 l 123 533 q 90 588 123 576 q 56 618 56 600 q 70 632 56 632 q 158 646 115 634 q 245 673 202 658 l 245 578 m 620 920 q 565 808 591 843 q 505 771 536 771 q 389 828 452 771 q 321 859 353 859 q 274 840 296 859 q 260 827 268 834 q 243 808 252 820 q 214 758 227 788 q 205 751 210 751 q 197 755 201 751 q 191 768 191 760 q 195 784 191 775 q 240 884 217 833 q 311 936 262 936 q 432 877 371 936 q 496 845 465 845 q 552 869 524 845 q 598 941 578 890 q 608 949 601 949 l 610 949 q 621 935 619 947 l 621 931 q 620 920 621 926 z "},"":{"ha":751,"x_min":42,"x_max":709,"o":"m 506 761 l 217 869 q 185 916 185 880 q 235 966 185 966 q 264 957 252 966 l 517 782 q 523 772 523 777 q 511 760 523 760 q 506 761 507 760 m 391 648 q 615 546 524 643 q 709 315 707 450 l 709 311 q 613 82 709 176 q 375 -17 515 -13 l 364 -17 q 140 79 234 -17 q 42 313 42 178 l 42 315 q 154 565 43 464 q 192 586 167 577 q 268 613 218 595 q 334 637 298 624 q 389 648 368 648 l 391 648 m 377 603 l 369 603 q 233 526 290 603 q 172 326 172 445 q 232 120 172 208 q 376 29 291 33 l 385 29 q 521 106 464 29 q 581 305 581 186 q 521 511 581 424 q 377 603 461 598 z "},"":{"ha":751,"x_min":42,"x_max":709,"o":"m 214 780 q 210 779 212 779 q 197 791 197 779 q 202 801 197 796 l 456 976 q 484 985 469 985 q 534 935 534 985 q 503 888 534 899 l 214 780 m 391 648 q 615 546 524 643 q 709 315 707 450 l 709 311 q 613 82 709 176 q 375 -17 515 -13 l 364 -17 q 140 79 234 -17 q 42 313 42 178 l 42 315 q 154 565 43 464 q 192 586 167 577 q 268 613 218 595 q 334 637 298 624 q 389 648 368 648 l 391 648 m 377 603 l 369 603 q 233 526 290 603 q 172 326 172 445 q 232 120 172 208 q 376 29 291 33 l 385 29 q 521 106 464 29 q 581 305 581 186 q 521 511 581 424 q 377 603 461 598 z "},"":{"ha":751,"x_min":42,"x_max":709,"o":"m 391 648 q 615 546 524 643 q 709 315 707 450 l 709 311 q 613 82 709 176 q 375 -17 515 -13 l 364 -17 q 140 79 234 -17 q 42 313 42 178 l 42 315 q 154 565 43 464 q 192 586 167 577 q 268 613 218 595 q 334 637 298 624 q 389 648 368 648 l 391 648 m 377 603 l 369 603 q 233 526 290 603 q 172 326 172 445 q 232 120 172 208 q 376 29 291 33 l 385 29 q 521 106 464 29 q 581 305 581 186 q 521 511 581 424 q 377 603 461 598 m 172 743 l 327 979 l 406 979 l 562 743 l 523 743 l 367 885 l 210 743 l 172 743 z "},"":{"ha":751,"x_min":42,"x_max":709,"o":"m 391 648 q 615 546 524 643 q 709 315 707 450 l 709 311 q 613 82 709 176 q 375 -17 515 -13 l 364 -17 q 140 79 234 -17 q 42 313 42 178 l 42 315 q 154 565 43 464 q 192 586 167 577 q 268 613 218 595 q 334 637 298 624 q 389 648 368 648 l 391 648 m 377 603 l 369 603 q 233 526 290 603 q 172 326 172 445 q 232 120 172 208 q 376 29 291 33 l 385 29 q 521 106 464 29 q 581 305 581 186 q 521 511 581 424 q 377 603 461 598 m 593 920 q 538 808 564 843 q 479 771 509 771 q 361 828 425 771 q 294 859 326 859 q 248 840 270 859 q 233 827 241 834 q 216 808 225 820 q 186 758 199 786 q 178 751 183 751 q 170 755 174 751 q 163 768 163 760 q 168 784 163 775 q 213 884 190 833 q 285 936 236 936 q 406 877 345 936 q 470 845 438 845 q 526 869 498 845 q 571 941 551 890 q 581 949 574 949 l 584 949 q 595 935 593 947 l 595 931 q 593 920 595 925 z "},"":{"ha":751,"x_min":42,"x_max":709,"o":"m 391 648 q 615 546 524 643 q 709 315 707 450 l 709 311 q 613 82 709 176 q 375 -17 515 -13 l 364 -17 q 140 79 234 -17 q 42 313 42 178 l 42 315 q 154 565 43 464 q 192 586 167 577 q 268 613 218 595 q 334 637 298 624 q 389 648 368 648 l 391 648 m 377 603 l 369 603 q 233 526 290 603 q 172 326 172 445 q 232 120 172 208 q 376 29 291 33 l 385 29 q 521 106 464 29 q 581 305 581 186 q 521 511 581 424 q 377 603 461 598 m 432 857 q 452 904 432 883 q 499 924 471 924 q 562 882 544 924 q 568 853 568 867 q 547 808 568 828 q 499 788 528 788 q 498 787 498 787 q 451 808 470 787 q 432 857 432 827 m 192 857 q 233 919 192 901 q 260 924 248 924 q 307 904 286 924 q 328 857 328 882 q 322 830 328 844 q 259 788 305 788 q 192 857 192 788 z "},"":{"ha":694,"x_min":111,"x_max":611,"o":"m 136 464 l 586 464 q 611 446 611 464 l 611 410 q 586 393 611 393 l 136 393 q 111 410 111 393 l 111 446 q 136 464 111 464 m 361 564 q 313 584 332 564 q 294 631 294 602 q 313 678 294 659 q 361 698 332 698 q 408 678 389 698 q 429 631 429 659 q 408 584 429 603 q 361 564 389 564 m 361 157 q 313 177 333 157 q 294 225 294 197 q 313 272 294 253 q 361 292 333 292 q 408 272 389 292 q 429 225 429 252 q 408 177 429 197 q 361 157 389 157 z "},"":{"ha":751,"x_min":28,"x_max":729,"o":"m 31 11 l 121 100 q 42 311 42 192 l 42 315 q 154 565 43 464 q 192 586 167 577 q 268 613 218 595 q 334 637 298 624 q 389 648 368 648 l 391 648 q 595 566 508 644 l 689 657 q 694 659 692 659 q 701 657 698 659 l 726 631 q 729 625 729 628 q 726 620 729 623 l 632 528 q 709 315 707 435 l 709 311 q 613 82 709 176 q 375 -17 515 -13 l 366 -17 q 157 62 249 -17 l 67 -26 q 62 -28 64 -28 q 56 -26 59 -28 l 31 0 q 28 5 28 3 q 31 11 28 8 m 201 178 l 529 500 q 377 603 468 597 l 369 603 q 233 526 290 603 q 172 326 172 445 q 201 178 172 246 m 553 450 l 226 130 q 376 29 286 34 l 385 29 q 521 106 464 29 q 581 305 581 186 q 553 450 581 385 z "},"":{"ha":840,"x_min":58,"x_max":773,"o":"m 506 761 l 217 869 q 185 916 185 880 q 235 966 185 966 q 264 957 252 966 l 517 782 q 523 772 523 777 q 511 760 523 760 q 506 761 507 760 m 705 99 q 739 43 705 55 q 773 14 773 31 q 759 0 773 0 l 594 0 q 583 9 583 0 l 583 53 q 516 27 545 39 q 463 8 488 16 q 334 -20 400 -13 q 315 -20 324 -20 q 208 18 259 -20 q 125 288 125 80 l 125 533 q 92 588 125 576 q 58 618 58 600 q 72 632 58 632 q 160 646 117 634 q 248 673 204 658 l 248 288 q 310 79 248 139 q 406 41 349 41 q 477 54 439 41 q 515 67 492 58 q 554 82 538 76 q 565 86 557 83 q 583 93 573 89 l 583 533 q 549 588 583 576 q 515 618 515 600 q 529 632 515 632 q 617 646 574 634 q 705 673 661 658 l 705 99 z "},"":{"ha":840,"x_min":58,"x_max":773,"o":"m 258 779 q 253 778 256 778 q 241 789 241 778 q 245 800 241 795 l 500 975 q 528 983 512 983 q 578 933 578 983 q 546 886 578 898 l 258 779 m 705 99 q 739 43 705 55 q 773 14 773 31 q 759 0 773 0 l 594 0 q 583 9 583 0 l 583 53 q 516 27 545 39 q 463 8 488 16 q 334 -20 400 -13 q 315 -20 324 -20 q 208 18 259 -20 q 125 288 125 80 l 125 533 q 92 588 125 576 q 58 618 58 600 q 72 632 58 632 q 160 646 117 634 q 248 673 204 658 l 248 288 q 310 79 248 139 q 406 41 349 41 q 477 54 439 41 q 515 67 492 58 q 554 82 538 76 q 565 86 557 83 q 583 93 573 89 l 583 533 q 549 588 583 576 q 515 618 515 600 q 529 632 515 632 q 617 646 574 634 q 705 673 661 658 l 705 99 z "},"":{"ha":840,"x_min":58,"x_max":773,"o":"m 705 99 q 739 43 705 55 q 773 14 773 31 q 759 0 773 0 l 594 0 q 583 9 583 0 l 583 53 q 516 27 545 39 q 463 8 488 16 q 334 -20 400 -13 q 315 -20 324 -20 q 208 18 259 -20 q 125 288 125 80 l 125 533 q 92 588 125 576 q 58 618 58 600 q 72 632 58 632 q 160 646 117 634 q 248 673 204 658 l 248 288 q 310 79 248 139 q 406 41 349 41 q 477 54 439 41 q 515 67 492 58 q 554 82 538 76 q 565 86 557 83 q 583 93 573 89 l 583 533 q 549 588 583 576 q 515 618 515 600 q 529 632 515 632 q 617 646 574 634 q 705 673 661 658 l 705 99 m 212 743 l 368 979 l 447 979 l 602 743 l 564 743 l 408 885 l 251 743 l 212 743 z "},"":{"ha":840,"x_min":58,"x_max":773,"o":"m 705 99 q 739 43 705 55 q 773 14 773 31 q 759 0 773 0 l 594 0 q 583 9 583 0 l 583 53 q 516 27 545 39 q 463 8 488 16 q 334 -20 400 -13 q 315 -20 324 -20 q 208 18 259 -20 q 125 288 125 80 l 125 533 q 92 588 125 576 q 58 618 58 600 q 72 632 58 632 q 160 646 117 634 q 248 673 204 658 l 248 288 q 310 79 248 139 q 406 41 349 41 q 477 54 439 41 q 515 67 492 58 q 554 82 538 76 q 565 86 557 83 q 583 93 573 89 l 583 533 q 549 588 583 576 q 515 618 515 600 q 529 632 515 632 q 617 646 574 634 q 705 673 661 658 l 705 99 m 460 857 q 479 904 460 883 q 526 924 499 924 q 589 882 571 924 q 595 852 595 867 q 575 808 595 828 q 527 788 555 788 q 526 787 526 787 q 479 808 498 787 q 460 857 460 827 m 220 857 q 261 919 220 901 q 288 924 275 924 q 334 904 313 924 q 355 858 355 883 q 350 830 355 844 q 287 788 332 788 q 220 857 220 788 z "},"":{"ha":772,"x_min":20,"x_max":667,"o":"m 214 780 q 210 779 212 779 q 197 791 197 779 q 202 801 197 796 l 456 976 q 484 985 469 985 q 534 935 534 985 q 503 888 534 899 l 214 780 m 113 543 q 80 583 102 568 q 44 602 62 594 q 22 619 26 609 q 20 625 20 623 q 29 631 20 631 l 252 631 q 270 619 264 631 q 271 614 271 616 q 260 600 271 606 q 239 576 245 592 q 237 563 237 570 q 241 546 237 555 l 418 113 l 574 486 q 581 514 581 500 q 562 560 581 538 l 539 587 l 600 635 q 608 639 604 639 q 618 633 612 639 l 656 595 q 667 565 667 583 q 663 543 667 555 q 631 467 652 510 l 296 -281 q 259 -355 275 -326 q 218 -384 243 -384 l 216 -384 l 161 -382 q 149 -369 149 -380 l 144 -292 l 179 -291 q 243 -251 224 -290 l 358 -13 q 345 -9 348 -13 q 339 2 342 -7 q 335 14 336 10 l 113 543 z "},"":{"ha":800,"x_min":76,"x_max":759,"o":"m 267 992 l 267 573 l 447 641 q 482 649 468 648 q 495 649 488 649 q 511 648 503 648 q 676 570 607 644 q 756 387 746 493 q 759 333 759 359 q 754 263 759 296 q 709 149 745 205 q 649 86 690 117 q 616 68 633 75 q 506 27 561 47 q 397 -13 452 7 q 375 -17 386 -17 l 372 -17 q 267 4 328 -15 l 267 4 l 267 -357 q 179 -330 223 -342 q 91 -316 136 -318 q 76 -302 76 -316 q 110 -273 76 -285 q 144 -217 144 -260 l 144 852 q 110 908 144 896 q 76 938 76 920 q 91 952 76 952 q 179 966 136 954 q 267 992 223 977 m 267 105 q 337 59 294 79 q 414 38 379 39 l 418 38 q 444 43 429 38 q 492 61 468 52 q 541 79 517 70 q 568 97 557 85 q 625 205 610 141 q 635 304 635 254 q 635 332 635 318 q 582 490 627 429 q 417 580 516 580 q 399 579 408 580 q 363 570 382 577 q 317 551 347 564 q 267 530 288 538 l 267 105 z "},"":{"ha":772,"x_min":20,"x_max":667,"o":"m 113 543 q 80 583 102 568 q 44 602 62 594 q 22 619 26 609 q 20 625 20 623 q 29 631 20 631 l 252 631 q 270 619 264 631 q 271 614 271 616 q 260 600 271 606 q 239 576 245 592 q 237 563 237 570 q 241 546 237 555 l 418 113 l 574 486 q 581 514 581 500 q 562 560 581 538 l 539 587 l 600 635 q 608 639 604 639 q 618 633 612 639 l 656 595 q 667 565 667 583 q 663 543 667 555 q 631 467 652 510 l 296 -281 q 259 -355 275 -326 q 218 -384 243 -384 l 216 -384 l 161 -382 q 149 -369 149 -380 l 144 -292 l 179 -291 q 243 -251 224 -290 l 358 -13 q 345 -9 348 -13 q 339 2 342 -7 q 335 14 336 10 l 113 543 m 421 857 q 441 904 421 883 q 488 924 460 924 q 551 882 533 924 q 557 852 557 866 q 537 808 557 827 q 488 783 513 783 q 440 807 464 783 q 421 857 421 827 m 182 857 q 223 919 182 901 q 250 924 237 924 q 296 904 275 924 q 317 858 317 883 q 312 830 317 844 q 249 788 294 788 q 182 857 182 788 z "},"":{"ha":1080,"x_min":35,"x_max":1048,"o":"m 568 968 q 652 772 602 888 q 755 533 702 656 q 858 294 808 410 q 943 99 908 178 q 983 54 953 74 q 1014 37 998 43 q 1038 24 1029 30 q 1047 14 1045 19 q 1048 9 1048 12 q 1047 4 1048 7 q 1039 0 1045 0 l 810 0 q 798 4 804 0 q 789 14 791 9 q 788 18 788 16 q 796 31 788 24 q 811 44 802 37 q 824 62 820 51 q 826 75 826 68 q 821 100 826 86 l 720 332 l 325 332 q 276 215 300 273 q 228 100 252 157 q 221 75 222 86 q 220 66 220 71 q 222 53 220 59 q 229 38 224 44 q 236 26 234 33 q 237 19 237 21 q 235 14 237 17 q 220 0 231 0 l 45 0 q 36 4 39 0 q 35 7 36 5 q 36 14 35 9 q 59 32 40 23 q 81 42 69 37 q 105 56 93 48 q 142 99 130 74 l 526 968 l 568 968 m 338 1156 l 745 1156 q 752 1148 752 1156 l 752 1090 q 745 1083 752 1083 l 338 1083 q 331 1090 331 1083 l 331 1148 q 338 1156 331 1156 m 696 387 l 519 800 q 433 593 476 696 q 347 387 390 490 l 696 387 z "},"":{"ha":783,"x_min":42,"x_max":731,"o":"m 541 59 l 354 -9 q 318 -17 332 -17 l 290 -17 q 124 62 194 -12 q 45 243 54 136 q 42 298 42 272 q 47 367 42 334 q 92 482 55 425 q 152 545 109 512 q 185 563 167 555 q 294 604 239 583 q 404 644 349 624 q 425 648 415 648 l 429 648 q 534 627 472 646 q 541 624 539 625 q 577 610 555 618 q 593 608 586 608 q 612 614 604 608 q 633 634 627 626 q 642 639 636 639 q 648 637 645 639 q 663 624 663 632 l 663 99 q 697 43 663 55 q 731 14 731 31 q 717 0 731 0 l 552 0 q 541 9 541 0 l 541 59 m 541 522 q 467 569 513 547 q 387 593 422 591 l 384 593 q 357 587 370 593 q 308 569 332 578 q 260 551 284 560 q 233 534 243 545 q 176 425 191 489 q 165 330 165 377 q 166 299 165 315 q 219 140 174 201 q 333 58 264 77 q 385 51 359 51 q 402 52 393 51 q 437 60 417 53 q 486 78 453 66 q 541 99 519 91 l 541 522 m 161 911 l 568 911 q 575 905 575 911 l 575 846 q 568 839 575 839 l 161 839 q 155 846 155 839 l 155 905 q 161 911 155 911 z "},"":{"ha":1080,"x_min":35,"x_max":1048,"o":"m 568 968 q 652 772 602 888 q 755 533 702 656 q 858 294 808 410 q 943 99 908 178 q 983 54 953 74 q 1014 37 998 43 q 1038 24 1029 30 q 1047 14 1045 19 q 1048 9 1048 12 q 1047 4 1048 7 q 1039 0 1045 0 l 810 0 q 798 4 804 0 q 789 14 791 9 q 788 18 788 16 q 796 31 788 24 q 811 44 802 37 q 824 62 820 51 q 826 75 826 68 q 821 100 826 86 l 720 332 l 325 332 q 276 215 300 273 q 228 100 252 157 q 221 75 222 86 q 220 66 220 71 q 222 53 220 59 q 229 38 224 44 q 236 26 234 33 q 237 19 237 21 q 235 14 237 17 q 220 0 231 0 l 45 0 q 36 4 39 0 q 35 7 36 5 q 36 14 35 9 q 59 32 40 23 q 81 42 69 37 q 105 56 93 48 q 142 99 130 74 l 526 968 l 568 968 m 549 1033 q 385 1109 441 1033 q 342 1234 347 1160 l 342 1236 q 361 1253 342 1253 q 378 1234 374 1253 q 548 1121 408 1123 l 551 1121 q 718 1234 689 1121 q 736 1253 723 1253 q 755 1236 755 1253 l 755 1234 q 712 1109 750 1160 q 549 1033 656 1033 m 696 387 l 519 800 q 433 593 476 696 q 347 387 390 490 l 696 387 z "},"":{"ha":783,"x_min":42,"x_max":731,"o":"m 541 59 l 354 -9 q 318 -17 332 -17 l 290 -17 q 124 62 194 -12 q 45 243 54 136 q 42 298 42 272 q 47 367 42 334 q 92 482 55 425 q 152 545 109 512 q 185 563 167 555 q 294 604 239 583 q 404 644 349 624 q 425 648 415 648 l 429 648 q 534 627 472 646 q 541 624 539 625 q 577 610 555 618 q 593 608 586 608 q 612 614 604 608 q 633 634 627 626 q 642 639 636 639 q 648 637 645 639 q 663 624 663 632 l 663 99 q 697 43 663 55 q 731 14 731 31 q 717 0 731 0 l 552 0 q 541 9 541 0 l 541 59 m 541 522 q 467 569 513 547 q 387 593 422 591 l 384 593 q 357 587 370 593 q 308 569 332 578 q 260 551 284 560 q 233 534 243 545 q 176 425 191 489 q 165 330 165 377 q 166 299 165 315 q 219 140 174 201 q 333 58 264 77 q 385 51 359 51 q 402 52 393 51 q 437 60 417 53 q 486 78 453 66 q 541 99 519 91 l 541 522 m 392 759 q 229 835 283 759 q 186 960 190 886 l 186 962 q 203 979 186 979 q 222 960 216 979 q 391 848 251 848 l 394 848 q 562 960 532 848 q 580 979 566 979 q 597 964 597 979 l 597 960 q 555 835 594 888 q 392 759 499 759 z "},"":{"ha":1080,"x_min":35,"x_max":1048,"o":"m 538 -12 q 551 -50 551 -32 q 544 -75 551 -64 q 505 -124 526 -104 q 470 -184 470 -159 q 490 -216 470 -203 q 534 -231 511 -231 q 598 -208 564 -231 l 588 -254 q 494 -272 533 -272 l 484 -272 q 400 -210 403 -266 l 400 -204 q 439 -121 400 -153 q 490 -75 466 -98 q 505 -38 505 -61 q 500 -12 505 -26 l 538 -12 m 568 968 q 652 772 602 888 q 755 533 702 656 q 858 294 808 410 q 943 99 908 178 q 983 54 953 74 q 1014 37 998 43 q 1038 24 1029 30 q 1047 14 1045 19 q 1048 9 1048 12 q 1047 4 1048 7 q 1039 0 1045 0 l 810 0 q 798 4 804 0 q 789 14 791 9 q 788 18 788 16 q 796 31 788 24 q 811 44 802 37 q 824 62 820 51 q 826 75 826 68 q 821 100 826 86 l 720 332 l 325 332 q 276 215 300 273 q 228 100 252 157 q 221 75 222 86 q 220 66 220 71 q 222 53 220 59 q 229 38 224 44 q 236 26 234 33 q 237 19 237 21 q 235 14 237 17 q 220 0 231 0 l 45 0 q 36 4 39 0 q 35 7 36 5 q 36 14 35 9 q 59 32 40 23 q 81 42 69 37 q 105 56 93 48 q 142 99 130 74 l 526 968 l 568 968 m 696 387 l 519 800 q 433 593 476 696 q 347 387 390 490 l 696 387 z "},"":{"ha":783,"x_min":42,"x_max":731,"o":"m 425 -14 q 437 -52 437 -34 q 430 -77 437 -66 q 391 -126 412 -106 q 356 -186 356 -161 q 376 -218 356 -205 q 420 -233 397 -233 q 484 -210 450 -233 l 474 -256 q 380 -274 419 -274 l 370 -274 q 286 -212 289 -268 l 286 -206 q 325 -123 286 -155 q 376 -77 352 -100 q 391 -40 391 -63 q 387 -14 391 -28 l 425 -14 m 541 59 l 354 -9 q 318 -17 332 -17 l 290 -17 q 124 62 194 -12 q 45 243 54 136 q 42 298 42 272 q 47 367 42 334 q 92 482 55 425 q 152 545 109 512 q 185 563 167 555 q 294 604 239 583 q 404 644 349 624 q 425 648 415 648 l 429 648 q 534 627 472 646 q 541 624 539 625 q 577 610 555 618 q 593 608 586 608 q 612 614 604 608 q 633 634 627 626 q 642 639 636 639 q 648 637 645 639 q 663 624 663 632 l 663 99 q 697 43 663 55 q 731 14 731 31 q 717 0 731 0 l 552 0 q 541 9 541 0 l 541 59 m 541 522 q 467 569 513 547 q 387 593 422 591 l 384 593 q 357 587 370 593 q 308 569 332 578 q 260 551 284 560 q 233 534 243 545 q 176 425 191 489 q 165 330 165 377 q 166 299 165 315 q 219 140 174 201 q 333 58 264 77 q 385 51 359 51 q 402 52 393 51 q 437 60 417 53 q 486 78 453 66 q 541 99 519 91 l 541 522 z "},"":{"ha":949,"x_min":45,"x_max":908,"o":"m 367 1097 q 362 1095 364 1095 q 351 1107 351 1095 q 355 1118 351 1113 l 610 1293 q 637 1301 623 1301 q 688 1251 688 1301 q 656 1204 688 1215 l 367 1097 m 575 -25 q 206 108 367 -25 q 45 475 45 241 q 202 842 45 704 q 575 980 358 980 q 741 963 653 980 q 908 895 829 945 l 892 752 q 878 740 889 740 l 876 740 q 859 759 868 741 q 741 884 819 844 q 585 920 667 920 l 570 920 q 284 773 387 911 q 191 498 191 649 q 193 465 191 481 q 302 180 202 309 q 575 44 403 52 q 606 43 591 43 q 749 70 693 43 q 859 195 814 101 q 880 214 867 214 q 886 214 883 214 q 897 198 897 210 q 894 186 897 193 l 835 21 q 703 -16 770 -6 q 575 -25 635 -25 z "},"":{"ha":627,"x_min":54,"x_max":600,"o":"m 214 780 q 210 779 212 779 q 197 791 197 779 q 202 801 197 796 l 456 976 q 484 985 469 985 q 534 935 534 985 q 503 888 534 899 l 214 780 m 376 648 l 391 648 q 594 589 501 648 l 583 474 q 574 465 581 465 l 572 465 q 559 479 565 466 q 488 564 532 538 q 382 590 445 590 l 366 590 q 252 547 292 586 q 199 463 216 512 q 181 352 181 413 q 183 311 181 332 q 238 145 190 210 q 379 49 301 60 q 406 47 392 47 q 541 87 467 47 q 593 109 579 109 q 598 107 596 109 q 600 102 600 106 q 591 76 600 94 q 568 44 581 56 q 473 -4 530 9 q 366 -17 417 -17 q 154 53 240 -16 q 57 252 68 123 q 54 311 54 282 q 59 382 54 347 q 105 501 68 441 q 215 604 144 564 q 376 648 285 644 z "},"":{"ha":949,"x_min":45,"x_max":908,"o":"m 575 -25 q 206 108 367 -25 q 45 475 45 241 q 202 842 45 704 q 575 980 358 980 q 741 963 653 980 q 908 895 829 945 l 892 752 q 878 740 889 740 l 876 740 q 859 759 868 741 q 741 884 819 844 q 585 920 667 920 l 570 920 q 284 773 387 911 q 191 498 191 649 q 193 465 191 481 q 302 180 202 309 q 575 44 403 52 q 606 43 591 43 q 749 70 693 43 q 859 195 814 101 q 880 214 867 214 q 886 214 883 214 q 897 198 897 210 q 894 186 897 193 l 835 21 q 703 -16 770 -6 q 575 -25 635 -25 m 357 1055 l 512 1291 l 591 1291 l 747 1055 l 708 1055 l 552 1196 l 395 1055 l 357 1055 z "},"":{"ha":627,"x_min":54,"x_max":600,"o":"m 376 648 l 391 648 q 594 589 501 648 l 583 474 q 574 465 581 465 l 572 465 q 559 479 565 466 q 488 564 532 538 q 382 590 445 590 l 366 590 q 252 547 292 586 q 199 463 216 512 q 181 352 181 413 q 183 311 181 332 q 238 145 190 210 q 379 49 301 60 q 406 47 392 47 q 541 87 467 47 q 593 109 579 109 q 598 107 596 109 q 600 102 600 106 q 591 76 600 94 q 568 44 581 56 q 473 -4 530 9 q 366 -17 417 -17 q 154 53 240 -16 q 57 252 68 123 q 54 311 54 282 q 59 382 54 347 q 105 501 68 441 q 215 604 144 564 q 376 648 285 644 m 134 739 l 290 974 l 368 974 l 524 739 l 485 739 l 329 880 l 173 739 l 134 739 z "},"":{"ha":949,"x_min":45,"x_max":908,"o":"m 575 -25 q 206 108 367 -25 q 45 475 45 241 q 202 842 45 704 q 575 980 358 980 q 741 963 653 980 q 908 895 829 945 l 892 752 q 878 740 889 740 l 876 740 q 859 759 868 741 q 741 884 819 844 q 585 920 667 920 l 570 920 q 284 773 387 911 q 191 498 191 649 q 193 465 191 481 q 302 180 202 309 q 575 44 403 52 q 606 43 591 43 q 749 70 693 43 q 859 195 814 101 q 880 214 867 214 q 886 214 883 214 q 897 198 897 210 q 894 186 897 193 l 835 21 q 703 -16 770 -6 q 575 -25 635 -25 m 558 1137 q 526 1143 541 1137 q 499 1161 508 1152 q 481 1187 487 1173 q 475 1219 475 1203 q 481 1252 475 1235 q 499 1279 487 1267 q 526 1297 509 1289 q 558 1304 543 1304 q 591 1297 574 1304 q 618 1279 606 1290 q 635 1252 629 1268 q 642 1219 642 1236 q 635 1187 642 1202 q 618 1161 629 1171 q 591 1143 608 1151 q 558 1137 576 1137 z "},"":{"ha":627,"x_min":54,"x_max":600,"o":"m 376 648 l 391 648 q 594 589 501 648 l 583 474 q 574 465 581 465 l 572 465 q 559 479 565 466 q 488 564 532 538 q 382 590 445 590 l 366 590 q 252 547 292 586 q 199 463 216 512 q 181 352 181 413 q 183 311 181 332 q 238 145 190 210 q 379 49 301 60 q 406 47 392 47 q 541 87 467 47 q 593 109 579 109 q 598 107 596 109 q 600 102 600 106 q 591 76 600 94 q 568 44 581 56 q 473 -4 530 9 q 366 -17 417 -17 q 154 53 240 -16 q 57 252 68 123 q 54 311 54 282 q 59 382 54 347 q 105 501 68 441 q 215 604 144 564 q 376 648 285 644 m 381 785 q 349 792 366 785 q 322 809 334 798 q 304 836 309 823 q 298 867 298 851 q 304 901 298 884 q 322 927 310 915 q 349 945 331 937 q 381 952 366 952 q 414 945 397 952 q 441 927 431 937 q 458 901 452 916 q 465 867 465 885 q 458 836 465 850 q 441 809 452 821 q 414 792 428 798 q 381 785 397 785 z "},"":{"ha":949,"x_min":45,"x_max":908,"o":"m 575 -25 q 206 108 367 -25 q 45 475 45 241 q 202 842 45 704 q 575 980 358 980 q 741 963 653 980 q 908 895 829 945 l 892 752 q 878 740 889 740 l 876 740 q 859 759 868 741 q 741 884 819 844 q 585 920 667 920 l 570 920 q 284 773 387 911 q 191 498 191 649 q 193 465 191 481 q 302 180 202 309 q 575 44 403 52 q 606 43 591 43 q 749 70 693 43 q 859 195 814 101 q 880 214 867 214 q 886 214 883 214 q 897 198 897 210 q 894 186 897 193 l 835 21 q 703 -16 770 -6 q 575 -25 635 -25 m 357 1291 l 395 1291 l 552 1149 l 708 1291 l 747 1291 l 591 1055 l 512 1055 l 357 1291 z "},"":{"ha":627,"x_min":54,"x_max":600,"o":"m 376 648 l 391 648 q 594 589 501 648 l 583 474 q 574 465 581 465 l 572 465 q 559 479 565 466 q 488 564 532 538 q 382 590 445 590 l 366 590 q 252 547 292 586 q 199 463 216 512 q 181 352 181 413 q 183 311 181 332 q 238 145 190 210 q 379 49 301 60 q 406 47 392 47 q 541 87 467 47 q 593 109 579 109 q 598 107 596 109 q 600 102 600 106 q 591 76 600 94 q 568 44 581 56 q 473 -4 530 9 q 366 -17 417 -17 q 154 53 240 -16 q 57 252 68 123 q 54 311 54 282 q 59 382 54 347 q 105 501 68 441 q 215 604 144 564 q 376 648 285 644 m 123 979 l 162 979 l 318 837 l 474 979 l 513 979 l 357 743 l 279 743 l 123 979 z "},"":{"ha":1075,"x_min":73,"x_max":1019,"o":"m 1017 536 q 1019 493 1019 514 q 977 291 1019 380 q 838 115 927 184 q 467 -5 686 -2 l 413 -5 q 339 -4 374 -5 l 260 -4 q 174 -2 203 -4 l 158 -2 q 87 -6 131 -2 q 73 9 73 -6 q 107 38 73 26 q 141 94 141 50 l 141 856 q 107 911 141 899 q 73 941 73 923 q 87 955 73 955 q 145 954 116 954 q 203 955 174 954 q 317 958 262 957 l 357 958 q 566 953 461 958 q 790 903 690 945 q 945 775 884 861 q 1017 536 1007 690 m 357 1291 l 395 1291 l 552 1149 l 708 1291 l 747 1291 l 591 1055 l 512 1055 l 357 1291 m 271 890 l 274 67 q 435 51 360 51 q 674 104 572 51 q 825 258 770 155 q 875 499 875 353 l 875 522 q 836 706 872 631 q 740 825 800 780 q 528 901 652 890 q 441 905 485 905 q 271 890 358 905 z "},"":{"ha":949,"x_min":56,"x_max":899,"o":"m 554 59 l 368 -9 q 332 -17 346 -17 l 304 -17 q 138 62 208 -12 q 58 243 68 136 q 56 298 56 272 q 60 367 56 334 q 105 482 68 425 q 165 545 123 512 q 199 563 180 555 q 308 604 253 583 q 417 644 362 624 q 439 648 429 648 l 442 648 q 547 627 486 646 q 554 624 553 625 l 554 852 q 520 908 554 896 q 486 938 486 920 q 500 952 486 952 q 589 966 545 954 q 677 992 633 977 l 677 99 q 711 43 677 55 q 745 14 745 31 q 730 0 745 0 l 566 0 q 554 9 554 0 l 554 59 m 554 522 q 479 571 524 550 q 400 593 435 591 l 397 593 q 370 587 384 593 q 322 569 346 578 q 273 551 298 560 q 246 534 256 545 q 190 425 204 489 q 178 330 178 377 q 180 299 178 315 q 233 140 187 201 q 347 58 278 77 q 399 51 372 51 q 416 52 407 51 q 451 60 431 53 q 500 78 467 66 q 554 99 533 91 l 554 522 m 763 688 q 727 648 743 654 q 724 647 725 647 q 718 658 718 647 q 724 692 718 669 l 755 804 q 778 888 762 827 q 805 965 795 949 q 848 992 819 989 l 853 992 q 893 966 878 992 q 899 945 899 956 q 897 931 899 939 q 882 897 890 911 l 763 688 z "},"":{"ha":1075,"x_min":17,"x_max":1019,"o":"m 1017 536 q 1019 493 1019 514 q 977 291 1019 380 q 838 115 927 184 q 467 -5 686 -2 l 413 -5 q 339 -4 374 -5 l 260 -4 q 174 -2 203 -4 l 158 -2 q 87 -6 131 -2 q 73 9 73 -6 q 107 38 73 26 q 141 94 141 50 l 141 465 l 31 465 q 17 477 17 465 l 17 504 q 31 517 17 517 l 141 517 l 141 856 q 107 911 141 899 q 73 941 73 923 q 87 955 73 955 q 145 954 116 954 q 203 955 174 954 q 317 958 262 957 l 357 958 q 566 953 461 958 q 790 903 690 945 q 945 775 884 861 q 1017 536 1007 690 m 272 517 l 486 517 q 499 504 499 517 l 499 477 q 486 465 499 465 l 272 465 l 274 67 q 435 51 360 51 q 674 104 572 51 q 825 258 770 155 q 875 499 875 353 l 875 522 q 836 706 872 631 q 740 825 800 780 q 528 901 652 890 q 441 905 485 905 q 271 890 358 905 l 272 517 z "},"":{"ha":785,"x_min":41,"x_max":748,"o":"m 319 769 l 526 769 l 526 965 q 610 939 568 950 q 696 926 652 928 q 711 911 711 926 q 677 883 711 895 q 644 829 644 871 l 644 769 l 740 769 q 748 760 748 769 l 748 718 q 740 709 748 709 l 644 709 l 644 96 q 677 42 644 54 q 711 14 711 30 q 696 0 711 0 l 536 0 q 526 8 526 0 l 526 58 l 344 -9 q 309 -17 326 -16 q 282 -16 292 -17 q 121 60 189 -13 q 44 237 52 133 q 41 292 41 265 q 46 357 41 326 q 89 469 54 412 q 147 529 106 497 q 180 547 162 541 q 286 587 233 567 q 392 626 339 606 q 417 631 403 631 q 519 609 460 629 l 526 607 l 526 709 l 319 709 q 311 718 311 709 l 311 760 q 319 769 311 769 m 526 508 q 454 554 498 532 q 376 576 410 575 q 347 571 361 576 q 299 553 323 562 q 252 536 276 545 q 226 519 235 530 q 171 414 185 475 q 160 321 160 367 q 161 290 160 306 q 213 136 169 196 q 323 57 258 75 q 374 50 349 50 q 391 50 383 50 q 426 59 406 52 q 472 76 440 64 q 526 96 505 88 l 526 508 z "},"":{"ha":848,"x_min":105,"x_max":791,"o":"m 296 64 l 585 64 q 692 112 648 64 q 758 188 736 161 q 777 203 770 203 q 791 189 791 203 q 790 174 791 180 l 741 0 l 117 0 q 105 14 105 0 q 139 43 105 31 q 173 99 173 55 l 173 852 q 139 908 173 897 q 105 938 105 920 q 119 952 105 952 l 749 952 l 749 778 q 734 764 749 764 q 709 791 728 764 q 651 863 675 838 q 585 889 626 889 l 296 889 l 296 521 l 451 521 q 508 556 494 521 q 539 591 522 591 q 553 576 553 591 l 553 404 q 539 390 553 390 q 506 425 522 390 q 447 459 490 459 l 296 459 l 296 64 m 245 1156 l 652 1156 q 659 1148 659 1156 l 659 1090 q 652 1083 659 1083 l 245 1083 q 238 1090 238 1083 l 238 1148 q 245 1156 238 1156 z "},"":{"ha":681,"x_min":42,"x_max":639,"o":"m 48 374 q 148 574 67 499 q 361 651 229 650 l 364 651 q 568 575 498 651 q 639 374 639 498 q 637 335 638 347 q 609 324 635 324 l 177 324 q 233 142 179 214 q 368 54 286 70 q 416 48 391 48 q 549 85 480 48 q 602 106 588 106 q 607 105 605 106 q 609 99 609 103 q 600 74 609 90 q 587 52 592 58 q 578 43 582 47 q 377 -21 504 -21 q 111 93 199 -20 q 42 299 42 180 q 48 374 42 335 m 177 374 l 534 374 q 497 526 534 456 q 366 591 461 591 l 358 591 q 221 522 262 589 q 177 374 180 456 m 127 913 l 534 913 q 541 907 541 913 l 541 848 q 534 841 541 841 l 127 841 q 120 848 120 841 l 120 907 q 127 913 120 913 z "},"":{"ha":848,"x_min":105,"x_max":791,"o":"m 296 64 l 585 64 q 692 112 648 64 q 758 188 736 161 q 777 203 770 203 q 791 189 791 203 q 790 174 791 180 l 741 0 l 117 0 q 105 14 105 0 q 139 43 105 31 q 173 99 173 55 l 173 852 q 139 908 173 897 q 105 938 105 920 q 119 952 105 952 l 749 952 l 749 778 q 734 764 749 764 q 709 791 728 764 q 651 863 675 838 q 585 889 626 889 l 296 889 l 296 521 l 451 521 q 508 556 494 521 q 539 591 522 591 q 553 576 553 591 l 553 404 q 539 390 553 390 q 506 425 522 390 q 447 459 490 459 l 296 459 l 296 64 m 448 1033 q 285 1109 340 1033 q 242 1234 246 1160 l 242 1236 q 260 1253 242 1253 q 279 1234 273 1253 q 448 1121 307 1123 l 451 1121 q 618 1234 589 1121 q 636 1253 623 1253 q 654 1236 654 1253 l 654 1234 q 612 1109 650 1160 q 448 1033 555 1033 z "},"":{"ha":681,"x_min":42,"x_max":639,"o":"m 48 374 q 148 574 67 499 q 361 651 229 650 l 364 651 q 568 575 498 651 q 639 374 639 498 q 637 335 638 347 q 609 324 635 324 l 177 324 q 233 142 179 214 q 368 54 286 70 q 416 48 391 48 q 549 85 480 48 q 602 106 588 106 q 607 105 605 106 q 609 99 609 103 q 600 74 609 90 q 587 52 592 58 q 578 43 582 47 q 377 -21 504 -21 q 111 93 199 -20 q 42 299 42 180 q 48 374 42 335 m 177 374 l 534 374 q 497 526 534 456 q 366 591 461 591 l 358 591 q 221 522 262 589 q 177 374 180 456 m 331 756 q 167 832 222 756 q 125 958 127 886 l 125 960 q 142 976 125 976 q 161 958 157 976 q 330 845 190 846 l 333 845 q 500 958 471 845 q 519 976 505 976 q 537 958 537 976 q 494 832 532 885 q 331 756 438 756 z "},"":{"ha":848,"x_min":105,"x_max":791,"o":"m 296 64 l 585 64 q 692 112 648 64 q 758 188 736 161 q 777 203 770 203 q 791 189 791 203 q 790 174 791 180 l 741 0 l 117 0 q 105 14 105 0 q 139 43 105 31 q 173 99 173 55 l 173 852 q 139 908 173 897 q 105 938 105 920 q 119 952 105 952 l 749 952 l 749 778 q 734 764 749 764 q 709 791 728 764 q 651 863 675 838 q 585 889 626 889 l 296 889 l 296 521 l 451 521 q 508 556 494 521 q 539 591 522 591 q 553 576 553 591 l 553 404 q 539 390 553 390 q 506 425 522 390 q 447 459 490 459 l 296 459 l 296 64 m 448 1059 q 416 1065 431 1059 q 389 1083 401 1072 q 371 1109 378 1093 q 365 1141 365 1124 q 371 1175 365 1159 q 389 1201 378 1191 q 416 1219 400 1212 q 448 1226 430 1226 q 481 1219 467 1226 q 508 1201 496 1212 q 526 1175 519 1189 q 532 1141 532 1159 q 526 1109 532 1124 q 508 1083 519 1095 q 481 1065 496 1072 q 448 1059 466 1059 z "},"":{"ha":681,"x_min":42,"x_max":639,"o":"m 48 374 q 148 574 67 499 q 361 651 229 650 l 364 651 q 568 575 498 651 q 639 374 639 498 q 637 335 638 347 q 609 324 635 324 l 177 324 q 233 142 179 214 q 368 54 286 70 q 416 48 391 48 q 549 85 480 48 q 602 106 588 106 q 607 105 605 106 q 609 99 609 103 q 600 74 609 90 q 587 52 592 58 q 578 43 582 47 q 377 -21 504 -21 q 111 93 199 -20 q 42 299 42 180 q 48 374 42 335 m 177 374 l 534 374 q 497 526 534 456 q 366 591 461 591 l 358 591 q 221 522 262 589 q 177 374 180 456 m 331 944 q 405 869 405 944 q 331 793 405 793 q 256 869 256 793 q 331 944 256 944 z "},"":{"ha":848,"x_min":105,"x_max":791,"o":"m 450 -15 q 463 -53 463 -35 q 456 -79 463 -67 q 417 -127 438 -107 q 382 -187 382 -162 q 402 -220 382 -206 q 446 -234 423 -234 q 510 -211 476 -234 l 500 -257 q 406 -275 445 -275 l 396 -275 q 312 -214 315 -269 l 312 -208 q 351 -124 312 -157 q 401 -79 378 -101 q 417 -41 417 -64 q 412 -15 417 -29 l 450 -15 m 296 64 l 585 64 q 692 112 648 64 q 758 188 736 161 q 777 203 770 203 q 791 189 791 203 q 790 174 791 180 l 741 0 l 117 0 q 105 14 105 0 q 139 43 105 31 q 173 99 173 55 l 173 852 q 139 908 173 897 q 105 938 105 920 q 119 952 105 952 l 749 952 l 749 778 q 734 764 749 764 q 709 791 728 764 q 651 863 675 838 q 585 889 626 889 l 296 889 l 296 521 l 451 521 q 508 556 494 521 q 539 591 522 591 q 553 576 553 591 l 553 404 q 539 390 553 390 q 506 425 522 390 q 447 459 490 459 l 296 459 l 296 64 z "},"":{"ha":681,"x_min":42,"x_max":639,"o":"m 48 374 q 148 574 67 499 q 361 651 229 650 l 364 651 q 568 575 498 651 q 639 374 639 498 q 637 335 638 347 q 609 324 635 324 l 177 324 q 233 142 179 214 q 368 54 286 70 q 416 48 391 48 q 549 85 480 48 q 602 106 588 106 q 607 105 605 106 q 609 99 609 103 q 600 74 609 90 q 587 52 592 58 q 578 43 582 47 q 377 -21 504 -21 q 111 93 199 -20 q 42 299 42 180 q 48 374 42 335 m 177 374 l 534 374 q 497 526 534 456 q 366 591 461 591 l 358 591 q 221 522 262 589 q 177 374 180 456 m 339 -24 q 352 -62 352 -44 q 345 -87 352 -76 q 306 -136 327 -116 q 271 -196 271 -171 q 291 -229 271 -215 q 335 -243 312 -243 q 399 -220 365 -243 l 389 -266 q 295 -284 334 -284 l 285 -284 q 201 -222 203 -278 l 201 -216 q 239 -133 201 -165 q 290 -87 267 -110 q 306 -50 306 -73 q 301 -24 306 -38 l 339 -24 z "},"":{"ha":848,"x_min":105,"x_max":791,"o":"m 296 64 l 585 64 q 692 112 648 64 q 758 188 736 161 q 777 203 770 203 q 791 189 791 203 q 790 174 791 180 l 741 0 l 117 0 q 105 14 105 0 q 139 43 105 31 q 173 99 173 55 l 173 852 q 139 908 173 897 q 105 938 105 920 q 119 952 105 952 l 749 952 l 749 778 q 734 764 749 764 q 709 791 728 764 q 651 863 675 838 q 585 889 626 889 l 296 889 l 296 521 l 451 521 q 508 556 494 521 q 539 591 522 591 q 553 576 553 591 l 553 404 q 539 390 553 390 q 506 425 522 390 q 447 459 490 459 l 296 459 l 296 64 m 253 1291 l 292 1291 l 448 1149 l 604 1291 l 643 1291 l 488 1055 l 409 1055 l 253 1291 z "},"":{"ha":681,"x_min":42,"x_max":639,"o":"m 48 374 q 148 574 67 499 q 361 651 229 650 l 364 651 q 568 575 498 651 q 639 374 639 498 q 637 335 638 347 q 609 324 635 324 l 177 324 q 233 142 179 214 q 368 54 286 70 q 416 48 391 48 q 549 85 480 48 q 602 106 588 106 q 607 105 605 106 q 609 99 609 103 q 600 74 609 90 q 587 52 592 58 q 578 43 582 47 q 377 -21 504 -21 q 111 93 199 -20 q 42 299 42 180 q 48 374 42 335 m 177 374 l 534 374 q 497 526 534 456 q 366 591 461 591 l 358 591 q 221 522 262 589 q 177 374 180 456 m 136 979 l 174 979 l 331 837 l 487 979 l 526 979 l 370 743 l 292 743 l 136 979 z "},"":{"ha":1060,"x_min":45,"x_max":1032,"o":"m 575 -25 q 206 108 367 -25 q 45 475 45 241 q 202 842 45 704 q 575 980 358 980 q 741 963 653 980 q 908 895 829 945 l 892 752 q 878 740 889 740 l 876 740 q 859 759 868 741 q 749 884 814 853 q 575 916 684 916 q 306 810 424 916 q 188 475 188 705 q 298 190 188 328 q 575 44 408 52 q 606 43 591 43 q 736 64 684 43 q 842 163 800 88 l 842 290 q 821 323 841 311 q 767 347 802 332 q 732 376 732 361 q 746 390 732 390 l 1018 390 q 1032 376 1032 390 q 998 346 1032 358 q 964 290 964 334 l 964 26 q 763 -3 860 22 q 667 -20 714 -16 q 575 -25 619 -25 m 344 1055 l 500 1291 l 578 1291 l 734 1055 l 695 1055 l 539 1196 l 383 1055 l 344 1055 z "},"":{"ha":748,"x_min":42,"x_max":663,"o":"m 541 135 l 541 522 q 467 569 513 547 q 387 593 422 591 l 384 593 q 357 587 370 593 q 308 569 332 578 q 260 551 284 560 q 233 534 243 545 q 176 425 191 489 q 165 330 165 377 q 166 299 165 315 q 219 140 174 201 q 333 58 264 77 q 385 51 359 51 q 402 52 393 51 q 437 60 417 53 q 486 78 453 66 q 540 98 519 90 l 540 135 l 541 135 m 540 59 l 354 -9 q 318 -17 332 -17 l 290 -17 q 124 62 194 -12 q 45 243 54 136 q 42 298 42 272 q 47 367 42 334 q 92 482 55 425 q 152 545 109 512 q 185 563 167 555 q 294 604 239 583 q 404 644 349 624 q 425 648 415 648 l 429 648 q 534 627 472 646 q 541 624 539 625 q 577 610 555 618 q 593 608 586 608 q 612 614 604 608 q 633 634 627 626 q 642 639 636 639 q 648 637 645 639 q 663 624 663 632 l 663 -122 q 631 -262 663 -234 q 541 -311 600 -290 l 354 -381 q 318 -389 332 -389 q 290 -388 300 -389 q 124 -309 195 -385 q 66 -214 87 -269 q 186 -168 125 -191 q 219 -231 199 -203 q 333 -313 265 -293 q 384 -319 359 -319 q 402 -319 393 -319 q 437 -311 417 -317 q 458 -302 446 -307 q 486 -292 471 -298 q 530 -227 519 -276 q 541 -161 541 -177 l 540 59 m 157 743 l 313 979 l 391 979 l 547 743 l 508 743 l 352 885 l 196 743 l 157 743 z "},"":{"ha":1060,"x_min":45,"x_max":1032,"o":"m 575 -25 q 206 108 367 -25 q 45 475 45 241 q 202 842 45 704 q 575 980 358 980 q 741 963 653 980 q 908 895 829 945 l 892 752 q 878 740 889 740 l 876 740 q 859 759 868 741 q 749 884 814 853 q 575 916 684 916 q 306 810 424 916 q 188 475 188 705 q 298 190 188 328 q 575 44 408 52 q 606 43 591 43 q 736 64 684 43 q 842 163 800 88 l 842 290 q 821 323 841 311 q 767 347 802 332 q 732 376 732 361 q 746 390 732 390 l 1018 390 q 1032 376 1032 390 q 998 346 1032 358 q 964 290 964 334 l 964 26 q 763 -3 860 22 q 667 -20 714 -16 q 575 -25 619 -25 m 539 1033 q 376 1109 431 1033 q 333 1234 337 1160 l 333 1236 q 351 1253 333 1253 q 369 1234 365 1253 q 538 1121 398 1123 l 542 1121 q 709 1234 680 1121 q 727 1253 713 1253 q 745 1236 745 1253 l 745 1234 q 703 1109 741 1162 q 539 1033 646 1033 z "},"":{"ha":748,"x_min":42,"x_max":663,"o":"m 541 135 l 541 522 q 467 569 513 547 q 387 593 422 591 l 384 593 q 357 587 370 593 q 308 569 332 578 q 260 551 284 560 q 233 534 243 545 q 176 425 191 489 q 165 330 165 377 q 166 299 165 315 q 219 140 174 201 q 333 58 264 77 q 385 51 359 51 q 402 52 393 51 q 437 60 417 53 q 486 78 453 66 q 540 98 519 90 l 540 135 l 541 135 m 540 59 l 354 -9 q 318 -17 332 -17 l 290 -17 q 124 62 194 -12 q 45 243 54 136 q 42 298 42 272 q 47 367 42 334 q 92 482 55 425 q 152 545 109 512 q 185 563 167 555 q 294 604 239 583 q 404 644 349 624 q 425 648 415 648 l 429 648 q 534 627 472 646 q 541 624 539 625 q 577 610 555 618 q 593 608 586 608 q 612 614 604 608 q 633 634 627 626 q 642 639 636 639 q 648 637 645 639 q 663 624 663 632 l 663 -122 q 631 -262 663 -234 q 541 -311 600 -290 l 354 -381 q 318 -389 332 -389 q 290 -388 300 -389 q 124 -309 195 -385 q 66 -214 87 -269 q 186 -168 125 -191 q 219 -231 199 -203 q 333 -313 265 -293 q 384 -319 359 -319 q 402 -319 393 -319 q 437 -311 417 -317 q 458 -302 446 -307 q 486 -292 471 -298 q 530 -227 519 -276 q 541 -161 541 -177 l 540 59 m 352 756 q 189 832 244 756 q 146 958 150 884 l 146 960 q 164 976 146 976 q 182 958 177 976 q 351 845 212 846 l 355 845 q 522 958 492 845 q 540 976 526 976 q 558 959 558 976 l 558 958 q 515 832 553 884 q 352 756 459 756 z "},"":{"ha":1060,"x_min":45,"x_max":1032,"o":"m 575 -25 q 206 108 367 -25 q 45 475 45 241 q 202 842 45 704 q 575 980 358 980 q 741 963 653 980 q 908 895 829 945 l 892 752 q 878 740 889 740 l 876 740 q 859 759 868 741 q 749 884 814 853 q 575 916 684 916 q 306 810 424 916 q 188 475 188 705 q 298 190 188 328 q 575 44 408 52 q 606 43 591 43 q 736 64 684 43 q 842 163 800 88 l 842 290 q 821 323 841 311 q 767 347 802 332 q 732 376 732 361 q 746 390 732 390 l 1018 390 q 1032 376 1032 390 q 998 346 1032 358 q 964 290 964 334 l 964 26 q 763 -3 860 22 q 667 -20 714 -16 q 575 -25 619 -25 m 534 1137 q 502 1143 517 1137 q 475 1161 484 1152 q 457 1187 463 1173 q 450 1219 450 1203 q 457 1252 450 1235 q 475 1279 463 1267 q 502 1297 485 1289 q 534 1304 519 1304 q 567 1297 550 1304 q 593 1279 582 1290 q 611 1252 604 1268 q 617 1219 617 1236 q 611 1187 617 1202 q 593 1161 604 1171 q 567 1143 583 1151 q 534 1137 551 1137 z "},"":{"ha":748,"x_min":42,"x_max":663,"o":"m 541 135 l 541 522 q 467 569 513 547 q 387 593 422 591 l 384 593 q 357 587 370 593 q 308 569 332 578 q 260 551 284 560 q 233 534 243 545 q 176 425 191 489 q 165 330 165 377 q 166 299 165 315 q 219 140 174 201 q 333 58 264 77 q 385 51 359 51 q 402 52 393 51 q 437 60 417 53 q 486 78 453 66 q 540 98 519 90 l 540 135 l 541 135 m 540 59 l 354 -9 q 318 -17 332 -17 l 290 -17 q 124 62 194 -12 q 45 243 54 136 q 42 298 42 272 q 47 367 42 334 q 92 482 55 425 q 152 545 109 512 q 185 563 167 555 q 294 604 239 583 q 404 644 349 624 q 425 648 415 648 l 429 648 q 534 627 472 646 q 541 624 539 625 q 577 610 555 618 q 593 608 586 608 q 612 614 604 608 q 633 634 627 626 q 642 639 636 639 q 648 637 645 639 q 663 624 663 632 l 663 -122 q 631 -262 663 -234 q 541 -311 600 -290 l 354 -381 q 318 -389 332 -389 q 290 -388 300 -389 q 124 -309 195 -385 q 66 -214 87 -269 q 186 -168 125 -191 q 219 -231 199 -203 q 333 -313 265 -293 q 384 -319 359 -319 q 402 -319 393 -319 q 437 -311 417 -317 q 458 -302 446 -307 q 486 -292 471 -298 q 530 -227 519 -276 q 541 -161 541 -177 l 540 59 m 352 785 q 320 792 337 785 q 293 809 305 797 q 275 836 280 823 q 269 867 269 851 q 275 901 269 884 q 293 927 281 915 q 320 945 302 937 q 352 952 337 952 q 385 945 368 952 q 412 927 401 937 q 429 901 422 916 q 435 867 435 885 q 429 836 435 850 q 412 809 423 821 q 385 792 399 798 q 352 785 368 785 z "},"":{"ha":1060,"x_min":45,"x_max":1032,"o":"m 482 -35 l 521 -35 q 516 -62 516 -50 q 531 -98 516 -84 q 582 -144 555 -121 q 621 -227 621 -176 l 621 -233 q 537 -295 618 -289 l 527 -295 q 433 -277 488 -295 l 423 -231 q 486 -254 456 -254 q 530 -239 509 -254 q 551 -206 551 -226 q 516 -147 551 -181 q 477 -98 494 -127 q 469 -73 469 -87 q 482 -35 469 -55 m 575 -25 q 206 108 367 -25 q 45 475 45 241 q 202 842 45 704 q 575 980 358 980 q 741 963 653 980 q 908 895 829 945 l 892 752 q 878 740 889 740 l 876 740 q 859 759 868 741 q 749 884 814 853 q 575 916 684 916 q 306 810 424 916 q 188 475 188 705 q 298 190 188 328 q 575 44 408 52 q 606 43 591 43 q 736 64 684 43 q 842 163 800 88 l 842 290 q 821 323 841 311 q 767 347 802 332 q 732 376 732 361 q 746 390 732 390 l 1018 390 q 1032 376 1032 390 q 998 346 1032 358 q 964 290 964 334 l 964 26 q 763 -3 860 22 q 667 -20 714 -16 q 575 -25 619 -25 z "},"":{"ha":748,"x_min":42,"x_max":663,"o":"m 541 135 l 541 522 q 467 569 513 547 q 387 593 422 591 l 384 593 q 357 587 370 593 q 308 569 332 578 q 260 551 284 560 q 233 534 243 545 q 176 425 191 489 q 165 330 165 377 q 166 299 165 315 q 219 140 174 201 q 333 58 264 77 q 385 51 359 51 q 402 52 393 51 q 437 60 417 53 q 486 78 453 66 q 540 98 519 90 l 540 135 l 541 135 m 540 59 l 354 -9 q 318 -17 332 -17 l 290 -17 q 124 62 194 -12 q 45 243 54 136 q 42 298 42 272 q 47 367 42 334 q 92 482 55 425 q 152 545 109 512 q 185 563 167 555 q 294 604 239 583 q 404 644 349 624 q 425 648 415 648 l 429 648 q 534 627 472 646 q 541 624 539 625 q 577 610 555 618 q 593 608 586 608 q 612 614 604 608 q 633 634 627 626 q 642 639 636 639 q 648 637 645 639 q 663 624 663 632 l 663 -122 q 631 -262 663 -234 q 541 -311 600 -290 l 354 -381 q 318 -389 332 -389 q 290 -388 300 -389 q 124 -309 195 -385 q 66 -214 87 -269 q 186 -168 125 -191 q 219 -231 199 -203 q 333 -313 265 -293 q 384 -319 359 -319 q 402 -319 393 -319 q 437 -311 417 -317 q 458 -302 446 -307 q 486 -292 471 -298 q 530 -227 519 -276 q 541 -161 541 -177 l 540 59 m 334 789 q 274 845 274 803 q 277 864 274 854 l 290 918 q 304 948 294 931 q 323 977 315 965 q 455 1076 368 1044 q 488 1084 475 1084 q 513 1072 506 1084 q 515 1063 515 1067 q 506 1050 515 1056 q 475 1036 492 1040 q 376 956 403 1015 l 377 956 q 437 898 437 940 q 435 881 437 890 l 420 827 q 389 792 414 803 q 358 785 374 785 q 334 789 347 785 z "},"":{"ha":1111,"x_min":105,"x_max":1059,"o":"m 295 852 l 295 535 l 868 535 l 868 852 q 834 908 868 896 q 800 938 800 920 q 814 952 800 952 l 1044 952 q 1059 938 1059 952 q 1024 908 1059 920 q 990 852 990 896 l 990 99 q 1024 43 990 55 q 1059 14 1059 31 q 1044 0 1059 0 l 814 0 q 800 14 800 0 q 834 43 800 31 q 868 99 868 55 l 868 473 l 295 473 l 295 99 q 329 43 295 55 q 363 14 363 31 q 349 0 363 0 l 119 0 q 105 14 105 0 q 139 43 105 31 q 173 99 173 55 l 173 852 q 139 908 173 896 q 105 938 105 920 q 119 952 105 952 l 349 952 q 363 938 363 952 q 329 908 363 920 q 295 852 295 896 m 387 1055 l 543 1291 l 621 1291 l 777 1055 l 738 1055 l 582 1196 l 426 1055 l 387 1055 z "},"":{"ha":819,"x_min":56,"x_max":770,"o":"m 245 99 q 279 43 245 55 q 313 14 313 31 q 300 0 313 0 l 70 0 q 56 14 56 0 q 90 43 56 31 q 123 99 123 55 l 123 852 q 90 908 123 896 q 56 938 56 920 q 70 952 56 952 q 158 966 115 954 q 245 992 202 977 l 245 578 q 311 604 283 593 q 366 623 340 614 q 495 652 428 645 q 512 652 503 652 q 621 614 569 652 q 703 343 703 551 l 703 99 q 736 43 703 55 q 770 14 770 31 q 757 0 770 0 l 592 0 q 581 9 581 0 l 581 343 q 519 552 581 492 q 422 591 479 591 q 351 578 390 591 q 314 564 336 572 q 275 549 291 555 q 245 538 258 543 l 245 99 m 271 743 l 427 979 l 506 979 l 661 743 l 623 743 l 467 885 l 311 743 l 271 743 z "},"":{"ha":1111,"x_min":105,"x_max":1059,"o":"m 295 852 l 295 791 l 868 791 l 868 852 q 834 908 868 896 q 800 938 800 920 q 814 952 800 952 l 1044 952 q 1059 938 1059 952 q 1024 908 1059 920 q 990 852 990 896 l 990 791 l 1034 791 q 1053 782 1053 791 l 1053 739 q 1034 729 1053 729 l 990 729 l 990 99 q 1024 43 990 55 q 1059 14 1059 31 q 1044 0 1059 0 l 814 0 q 800 14 800 0 q 834 43 800 31 q 868 99 868 55 l 868 473 l 295 473 l 295 99 q 329 43 295 55 q 363 14 363 31 q 349 0 363 0 l 119 0 q 105 14 105 0 q 139 43 105 31 q 173 99 173 55 l 173 729 l 129 729 q 111 739 111 729 l 111 782 q 129 791 111 791 l 173 791 l 173 852 q 139 908 173 896 q 105 938 105 920 q 119 952 105 952 l 349 952 q 363 938 363 952 q 329 908 363 920 q 295 852 295 896 m 868 729 l 295 729 l 295 535 l 868 535 l 868 729 z "},"":{"ha":808,"x_min":0,"x_max":765,"o":"m 238 992 l 238 791 l 441 791 q 450 782 450 791 l 450 739 q 441 729 450 729 l 238 729 l 238 583 l 378 636 q 459 652 419 652 q 481 650 470 652 q 570 624 532 645 q 667 520 641 584 q 693 290 693 457 l 693 98 q 729 42 694 54 q 765 13 765 30 q 751 0 765 0 l 587 0 q 578 13 578 0 l 578 353 q 511 553 578 487 q 410 594 468 594 q 337 580 376 594 l 238 543 l 238 99 q 272 43 238 55 q 306 14 306 31 q 292 0 306 0 l 62 0 q 48 14 48 0 q 82 43 48 31 q 116 99 116 55 l 116 729 l 9 729 q 0 739 0 729 l 0 782 q 9 791 0 791 l 116 791 l 116 852 q 82 908 116 896 q 48 938 48 920 q 62 952 48 952 q 151 966 107 954 q 238 992 195 977 z "},"":{"ha":468,"x_min":18,"x_max":449,"o":"m 295 852 l 295 100 q 329 43 295 55 q 363 14 363 31 q 349 0 363 0 l 119 0 q 105 14 105 0 q 139 43 105 31 q 173 99 173 55 l 173 852 q 139 908 173 897 q 105 938 105 920 q 119 952 105 952 l 349 952 q 363 938 363 952 q 329 908 363 920 q 295 852 295 897 m 447 1227 q 392 1116 418 1150 q 333 1079 363 1079 q 216 1136 279 1079 q 149 1167 180 1167 q 102 1147 124 1167 q 87 1135 96 1142 q 71 1116 79 1128 q 41 1066 54 1094 q 33 1059 37 1059 q 24 1063 29 1059 q 18 1076 18 1068 q 22 1092 18 1083 q 67 1192 44 1141 q 139 1244 90 1244 q 260 1185 199 1244 q 324 1153 292 1153 q 380 1177 352 1153 q 426 1249 406 1198 q 435 1257 429 1257 q 438 1257 437 1257 q 449 1242 447 1255 l 449 1239 q 447 1227 449 1233 z "},"":{"ha":402,"x_min":-9,"x_max":420,"o":"m 266 99 q 300 43 266 55 q 334 14 334 31 q 320 0 334 0 l 90 0 q 76 14 76 0 q 110 43 76 31 q 144 99 144 55 l 144 533 q 110 588 144 576 q 76 618 76 600 q 90 632 76 632 q 179 646 135 634 q 266 673 222 658 l 266 99 m 418 920 q 363 808 392 846 q 304 771 335 771 q 187 828 251 771 q 120 859 151 859 q 73 840 96 859 q 59 827 67 834 q 42 808 51 820 q 13 758 24 785 q 5 751 9 751 q -3 755 1 751 q -9 768 -9 760 q -5 784 -9 775 q 39 884 16 833 q 111 936 62 936 q 231 877 170 936 q 296 845 264 845 q 351 869 323 845 q 397 941 376 890 q 407 949 400 949 l 410 949 q 420 935 418 947 l 420 931 q 418 920 420 925 z "},"":{"ha":468,"x_min":24,"x_max":444,"o":"m 295 852 l 295 100 q 329 43 295 55 q 363 14 363 31 q 349 0 363 0 l 119 0 q 105 14 105 0 q 139 43 105 31 q 173 99 173 55 l 173 852 q 139 908 173 897 q 105 938 105 920 q 119 952 105 952 l 349 952 q 363 938 363 952 q 329 908 363 920 q 295 852 295 897 m 31 1156 l 437 1156 q 444 1148 444 1156 l 444 1090 q 437 1083 444 1083 l 31 1083 q 24 1090 24 1083 l 24 1148 q 31 1156 24 1156 z "},"":{"ha":402,"x_min":-4,"x_max":416,"o":"m 266 99 q 300 43 266 55 q 334 14 334 31 q 320 0 334 0 l 90 0 q 76 14 76 0 q 110 43 76 31 q 144 99 144 55 l 144 533 q 110 588 144 576 q 76 618 76 600 q 90 632 76 632 q 179 646 135 634 q 266 673 222 658 l 266 99 m 2 913 l 409 913 q 416 907 416 913 l 416 848 q 409 841 416 841 l 2 841 q -4 848 -4 841 l -4 907 q 2 913 -4 913 z "},"":{"ha":468,"x_min":28,"x_max":440,"o":"m 295 852 l 295 100 q 329 43 295 55 q 363 14 363 31 q 349 0 363 0 l 119 0 q 105 14 105 0 q 139 43 105 31 q 173 99 173 55 l 173 852 q 139 908 173 897 q 105 938 105 920 q 119 952 105 952 l 349 952 q 363 938 363 952 q 329 908 363 920 q 295 852 295 897 m 234 1033 q 71 1109 126 1033 q 28 1234 32 1160 l 28 1236 q 46 1253 28 1253 q 64 1234 59 1253 q 233 1121 93 1123 l 237 1121 q 404 1234 374 1121 q 422 1253 408 1253 q 440 1236 440 1253 l 440 1234 q 397 1109 435 1160 q 234 1033 341 1033 z "},"":{"ha":402,"x_min":0,"x_max":412,"o":"m 266 99 q 300 43 266 55 q 334 14 334 31 q 320 0 334 0 l 90 0 q 76 14 76 0 q 110 43 76 31 q 144 99 144 55 l 144 533 q 110 588 144 576 q 76 618 76 600 q 90 632 76 632 q 179 646 135 634 q 266 673 222 658 l 266 99 m 205 756 q 42 832 98 756 q 0 958 3 884 l 0 959 q 18 976 0 976 q 36 958 31 976 q 205 845 65 846 l 208 845 q 375 958 346 845 q 393 976 380 976 q 412 959 412 976 l 412 958 q 369 832 407 884 q 205 756 313 756 z "},"":{"ha":468,"x_min":105,"x_max":363,"o":"m 251 -14 q 264 -52 264 -35 q 256 -78 264 -66 q 218 -127 239 -106 q 182 -186 182 -161 q 203 -219 182 -205 q 247 -233 224 -233 q 311 -210 277 -233 l 300 -256 q 207 -275 245 -275 l 197 -275 q 113 -213 115 -269 l 113 -207 q 151 -123 113 -156 q 202 -78 178 -100 q 218 -41 218 -64 q 213 -14 218 -28 l 251 -14 m 295 852 l 295 100 q 329 43 295 55 q 363 14 363 31 q 349 0 363 0 l 119 0 q 105 14 105 0 q 139 43 105 31 q 173 99 173 55 l 173 852 q 139 908 173 897 q 105 938 105 920 q 119 952 105 952 l 349 952 q 363 938 363 952 q 329 908 363 920 q 295 852 295 897 z "},"":{"ha":402,"x_min":76,"x_max":334,"o":"m 220 -8 q 233 -46 233 -28 q 225 -72 233 -60 q 186 -121 208 -100 q 151 -180 151 -155 q 172 -213 151 -199 q 216 -227 193 -227 q 279 -204 245 -227 l 269 -250 q 176 -269 214 -269 l 165 -269 q 81 -207 84 -262 l 81 -201 q 120 -117 81 -150 q 171 -72 147 -94 q 186 -35 186 -58 q 182 -8 186 -22 l 220 -8 m 266 99 q 300 43 266 55 q 334 14 334 31 q 320 0 334 0 l 90 0 q 76 14 76 0 q 110 43 76 31 q 144 99 144 55 l 144 533 q 110 588 144 576 q 76 618 76 600 q 90 632 76 632 q 179 646 135 634 q 266 673 222 658 l 266 99 z "},"":{"ha":468,"x_min":105,"x_max":363,"o":"m 295 852 l 295 100 q 329 43 295 55 q 363 14 363 31 q 349 0 363 0 l 119 0 q 105 14 105 0 q 139 43 105 31 q 173 99 173 55 l 173 852 q 139 908 173 897 q 105 938 105 920 q 119 952 105 952 l 349 952 q 363 938 363 952 q 329 908 363 920 q 295 852 295 897 m 234 1137 q 201 1144 216 1137 q 175 1161 187 1149 q 157 1187 164 1171 q 151 1219 151 1202 q 157 1253 151 1237 q 175 1279 164 1269 q 201 1297 186 1290 q 234 1304 216 1304 q 267 1297 252 1304 q 294 1279 282 1290 q 311 1253 305 1267 q 317 1219 317 1237 q 311 1187 317 1202 q 294 1161 305 1173 q 267 1144 281 1149 q 234 1137 252 1137 z "},"":{"ha":402,"x_min":76,"x_max":334,"o":"m 266 99 q 300 43 266 55 q 334 14 334 31 q 320 0 334 0 l 90 0 q 76 14 76 0 q 110 43 76 31 q 144 99 144 55 l 144 533 q 110 588 144 576 q 76 618 76 600 q 90 632 76 632 q 179 646 135 634 q 266 673 222 658 l 266 99 z "},"":{"ha":930,"x_min":105,"x_max":820,"o":"m 295 852 l 295 100 q 329 43 295 55 q 363 14 363 31 q 349 0 363 0 l 119 0 q 105 14 105 0 q 139 43 105 31 q 173 99 173 55 l 173 852 q 139 908 173 897 q 105 938 105 920 q 119 952 105 952 l 349 952 q 363 938 363 952 q 329 908 363 920 q 295 852 295 897 m 752 852 l 752 -100 q 727 -200 748 -161 q 650 -260 703 -241 q 563 -273 613 -271 q 528 -273 546 -273 q 448 -271 491 -273 q 433 -257 433 -271 q 464 -234 433 -237 q 532 -220 495 -231 q 599 -176 568 -209 q 630 -64 630 -144 l 630 852 q 596 908 630 896 q 562 938 562 920 q 576 952 562 952 l 806 952 q 820 938 820 952 q 786 908 820 920 q 752 852 752 896 z "},"":{"ha":703,"x_min":76,"x_max":672,"o":"m 266 99 q 300 43 266 55 q 334 14 334 31 q 320 0 334 0 l 90 0 q 76 14 76 0 q 110 43 76 31 q 144 99 144 55 l 144 533 q 110 588 144 576 q 76 618 76 600 q 90 632 76 632 q 179 646 135 634 q 266 673 222 658 l 266 99 m 598 949 q 672 875 672 949 q 598 800 672 800 q 524 875 524 800 q 598 949 524 949 m 198 949 q 272 875 272 949 q 198 800 272 800 q 124 875 124 800 q 198 949 124 949 m 669 7 q 652 -185 669 -122 q 592 -294 635 -249 q 458 -374 530 -356 l 458 -341 q 507 -300 484 -325 q 542 -235 529 -276 q 550 -160 550 -209 q 551 4 551 -111 l 551 518 q 517 572 551 560 q 484 601 484 584 q 498 614 484 614 q 584 628 542 616 q 669 654 627 640 l 669 7 z "},"":{"ha":463,"x_min":39,"x_max":429,"o":"m 39 1055 l 195 1291 l 273 1291 l 429 1055 l 390 1055 l 234 1196 l 78 1055 l 39 1055 m 292 122 q 274 -77 292 -12 q 212 -188 256 -142 q 75 -271 151 -250 l 75 -237 q 124 -195 101 -220 q 160 -128 147 -170 q 169 -50 168 -100 q 169 118 169 0 l 169 853 q 135 909 169 897 q 101 939 101 921 q 115 952 101 952 l 345 952 q 359 939 359 952 q 326 909 359 921 q 292 853 292 897 l 292 122 z "},"":{"ha":325,"x_min":-42,"x_max":347,"o":"m -42 743 l 113 979 l 192 979 l 347 743 l 309 743 l 153 885 l -3 743 l -42 743 m 256 7 q 238 -185 256 -122 q 178 -294 221 -249 q 45 -374 117 -356 l 45 -341 q 93 -300 71 -325 q 128 -235 115 -276 q 137 -160 136 -209 q 137 4 137 -111 l 137 518 q 104 572 137 560 q 71 601 71 584 q 85 614 71 614 q 171 628 128 616 q 256 654 213 640 l 256 7 z "},"":{"ha":1008,"x_min":105,"x_max":984,"o":"m 448 -11 l 486 -11 q 481 -39 481 -26 q 496 -75 481 -60 q 547 -120 520 -97 q 586 -203 586 -153 l 586 -210 q 503 -271 583 -265 l 492 -271 q 399 -253 453 -271 l 389 -207 q 452 -230 422 -230 q 496 -216 475 -230 q 516 -182 516 -202 q 481 -123 516 -157 q 442 -75 460 -103 q 435 -49 435 -63 q 448 -11 435 -31 m 295 506 l 650 842 q 739 927 703 891 q 788 951 764 951 q 812 945 800 951 l 884 910 q 896 894 896 903 q 894 885 896 890 l 859 786 l 812 806 q 763 817 785 817 q 701 790 728 817 l 428 524 l 938 53 q 968 32 952 39 q 984 14 984 24 q 970 0 984 0 l 741 0 q 726 14 726 0 q 734 26 726 20 q 747 45 746 37 l 747 45 q 723 75 747 54 l 295 470 l 295 99 q 329 43 295 55 q 363 14 363 31 q 349 0 363 0 l 119 0 q 105 14 105 0 q 139 43 105 31 q 173 99 173 55 l 173 852 q 139 908 173 896 q 105 938 105 920 q 119 952 105 952 l 349 952 q 363 938 363 952 q 329 908 363 920 q 295 852 295 896 l 295 506 z "},"":{"ha":789,"x_min":69,"x_max":772,"o":"m 382 -5 l 421 -5 q 416 -33 416 -20 q 431 -69 416 -55 q 482 -115 455 -92 q 521 -198 521 -147 l 521 -204 q 437 -266 518 -260 l 427 -266 q 334 -248 388 -266 l 323 -201 q 387 -224 357 -224 q 431 -210 410 -224 q 451 -177 451 -197 q 416 -118 451 -152 q 377 -69 395 -98 q 370 -43 370 -58 q 382 -5 370 -26 m 259 300 l 259 99 q 293 43 259 55 q 327 14 327 31 q 313 0 327 0 l 83 0 q 69 14 69 0 q 103 43 69 31 q 137 99 137 55 l 137 852 q 103 908 137 896 q 69 938 69 920 q 83 952 69 952 q 172 966 128 954 q 259 992 216 977 l 259 374 l 499 566 q 572 619 541 600 q 607 630 591 630 q 631 624 619 630 l 681 593 q 689 581 689 587 q 687 574 689 577 l 655 503 l 621 520 q 582 530 601 530 q 538 515 559 530 q 365 383 440 441 l 601 153 q 696 72 674 81 q 728 64 711 64 q 742 66 734 64 q 752 67 747 67 q 770 57 766 67 q 772 50 772 53 q 765 41 772 43 l 722 20 q 656 4 686 4 q 618 12 636 4 q 538 65 574 29 l 279 317 q 259 300 274 311 z "},"":{"ha":780,"x_min":77,"x_max":776,"o":"m 267 686 l 267 376 l 503 566 q 576 619 548 602 q 610 630 593 630 q 634 624 623 630 l 685 593 q 693 580 693 587 q 691 574 693 578 l 659 503 l 625 520 q 586 530 606 530 q 543 515 563 530 q 368 383 450 448 l 605 153 q 700 72 678 81 q 732 64 715 64 q 746 66 736 64 q 755 66 751 66 q 774 57 770 66 q 776 51 776 54 q 768 41 776 44 l 726 20 q 660 4 690 4 q 622 12 640 4 q 542 65 579 28 l 283 317 q 267 303 279 313 l 267 99 q 300 43 267 55 q 334 14 334 31 q 321 0 334 0 l 91 0 q 77 14 77 0 q 111 43 77 31 q 144 99 144 55 l 144 542 q 111 599 144 585 q 77 631 77 613 q 91 645 77 645 q 179 659 136 647 q 267 686 223 670 z "},"":{"ha":848,"x_min":105,"x_max":791,"o":"m 192 1097 q 187 1095 189 1095 q 176 1107 176 1095 q 180 1118 176 1113 l 435 1293 q 463 1301 448 1301 q 513 1251 513 1301 q 481 1204 513 1215 l 192 1097 m 296 64 l 585 64 q 692 112 648 64 q 758 188 736 161 q 777 203 770 203 q 791 189 791 203 q 790 174 791 180 l 741 0 l 119 0 q 105 14 105 0 q 139 43 105 31 q 173 99 173 55 l 173 852 q 139 908 173 896 q 105 938 105 920 q 119 952 105 952 l 349 952 q 363 938 363 952 q 329 908 363 920 q 295 852 295 896 l 296 64 z "},"":{"ha":404,"x_min":43,"x_max":380,"o":"m 59 1096 q 54 1095 56 1095 q 43 1107 43 1095 q 47 1117 43 1112 l 302 1292 q 330 1301 315 1301 q 380 1251 380 1301 q 348 1203 380 1215 l 59 1096 m 267 992 l 267 99 q 300 43 267 55 q 334 14 334 31 q 321 0 334 0 l 91 0 q 77 14 77 0 q 111 43 77 31 q 144 99 144 55 l 144 852 q 111 908 144 896 q 77 938 77 920 q 91 952 77 952 q 179 966 136 954 q 267 992 223 977 z "},"":{"ha":848,"x_min":105,"x_max":791,"o":"m 382 -14 l 421 -14 q 416 -41 416 -28 q 431 -77 416 -63 q 482 -123 455 -100 q 521 -206 521 -155 l 521 -212 q 437 -274 518 -268 l 427 -274 q 334 -256 388 -274 l 323 -210 q 387 -233 357 -233 q 431 -218 410 -233 q 451 -185 451 -205 q 416 -126 451 -160 q 377 -77 395 -106 q 370 -52 370 -66 q 382 -14 370 -34 m 296 64 l 585 64 q 692 112 648 64 q 758 188 736 161 q 777 203 770 203 q 791 189 791 203 q 790 174 791 180 l 741 0 l 119 0 q 105 14 105 0 q 139 43 105 31 q 173 99 173 55 l 173 852 q 139 908 173 896 q 105 938 105 920 q 119 952 105 952 l 349 952 q 363 938 363 952 q 329 908 363 920 q 295 852 295 896 l 296 64 z "},"":{"ha":404,"x_min":77,"x_max":334,"o":"m 179 -14 l 218 -14 q 213 -42 213 -29 q 228 -78 213 -64 q 279 -123 252 -100 q 317 -207 317 -156 l 317 -213 q 234 -275 315 -269 l 224 -275 q 130 -256 184 -275 l 120 -210 q 183 -233 153 -233 q 227 -219 206 -233 q 248 -186 248 -205 q 213 -127 248 -161 q 174 -78 191 -106 q 166 -52 166 -66 q 179 -14 166 -35 m 267 992 l 267 99 q 300 43 267 55 q 334 14 334 31 q 321 0 334 0 l 91 0 q 77 14 77 0 q 111 43 77 31 q 144 99 144 55 l 144 852 q 111 908 144 896 q 77 938 77 920 q 91 952 77 952 q 179 966 136 954 q 267 992 223 977 z "},"":{"ha":848,"x_min":105,"x_max":791,"o":"m 296 64 l 585 64 q 692 112 648 64 q 758 188 736 161 q 777 203 770 203 q 791 189 791 203 q 790 174 791 180 l 741 0 l 119 0 q 105 14 105 0 q 139 43 105 31 q 173 99 173 55 l 173 852 q 139 908 173 896 q 105 938 105 920 q 119 952 105 952 l 349 952 q 363 938 363 952 q 329 908 363 920 q 295 852 295 896 l 296 64 m 460 1092 l 465 1092 q 536 1035 533 1092 l 536 979 q 531 945 536 965 q 521 913 525 926 q 420 782 496 836 q 380 764 396 764 q 364 771 371 764 q 359 781 359 776 q 365 793 359 787 q 391 816 375 806 q 464 919 454 854 l 457 919 q 388 976 389 919 l 387 1031 l 387 1034 q 460 1092 387 1090 z "},"":{"ha":451,"x_min":52,"x_max":584,"o":"m 314 992 l 314 726 q 472 851 437 814 q 511 919 507 888 l 505 919 q 435 976 436 919 l 434 1031 l 434 1034 q 507 1092 434 1090 l 512 1092 q 583 1035 581 1092 l 584 979 q 578 945 584 965 q 568 913 572 926 q 514 824 555 873 q 326 675 472 775 q 319 671 322 673 q 314 667 317 669 l 314 99 q 348 43 314 55 q 382 14 382 31 q 368 0 382 0 l 138 0 q 124 14 124 0 q 158 43 124 31 q 192 99 192 55 l 192 578 q 115 500 115 516 q 120 495 115 496 q 154 480 138 491 q 171 450 170 470 l 172 406 l 172 404 q 113 357 172 359 l 110 357 q 53 403 54 357 l 52 447 l 52 450 q 56 474 52 460 q 64 500 60 490 q 96 553 73 525 q 192 637 120 581 l 192 852 q 158 908 192 896 q 124 938 124 920 q 138 952 124 952 q 227 966 183 954 q 314 992 271 977 z "},"":{"ha":848,"x_min":105,"x_max":791,"o":"m 296 64 l 585 64 q 692 112 648 64 q 758 188 736 161 q 777 203 770 203 q 791 189 791 203 q 790 174 791 180 l 741 0 l 119 0 q 105 14 105 0 q 139 43 105 31 q 173 99 173 55 l 173 852 q 139 908 173 896 q 105 938 105 920 q 119 952 105 952 l 349 952 q 363 938 363 952 q 329 908 363 920 q 295 852 295 896 l 296 64 m 452 393 q 420 399 435 393 q 393 416 403 406 q 375 442 383 425 q 369 475 369 457 q 375 507 369 492 q 393 534 383 525 q 420 553 404 545 q 452 559 437 559 q 485 553 468 559 q 512 534 500 545 q 530 507 523 523 q 536 475 536 492 q 530 442 536 457 q 512 416 524 428 q 485 399 501 406 q 452 393 469 393 z "},"":{"ha":510,"x_min":77,"x_max":536,"o":"m 267 992 l 267 99 q 300 43 267 55 q 334 14 334 31 q 321 0 334 0 l 91 0 q 77 14 77 0 q 111 43 77 31 q 144 99 144 55 l 144 852 q 111 908 144 896 q 77 938 77 920 q 91 952 77 952 q 179 966 136 954 q 267 992 223 977 m 452 393 q 420 399 435 393 q 393 416 403 406 q 375 442 383 425 q 369 475 369 457 q 375 507 369 492 q 393 534 383 525 q 420 553 404 545 q 452 559 437 559 q 485 553 468 559 q 512 534 500 545 q 530 507 523 523 q 536 475 536 492 q 530 442 536 457 q 512 416 524 428 q 485 399 501 406 q 452 393 469 393 z "},"":{"ha":848,"x_min":7,"x_max":791,"o":"m 296 64 l 585 64 q 692 112 648 64 q 758 188 736 161 q 777 203 770 203 q 791 189 791 203 q 790 174 791 180 l 741 0 l 119 0 q 105 14 105 0 q 139 43 105 31 q 173 99 173 55 l 173 568 l 31 530 q 25 530 28 530 q 14 539 17 530 l 7 565 q 7 570 7 568 q 18 581 7 578 l 173 623 l 173 852 q 139 908 173 896 q 105 938 105 920 q 119 952 105 952 l 349 952 q 363 938 363 952 q 329 908 363 920 q 295 852 295 896 l 295 656 l 456 699 l 460 699 q 473 690 470 699 l 480 664 q 481 659 481 661 q 470 648 481 650 l 295 601 l 296 64 z "},"":{"ha":510,"x_min":7,"x_max":481,"o":"m 267 992 l 267 648 l 456 699 l 460 699 q 473 690 470 699 l 480 664 q 481 659 481 661 q 470 648 481 650 l 267 593 l 267 99 q 300 43 267 55 q 334 14 334 31 q 321 0 334 0 l 91 0 q 77 14 77 0 q 111 43 77 31 q 144 99 144 55 l 144 560 l 31 530 q 25 530 28 530 q 14 539 17 530 l 7 565 q 7 570 7 568 q 18 581 7 578 l 144 615 l 144 852 q 111 908 144 896 q 77 938 77 920 q 91 952 77 952 q 179 966 136 954 q 267 992 223 977 z "},"":{"ha":1115,"x_min":91,"x_max":1062,"o":"m 450 1096 q 445 1095 447 1095 q 433 1107 433 1095 q 438 1117 433 1112 l 692 1292 q 720 1301 705 1301 q 770 1251 770 1301 q 739 1203 770 1215 l 450 1096 m 928 138 l 928 852 q 895 908 928 896 q 861 938 861 920 q 875 952 861 952 l 1048 952 q 1062 938 1062 952 q 1028 908 1062 920 q 994 852 994 896 l 994 -29 l 873 0 l 224 806 l 224 99 q 258 43 224 55 q 292 14 292 31 q 277 0 292 0 l 105 0 q 91 14 91 0 q 125 43 91 31 q 159 99 159 55 l 159 852 q 125 908 159 896 q 91 938 91 920 q 105 952 91 952 l 279 952 l 928 138 z "},"":{"ha":808,"x_min":48,"x_max":765,"o":"m 214 780 q 210 779 212 779 q 197 791 197 779 q 202 801 197 796 l 456 976 q 484 985 469 985 q 534 935 534 985 q 503 888 534 899 l 214 780 m 238 650 l 238 583 l 378 636 q 459 652 419 652 q 481 650 470 652 q 570 624 532 645 q 667 520 641 584 q 693 290 693 457 l 693 98 q 729 42 694 54 q 765 13 765 30 q 751 0 765 0 l 587 0 q 578 13 578 0 l 578 353 q 511 553 578 487 q 410 594 468 594 q 337 580 376 594 l 238 543 l 238 99 q 272 43 238 55 q 306 14 306 31 q 292 0 306 0 l 62 0 q 48 14 48 0 q 82 43 48 31 q 116 99 116 55 l 116 510 q 82 565 116 553 q 48 595 48 577 q 62 609 48 609 q 151 623 107 611 q 238 650 195 635 z "},"":{"ha":1115,"x_min":91,"x_max":1062,"o":"m 488 -5 l 527 -5 q 522 -33 522 -20 q 537 -68 522 -54 q 588 -114 561 -91 q 627 -197 627 -146 l 627 -203 q 543 -265 624 -259 l 533 -265 q 439 -247 494 -265 l 429 -201 q 492 -224 463 -224 q 536 -210 515 -224 q 557 -176 557 -196 q 522 -117 557 -151 q 483 -68 500 -97 q 475 -43 475 -57 q 488 -5 475 -25 m 928 138 l 928 852 q 895 908 928 896 q 861 938 861 920 q 875 952 861 952 l 1048 952 q 1062 938 1062 952 q 1028 908 1062 920 q 994 852 994 896 l 994 -29 l 873 0 l 224 806 l 224 99 q 258 43 224 55 q 292 14 292 31 q 277 0 292 0 l 105 0 q 91 14 91 0 q 125 43 91 31 q 159 99 159 55 l 159 852 q 125 908 159 896 q 91 938 91 920 q 105 952 91 952 l 279 952 l 928 138 z "},"":{"ha":808,"x_min":48,"x_max":765,"o":"m 370 -5 l 409 -5 q 404 -33 404 -20 q 419 -68 404 -54 q 470 -114 443 -91 q 509 -197 509 -146 l 509 -203 q 425 -265 506 -259 l 415 -265 q 321 -247 376 -265 l 311 -201 q 374 -224 345 -224 q 418 -210 397 -224 q 439 -176 439 -196 q 404 -117 439 -151 q 365 -68 382 -97 q 357 -43 357 -57 q 370 -5 357 -25 m 238 650 l 238 583 l 378 636 q 459 652 419 652 q 481 650 470 652 q 570 624 532 645 q 667 520 641 584 q 693 290 693 457 l 693 98 q 729 42 694 54 q 765 13 765 30 q 751 0 765 0 l 587 0 q 578 13 578 0 l 578 353 q 511 553 578 487 q 410 594 468 594 q 337 580 376 594 l 238 543 l 238 99 q 272 43 238 55 q 306 14 306 31 q 292 0 306 0 l 62 0 q 48 14 48 0 q 82 43 48 31 q 116 99 116 55 l 116 510 q 82 565 116 553 q 48 595 48 577 q 62 609 48 609 q 151 623 107 611 q 238 650 195 635 z "},"":{"ha":1115,"x_min":91,"x_max":1062,"o":"m 928 138 l 928 852 q 895 908 928 896 q 861 938 861 920 q 875 952 861 952 l 1048 952 q 1062 938 1062 952 q 1028 908 1062 920 q 994 852 994 896 l 994 -29 l 873 0 l 224 806 l 224 99 q 258 43 224 55 q 292 14 292 31 q 277 0 292 0 l 105 0 q 91 14 91 0 q 125 43 91 31 q 159 99 159 55 l 159 852 q 125 908 159 896 q 91 938 91 920 q 105 952 91 952 l 279 952 l 928 138 m 381 1291 l 420 1291 l 576 1149 l 732 1291 l 771 1291 l 616 1055 l 537 1055 l 381 1291 z "},"":{"ha":808,"x_min":48,"x_max":765,"o":"m 238 650 l 238 583 l 378 636 q 459 652 419 652 q 481 650 470 652 q 570 624 532 645 q 667 520 641 584 q 693 290 693 457 l 693 98 q 729 42 694 54 q 765 13 765 30 q 751 0 765 0 l 587 0 q 578 13 578 0 l 578 353 q 511 553 578 487 q 410 594 468 594 q 337 580 376 594 l 238 543 l 238 99 q 272 43 238 55 q 306 14 306 31 q 292 0 306 0 l 62 0 q 48 14 48 0 q 82 43 48 31 q 116 99 116 55 l 116 510 q 82 565 116 553 q 48 595 48 577 q 62 609 48 609 q 151 623 107 611 q 238 650 195 635 m 212 979 l 250 979 l 406 837 l 562 979 l 602 979 l 446 743 l 367 743 l 212 979 z "},"":{"ha":1002,"x_min":80,"x_max":979,"o":"m 452 650 l 452 583 l 593 636 q 673 652 633 652 q 695 650 684 652 q 785 624 746 645 q 881 520 855 584 q 907 290 907 457 l 907 98 q 944 42 908 54 q 979 13 979 30 q 965 0 979 0 l 801 0 q 793 13 793 0 l 793 353 q 725 553 793 487 q 625 594 682 594 q 551 580 591 594 l 452 543 l 452 99 q 486 43 452 55 q 520 14 520 31 q 506 0 520 0 l 276 0 q 262 14 262 0 q 296 43 262 31 q 330 99 330 55 l 330 510 q 296 565 330 553 q 262 595 262 577 q 277 609 262 609 q 365 623 321 611 q 452 650 409 635 m 151 657 q 138 649 151 649 l 127 649 q 115 657 115 649 l 80 956 l 80 958 q 117 979 80 979 l 149 979 q 185 959 185 979 l 185 956 l 151 657 z "},"":{"ha":1115,"x_min":91,"x_max":1074,"o":"m 884 195 l 884 853 q 850 909 884 897 q 816 939 816 921 q 829 952 816 952 l 1059 952 q 1074 939 1074 952 q 1040 909 1074 921 q 1006 853 1006 897 l 1006 122 q 988 -77 1006 -12 q 926 -188 970 -142 q 789 -271 864 -251 l 789 -237 q 838 -195 815 -220 q 874 -128 861 -170 q 884 -2 884 -98 l 873 0 l 224 806 l 224 99 q 258 43 224 55 q 292 14 292 31 q 277 0 292 0 l 105 0 q 91 14 91 0 q 125 43 91 31 q 159 99 159 55 l 159 852 q 125 908 159 896 q 91 938 91 920 q 105 952 91 952 l 279 952 l 884 195 z "},"":{"ha":810,"x_min":56,"x_max":703,"o":"m 703 8 q 685 -191 703 -125 q 623 -302 667 -256 q 486 -385 562 -366 l 486 -351 q 572 -242 550 -312 q 580 -164 580 -214 q 581 4 581 -114 l 581 343 q 519 552 581 492 q 422 591 479 591 q 351 578 390 591 q 314 564 336 572 q 275 549 291 555 q 245 538 258 543 l 245 99 q 279 43 245 55 q 313 14 313 31 q 300 0 313 0 l 70 0 q 56 14 56 0 q 90 43 56 31 q 123 99 123 55 l 123 533 q 90 588 123 576 q 56 618 56 600 q 70 632 56 632 q 158 646 115 634 q 245 673 202 658 l 245 578 q 311 604 283 593 q 366 623 340 614 q 495 652 428 645 q 512 652 503 652 q 621 614 569 652 q 703 343 703 551 l 703 8 z "},"":{"ha":1092,"x_min":33,"x_max":1065,"o":"m 548 921 q 257 790 340 920 q 174 476 174 659 q 278 162 174 292 q 548 31 382 33 l 551 31 q 818 170 713 31 q 921 472 921 307 l 921 476 q 833 783 920 645 q 548 921 746 921 m 345 1156 l 752 1156 q 759 1148 759 1156 l 759 1090 q 752 1083 759 1083 l 345 1083 q 338 1090 338 1083 l 338 1148 q 345 1156 338 1156 m 548 981 l 555 981 q 924 846 774 981 q 1065 515 1065 721 q 1063 478 1065 497 q 902 116 1049 245 q 547 -24 754 -12 q 515 -24 531 -24 q 182 106 327 -24 q 33 454 33 239 q 33 478 33 466 q 183 844 41 709 q 548 981 324 978 z "},"":{"ha":751,"x_min":42,"x_max":709,"o":"m 391 648 q 615 546 524 643 q 709 315 707 450 l 709 311 q 613 82 709 176 q 375 -17 515 -13 l 364 -17 q 140 79 234 -17 q 42 313 42 178 l 42 315 q 154 565 43 464 q 192 586 167 577 q 268 613 218 595 q 334 637 298 624 q 389 648 368 648 l 391 648 m 377 603 l 369 603 q 233 526 290 603 q 172 326 172 445 q 232 120 172 208 q 376 29 291 33 l 385 29 q 521 106 464 29 q 581 305 581 186 q 521 511 581 424 q 377 603 461 598 m 176 913 l 583 913 q 590 907 590 913 l 590 848 q 583 841 590 841 l 176 841 q 170 848 170 841 l 170 907 q 176 913 170 913 z "},"":{"ha":1092,"x_min":33,"x_max":1065,"o":"m 548 921 q 257 790 340 920 q 174 476 174 659 q 278 162 174 292 q 548 31 382 33 l 551 31 q 818 170 713 31 q 921 472 921 307 l 921 476 q 833 783 920 645 q 548 921 746 921 m 549 1033 q 385 1109 441 1033 q 342 1234 347 1160 l 342 1236 q 361 1253 342 1253 q 379 1234 374 1253 q 548 1121 408 1123 l 551 1121 q 718 1234 689 1121 q 736 1253 723 1253 q 755 1236 755 1253 l 755 1234 q 712 1109 750 1160 q 549 1033 656 1033 m 548 981 l 555 981 q 924 846 774 981 q 1065 515 1065 721 q 1063 478 1065 497 q 902 116 1049 245 q 547 -24 754 -12 q 515 -24 531 -24 q 182 106 327 -24 q 33 454 33 239 q 33 478 33 466 q 183 844 41 709 q 548 981 324 978 z "},"":{"ha":751,"x_min":42,"x_max":709,"o":"m 391 648 q 615 546 524 643 q 709 315 707 450 l 709 311 q 613 82 709 176 q 375 -17 515 -13 l 364 -17 q 140 79 234 -17 q 42 313 42 178 l 42 315 q 154 565 43 464 q 192 586 167 577 q 268 613 218 595 q 334 637 298 624 q 389 648 368 648 l 391 648 m 377 603 l 369 603 q 233 526 290 603 q 172 326 172 445 q 232 120 172 208 q 376 29 291 33 l 385 29 q 521 106 464 29 q 581 305 581 186 q 521 511 581 424 q 377 603 461 598 m 380 756 q 216 832 271 756 q 174 958 178 884 l 174 960 q 191 976 174 976 q 210 958 205 976 q 378 845 239 846 l 382 845 q 549 958 520 845 q 568 976 554 976 q 586 959 586 976 l 586 958 q 543 832 581 884 q 380 756 487 756 z "},"":{"ha":1092,"x_min":33,"x_max":1065,"o":"m 303 1099 q 298 1097 300 1097 q 287 1109 287 1097 q 292 1120 287 1115 l 546 1295 q 574 1303 559 1303 q 624 1253 624 1303 q 592 1206 624 1217 l 303 1099 m 517 1099 q 513 1097 515 1097 q 501 1109 501 1097 q 506 1120 501 1115 l 760 1295 q 788 1303 772 1303 q 838 1253 838 1303 q 806 1206 838 1217 l 517 1099 m 548 921 q 257 790 340 920 q 174 476 174 659 q 278 162 174 292 q 548 31 382 33 l 551 31 q 818 170 713 31 q 921 472 921 307 l 921 476 q 833 783 920 645 q 548 921 746 921 m 548 981 l 555 981 q 924 846 774 981 q 1065 515 1065 721 q 1063 478 1065 497 q 902 116 1049 245 q 547 -24 754 -12 q 515 -24 531 -24 q 182 106 327 -24 q 33 454 33 239 q 33 478 33 466 q 183 844 41 709 q 548 981 324 978 z "},"":{"ha":751,"x_min":42,"x_max":709,"o":"m 108 777 q 103 776 105 776 q 92 788 92 776 q 96 798 92 793 l 351 973 q 378 982 363 982 q 429 932 429 982 q 397 884 429 896 l 108 777 m 322 777 q 317 776 319 776 q 306 788 306 776 q 311 798 306 793 l 565 973 q 593 982 577 982 q 643 932 643 982 q 611 884 643 896 l 322 777 m 391 648 q 615 546 524 643 q 709 315 707 450 l 709 311 q 613 82 709 176 q 375 -17 515 -13 l 364 -17 q 140 79 234 -17 q 42 313 42 178 l 42 315 q 154 565 43 464 q 192 586 167 577 q 268 613 218 595 q 334 637 298 624 q 389 648 368 648 l 391 648 m 377 603 l 369 603 q 233 526 290 603 q 172 326 172 445 q 232 120 172 208 q 376 29 291 33 l 385 29 q 521 106 464 29 q 581 305 581 186 q 521 511 581 424 q 377 603 461 598 z "},"":{"ha":1386,"x_min":47,"x_max":1386,"o":"m 890 64 l 1180 64 q 1286 112 1242 64 q 1353 188 1331 161 q 1372 203 1365 203 q 1386 189 1386 203 q 1385 174 1386 180 l 1335 0 l 707 0 q 561 -24 635 -20 q 530 -24 545 -24 q 196 106 341 -24 q 47 454 47 239 q 47 478 47 466 q 197 844 56 709 q 563 981 338 978 l 568 981 q 763 952 682 981 l 1343 952 l 1343 778 q 1329 764 1343 764 q 1304 791 1322 764 q 1245 863 1270 838 q 1180 889 1220 889 l 890 889 l 890 521 l 1046 521 q 1102 556 1089 521 q 1133 591 1116 591 q 1147 576 1147 591 l 1147 404 q 1133 390 1147 390 q 1100 425 1116 390 q 1041 459 1084 459 l 890 459 l 890 64 m 766 863 q 562 921 681 921 q 271 790 354 920 q 189 476 189 659 q 292 162 189 292 q 562 31 396 33 l 566 31 q 767 104 676 31 l 767 852 q 766 863 767 860 z "},"":{"ha":1241,"x_min":42,"x_max":1182,"o":"m 391 648 q 640 517 545 642 q 900 648 721 648 q 1182 374 1181 648 q 1180 335 1181 347 q 1152 324 1178 324 l 723 324 q 783 125 723 203 q 952 47 843 47 q 1013 54 980 47 q 1093 85 1046 61 q 1145 106 1132 106 q 1150 105 1149 106 q 1152 100 1152 103 q 1143 74 1152 91 q 1120 43 1133 54 q 1016 -6 1076 4 q 900 -17 957 -17 q 637 109 718 -17 q 375 -17 538 -12 l 364 -17 q 140 79 234 -17 q 42 313 42 178 l 42 315 q 154 565 43 464 q 192 586 167 577 q 268 613 218 595 q 334 637 298 624 q 389 648 368 648 l 391 648 m 723 374 l 1078 374 q 1035 539 1078 489 q 900 590 991 590 q 766 528 808 590 q 723 374 723 467 m 377 603 l 369 603 q 233 526 290 603 q 172 326 172 445 q 232 120 172 208 q 376 29 291 33 l 385 29 q 521 106 464 29 q 581 305 581 186 q 521 511 581 424 q 377 603 461 598 z "},"":{"ha":928,"x_min":91,"x_max":925,"o":"m 281 1096 q 277 1095 279 1095 q 265 1107 265 1095 q 270 1117 265 1112 l 524 1292 q 552 1301 537 1301 q 602 1251 602 1301 q 570 1203 602 1215 l 281 1096 m 857 49 q 906 31 876 33 q 925 16 925 28 l 925 14 q 911 0 923 0 l 730 0 q 684 53 724 0 q 591 179 644 106 q 482 329 538 252 q 389 452 427 406 l 281 452 l 281 99 q 315 43 281 55 q 349 14 349 31 q 335 0 349 0 l 105 0 q 91 14 91 0 q 125 43 91 31 q 159 99 159 55 l 159 852 q 125 908 159 896 q 91 938 91 920 q 105 952 91 952 l 505 952 q 651 927 575 952 q 768 831 727 903 q 801 693 801 774 q 757 555 800 616 q 663 482 723 507 q 548 453 602 456 l 857 49 m 281 896 l 281 500 l 438 500 q 533 513 485 500 q 616 562 581 527 q 670 700 670 614 q 614 838 670 783 q 452 896 553 896 l 281 896 z "},"":{"ha":564,"x_min":83,"x_max":534,"o":"m 122 779 q 117 778 120 778 q 105 789 105 778 q 110 800 105 795 l 364 975 q 392 983 376 983 q 442 933 442 983 q 410 886 442 898 l 122 779 m 273 404 l 273 99 q 307 43 273 55 q 340 14 340 31 q 327 0 340 0 l 97 0 q 83 14 83 0 q 117 43 83 31 q 151 99 151 55 l 151 533 q 117 588 151 576 q 83 618 83 600 q 97 632 83 632 q 185 646 142 634 q 273 673 229 658 l 273 583 l 368 619 q 449 648 420 639 q 470 651 458 651 q 534 637 495 651 l 519 467 l 488 467 q 386 566 461 566 q 371 566 378 566 q 297 513 319 559 q 273 404 275 467 z "},"":{"ha":928,"x_min":91,"x_max":925,"o":"m 431 -11 l 470 -11 q 465 -39 465 -26 q 480 -75 465 -60 q 531 -120 504 -97 q 570 -203 570 -153 l 570 -210 q 486 -271 567 -265 l 476 -271 q 382 -253 437 -271 l 372 -207 q 435 -230 406 -230 q 479 -216 458 -230 q 500 -182 500 -202 q 465 -123 500 -157 q 426 -75 444 -103 q 418 -49 418 -63 q 431 -11 418 -31 m 857 49 q 906 31 876 33 q 925 16 925 28 l 925 14 q 911 0 923 0 l 730 0 q 684 53 724 0 q 591 179 644 106 q 482 329 538 252 q 389 452 427 406 l 281 452 l 281 99 q 315 43 281 55 q 349 14 349 31 q 335 0 349 0 l 105 0 q 91 14 91 0 q 125 43 91 31 q 159 99 159 55 l 159 852 q 125 908 159 896 q 91 938 91 920 q 105 952 91 952 l 505 952 q 651 927 575 952 q 768 831 727 903 q 801 693 801 774 q 757 555 800 616 q 663 482 723 507 q 548 453 602 456 l 857 49 m 281 896 l 281 500 l 438 500 q 533 513 485 500 q 616 562 581 527 q 670 700 670 614 q 614 838 670 783 q 452 896 553 896 l 281 896 z "},"":{"ha":564,"x_min":83,"x_max":534,"o":"m 193 -22 l 231 -22 q 227 -50 227 -37 q 241 -85 227 -71 q 292 -131 265 -108 q 331 -214 331 -163 l 331 -220 q 248 -282 328 -276 l 237 -282 q 144 -264 198 -282 l 134 -218 q 197 -241 167 -241 q 241 -227 220 -241 q 261 -193 261 -213 q 227 -134 261 -168 q 187 -85 205 -114 q 180 -60 180 -74 q 193 -22 180 -42 m 273 404 l 273 99 q 307 43 273 55 q 340 14 340 31 q 327 0 340 0 l 97 0 q 83 14 83 0 q 117 43 83 31 q 151 99 151 55 l 151 533 q 117 588 151 576 q 83 618 83 600 q 97 632 83 632 q 185 646 142 634 q 273 673 229 658 l 273 583 l 368 619 q 449 648 420 639 q 470 651 458 651 q 534 637 495 651 l 519 467 l 488 467 q 386 566 461 566 q 371 566 378 566 q 297 513 319 559 q 273 404 275 467 z "},"":{"ha":928,"x_min":91,"x_max":925,"o":"m 857 49 q 906 31 876 33 q 925 16 925 28 l 925 14 q 911 0 923 0 l 730 0 q 684 53 724 0 q 591 179 644 106 q 482 329 538 252 q 389 452 427 406 l 281 452 l 281 99 q 315 43 281 55 q 349 14 349 31 q 335 0 349 0 l 105 0 q 91 14 91 0 q 125 43 91 31 q 159 99 159 55 l 159 852 q 125 908 159 896 q 91 938 91 920 q 105 952 91 952 l 505 952 q 651 927 575 952 q 768 831 727 903 q 801 693 801 774 q 757 555 800 616 q 663 482 723 507 q 548 453 602 456 l 857 49 m 313 1291 l 352 1291 l 508 1149 l 664 1291 l 703 1291 l 547 1055 l 469 1055 l 313 1291 m 281 896 l 281 500 l 438 500 q 533 513 485 500 q 616 562 581 527 q 670 700 670 614 q 614 838 670 783 q 452 896 553 896 l 281 896 z "},"":{"ha":564,"x_min":83,"x_max":534,"o":"m 273 404 l 273 99 q 307 43 273 55 q 340 14 340 31 q 327 0 340 0 l 97 0 q 83 14 83 0 q 117 43 83 31 q 151 99 151 55 l 151 533 q 117 588 151 576 q 83 618 83 600 q 97 632 83 632 q 185 646 142 634 q 273 673 229 658 l 273 583 l 368 619 q 449 648 420 639 q 470 651 458 651 q 534 637 495 651 l 519 467 l 488 467 q 386 566 461 566 q 371 566 378 566 q 297 513 319 559 q 273 404 275 467 m 107 979 l 146 979 l 302 837 l 458 979 l 497 979 l 341 743 l 262 743 l 107 979 z "},"":{"ha":729,"x_min":43,"x_max":699,"o":"m 192 1097 q 187 1095 189 1095 q 176 1107 176 1095 q 180 1118 176 1113 l 435 1293 q 463 1301 448 1301 q 513 1251 513 1301 q 481 1204 513 1215 l 192 1097 m 363 37 q 468 66 418 41 q 549 140 519 92 q 581 263 581 191 l 581 271 q 523 388 579 347 q 460 418 497 407 q 314 446 389 437 q 172 486 239 454 q 81 570 111 515 q 52 690 52 625 q 140 899 52 818 q 370 983 231 983 l 390 983 q 647 907 541 976 l 631 765 q 618 753 629 753 l 615 753 q 598 772 606 753 q 513 876 569 833 q 393 922 458 919 l 382 922 q 271 899 320 922 q 220 863 239 883 q 189 817 203 844 q 172 764 178 794 q 168 723 168 743 q 176 674 168 696 q 224 604 190 629 q 282 577 251 585 q 323 568 299 572 q 374 559 348 564 q 456 547 413 553 q 540 528 499 541 q 641 471 608 507 q 681 410 665 443 q 699 311 699 365 q 581 70 699 166 q 446 -4 520 20 q 319 -26 387 -23 q 290 -26 304 -26 q 109 0 195 -26 l 45 179 q 43 186 43 182 q 48 199 43 193 q 62 208 54 208 q 79 189 71 206 q 189 62 123 94 q 326 36 243 36 q 363 37 344 36 z "},"":{"ha":600,"x_min":52,"x_max":554,"o":"m 146 779 q 142 778 144 778 q 130 789 130 778 q 134 800 130 795 l 389 975 q 416 983 401 983 q 467 933 467 983 q 435 886 467 898 l 146 779 m 332 650 q 521 589 432 644 l 507 471 q 496 460 505 460 l 494 460 q 479 477 486 461 q 408 562 454 528 q 307 598 361 596 l 304 598 q 222 577 262 598 q 170 511 180 555 q 167 484 167 496 q 205 422 167 441 q 317 384 253 398 q 476 331 404 364 q 554 192 547 298 l 554 185 q 515 85 554 135 q 394 3 473 31 q 284 -16 345 -14 l 266 -16 q 106 6 182 -16 l 52 155 l 54 169 q 66 179 54 179 l 67 179 q 81 163 74 178 q 158 67 113 96 q 272 37 203 39 l 280 37 q 386 60 328 37 q 451 148 448 84 l 451 152 q 382 245 451 225 q 256 281 310 265 q 130 339 189 299 q 71 456 71 378 l 71 459 q 153 609 72 564 q 316 650 227 650 q 332 650 324 650 z "},"":{"ha":729,"x_min":43,"x_max":699,"o":"m 363 37 q 468 66 418 41 q 549 140 519 92 q 581 263 581 191 l 581 271 q 523 388 579 347 q 460 418 497 407 q 314 446 389 437 q 172 486 239 454 q 81 570 111 515 q 52 690 52 625 q 140 899 52 818 q 370 983 231 983 l 390 983 q 647 907 541 976 l 631 765 q 618 753 629 753 l 615 753 q 598 772 606 753 q 513 876 569 833 q 393 922 458 919 l 382 922 q 271 899 320 922 q 220 863 239 883 q 189 817 203 844 q 172 764 178 794 q 168 723 168 743 q 176 674 168 696 q 224 604 190 629 q 282 577 251 585 q 323 568 299 572 q 374 559 348 564 q 456 547 413 553 q 540 528 499 541 q 641 471 608 507 q 681 410 665 443 q 699 311 699 365 q 581 70 699 166 q 446 -4 520 20 q 319 -26 387 -23 q 290 -26 304 -26 q 109 0 195 -26 l 45 179 q 43 186 43 182 q 48 199 43 193 q 62 208 54 208 q 79 189 71 206 q 189 62 123 94 q 326 36 243 36 q 363 37 344 36 m 176 1055 l 332 1291 l 411 1291 l 566 1055 l 528 1055 l 372 1196 l 216 1055 l 176 1055 z "},"":{"ha":600,"x_min":52,"x_max":554,"o":"m 332 650 q 521 589 432 644 l 507 471 q 496 460 505 460 l 494 460 q 479 477 486 461 q 408 562 454 528 q 307 598 361 596 l 304 598 q 222 577 262 598 q 170 511 180 555 q 167 484 167 496 q 205 422 167 441 q 317 384 253 398 q 476 331 404 364 q 554 192 547 298 l 554 185 q 515 85 554 135 q 394 3 473 31 q 284 -16 345 -14 l 266 -16 q 106 6 182 -16 l 52 155 l 54 169 q 66 179 54 179 l 67 179 q 81 163 74 178 q 158 67 113 96 q 272 37 203 39 l 280 37 q 386 60 328 37 q 451 148 448 84 l 451 152 q 382 245 451 225 q 256 281 310 265 q 130 339 189 299 q 71 456 71 378 l 71 459 q 153 609 72 564 q 316 650 227 650 q 332 650 324 650 m 104 723 l 255 951 l 332 951 l 483 723 l 446 723 l 294 860 l 142 723 l 104 723 z "},"":{"ha":729,"x_min":43,"x_max":699,"o":"m 289 -45 l 328 -45 q 323 -73 323 -60 q 338 -109 323 -94 q 389 -154 361 -131 q 427 -237 427 -186 l 427 -243 q 344 -305 425 -299 l 334 -305 q 240 -287 294 -305 l 230 -241 q 293 -264 263 -264 q 337 -250 316 -264 q 357 -216 357 -236 q 323 -157 357 -191 q 283 -109 301 -137 q 276 -83 276 -97 q 289 -45 276 -65 m 363 37 q 468 66 418 41 q 549 140 519 92 q 581 263 581 191 l 581 271 q 523 388 579 347 q 460 418 497 407 q 314 446 389 437 q 172 486 239 454 q 81 570 111 515 q 52 690 52 625 q 140 899 52 818 q 370 983 231 983 l 390 983 q 647 907 541 976 l 631 765 q 618 753 629 753 l 615 753 q 598 772 606 753 q 513 876 569 833 q 393 922 458 919 l 382 922 q 271 899 320 922 q 220 863 239 883 q 189 817 203 844 q 172 764 178 794 q 168 723 168 743 q 176 674 168 696 q 224 604 190 629 q 282 577 251 585 q 323 568 299 572 q 374 559 348 564 q 456 547 413 553 q 540 528 499 541 q 641 471 608 507 q 681 410 665 443 q 699 311 699 365 q 581 70 699 166 q 446 -4 520 20 q 319 -26 387 -23 q 290 -26 304 -26 q 109 0 195 -26 l 45 179 q 43 186 43 182 q 48 199 43 193 q 62 208 54 208 q 79 189 71 206 q 189 62 123 94 q 326 36 243 36 q 363 37 344 36 z "},"":{"ha":600,"x_min":52,"x_max":554,"o":"m 332 650 q 521 589 432 644 l 507 471 q 496 460 505 460 l 494 460 q 479 477 486 461 q 408 562 454 528 q 307 598 361 596 l 304 598 q 222 577 262 598 q 170 511 180 555 q 167 484 167 496 q 205 422 167 441 q 317 384 253 398 q 476 331 404 364 q 554 192 547 298 l 554 185 q 515 85 554 135 q 394 3 473 31 q 284 -16 345 -14 l 266 -16 q 106 6 182 -16 l 52 155 l 54 169 q 66 179 54 179 l 67 179 q 81 163 74 178 q 158 67 113 96 q 272 37 203 39 l 280 37 q 386 60 328 37 q 451 148 448 84 l 451 152 q 382 245 451 225 q 256 281 310 265 q 130 339 189 299 q 71 456 71 378 l 71 459 q 153 609 72 564 q 316 650 227 650 q 332 650 324 650 m 258 -45 l 297 -45 q 292 -73 292 -60 q 307 -109 292 -94 q 358 -154 331 -131 q 397 -237 397 -186 l 397 -243 q 313 -305 394 -299 l 303 -305 q 210 -287 264 -305 l 199 -241 q 262 -264 233 -264 q 307 -250 286 -264 q 327 -216 327 -236 q 292 -157 327 -191 q 253 -109 271 -137 q 245 -83 245 -97 q 258 -45 245 -65 z "},"":{"ha":729,"x_min":43,"x_max":699,"o":"m 363 37 q 468 66 418 41 q 549 140 519 92 q 581 263 581 191 l 581 271 q 523 388 579 347 q 460 418 497 407 q 314 446 389 437 q 172 486 239 454 q 81 570 111 515 q 52 690 52 625 q 140 899 52 818 q 370 983 231 983 l 390 983 q 647 907 541 976 l 631 765 q 618 753 629 753 l 615 753 q 598 772 606 753 q 513 876 569 833 q 393 922 458 919 l 382 922 q 271 899 320 922 q 220 863 239 883 q 189 817 203 844 q 172 764 178 794 q 168 723 168 743 q 176 674 168 696 q 224 604 190 629 q 282 577 251 585 q 323 568 299 572 q 374 559 348 564 q 456 547 413 553 q 540 528 499 541 q 641 471 608 507 q 681 410 665 443 q 699 311 699 365 q 581 70 699 166 q 446 -4 520 20 q 319 -26 387 -23 q 290 -26 304 -26 q 109 0 195 -26 l 45 179 q 43 186 43 182 q 48 199 43 193 q 62 208 54 208 q 79 189 71 206 q 189 62 123 94 q 326 36 243 36 q 363 37 344 36 m 176 1291 l 216 1291 l 372 1149 l 528 1291 l 566 1291 l 411 1055 l 332 1055 l 176 1291 z "},"":{"ha":600,"x_min":52,"x_max":554,"o":"m 332 650 q 521 589 432 644 l 507 471 q 496 460 505 460 l 494 460 q 479 477 486 461 q 408 562 454 528 q 307 598 361 596 l 304 598 q 222 577 262 598 q 170 511 180 555 q 167 484 167 496 q 205 422 167 441 q 317 384 253 398 q 476 331 404 364 q 554 192 547 298 l 554 185 q 515 85 554 135 q 394 3 473 31 q 284 -16 345 -14 l 266 -16 q 106 6 182 -16 l 52 155 l 54 169 q 66 179 54 179 l 67 179 q 81 163 74 178 q 158 67 113 96 q 272 37 203 39 l 280 37 q 386 60 328 37 q 451 148 448 84 l 451 152 q 382 245 451 225 q 256 281 310 265 q 130 339 189 299 q 71 456 71 378 l 71 459 q 153 609 72 564 q 316 650 227 650 q 332 650 324 650 m 98 960 l 137 960 l 294 819 l 450 960 l 488 960 l 332 725 l 254 725 l 98 960 z "},"":{"ha":851,"x_min":29,"x_max":824,"o":"m 391 -11 l 429 -11 q 425 -39 425 -26 q 439 -75 425 -60 q 490 -120 463 -97 q 529 -203 529 -153 l 529 -210 q 446 -271 526 -265 l 435 -271 q 342 -253 396 -271 l 332 -207 q 395 -230 365 -230 q 439 -216 418 -230 q 459 -182 459 -202 q 425 -123 459 -157 q 385 -75 403 -103 q 378 -49 378 -63 q 391 -11 378 -31 m 824 778 q 810 764 824 764 q 784 791 804 764 q 725 863 749 838 q 659 889 700 889 l 489 889 l 489 99 q 523 43 489 55 q 557 14 557 31 q 543 0 557 0 l 313 0 q 299 14 299 0 q 333 43 299 31 q 367 99 367 55 l 367 889 l 194 889 q 128 863 153 889 q 68 791 102 838 q 43 764 50 764 q 29 778 29 764 l 29 903 q 42 948 29 940 q 106 956 54 956 l 747 956 q 813 949 803 956 q 824 903 824 942 l 824 778 z "},"":{"ha":439,"x_min":46,"x_max":435,"o":"m 140 573 q 63 570 115 572 l 60 570 q 46 583 47 570 l 46 585 q 59 602 46 595 q 115 631 73 608 q 135 640 125 636 q 140 641 137 641 l 140 757 q 154 804 140 791 q 218 841 168 817 q 248 850 237 850 q 263 832 263 850 l 263 643 l 425 646 l 425 646 q 435 629 435 646 q 433 606 435 619 q 402 574 426 574 l 263 574 l 263 149 q 306 57 263 87 q 380 22 349 26 l 380 1 q 210 20 279 1 q 140 170 140 39 l 140 573 m 201 -19 l 240 -19 q 235 -47 235 -34 q 250 -83 235 -68 q 301 -128 274 -105 q 340 -212 340 -161 l 340 -218 q 256 -279 337 -273 l 246 -279 q 153 -261 207 -279 l 142 -215 q 205 -238 176 -238 q 250 -224 229 -238 q 270 -191 270 -210 q 235 -132 270 -165 q 196 -83 214 -111 q 189 -57 189 -71 q 201 -19 189 -39 z "},"":{"ha":851,"x_min":29,"x_max":824,"o":"m 824 778 q 810 764 824 764 q 784 791 804 764 q 725 863 749 838 q 659 889 700 889 l 489 889 l 489 99 q 523 43 489 55 q 557 14 557 31 q 543 0 557 0 l 313 0 q 299 14 299 0 q 333 43 299 31 q 367 99 367 55 l 367 889 l 194 889 q 128 863 153 889 q 68 791 102 838 q 43 764 50 764 q 29 778 29 764 l 29 903 q 42 948 29 940 q 106 956 54 956 l 747 956 q 813 949 803 956 q 824 903 824 942 l 824 778 m 231 1291 l 271 1291 l 427 1149 l 583 1291 l 621 1291 l 466 1055 l 387 1055 l 231 1291 z "},"":{"ha":439,"x_min":33,"x_max":429,"o":"m 134 573 q 56 570 108 572 l 53 570 q 39 583 40 570 l 39 585 q 52 602 39 595 q 109 631 66 608 q 128 640 123 639 q 134 641 130 641 l 245 643 l 418 646 l 418 646 q 429 629 429 646 q 426 606 429 619 q 395 574 419 574 l 256 574 l 256 147 q 299 56 256 86 q 373 22 342 25 l 373 0 q 203 19 272 0 q 134 168 134 37 l 134 573 m 33 979 l 71 979 l 228 837 l 384 979 l 422 979 l 267 743 l 188 743 l 33 979 z "},"":{"ha":851,"x_min":29,"x_max":824,"o":"m 824 778 q 810 764 824 764 q 784 791 804 764 q 725 863 749 838 q 659 889 700 889 l 489 889 l 489 638 l 783 638 q 805 625 805 638 l 805 598 q 783 585 805 585 l 489 585 l 489 99 q 523 43 489 55 q 557 14 557 31 q 543 0 557 0 l 313 0 q 299 14 299 0 q 333 43 299 31 q 367 99 367 55 l 367 585 l 70 585 q 47 598 47 585 l 47 625 q 70 638 47 638 l 367 638 l 367 889 l 194 889 q 128 863 153 889 q 68 791 102 838 q 43 764 50 764 q 29 778 29 764 l 29 903 q 42 948 29 940 q 106 956 54 956 l 747 956 q 813 949 803 956 q 824 903 824 942 l 824 778 z "},"":{"ha":450,"x_min":46,"x_max":435,"o":"m 263 410 l 404 410 q 414 397 414 410 l 414 371 q 404 358 414 358 l 263 357 l 263 149 q 307 57 263 85 q 380 22 353 26 l 380 1 q 210 20 279 1 q 140 170 140 39 l 140 359 l 60 359 q 49 371 49 359 l 49 397 q 59 410 49 410 l 124 410 l 140 410 l 140 573 q 63 570 115 572 l 60 570 q 46 583 47 570 l 46 585 q 59 602 46 595 q 115 631 73 608 q 135 640 130 639 q 140 641 137 641 l 140 757 q 154 804 140 791 q 218 841 168 817 q 248 850 237 850 q 263 832 263 850 l 263 643 l 425 646 l 425 646 q 435 629 435 646 q 433 606 435 619 q 402 574 426 574 l 263 574 l 263 410 z "},"":{"ha":1054,"x_min":91,"x_max":990,"o":"m 159 399 l 159 853 q 125 908 159 897 q 91 938 91 920 q 105 952 91 952 l 335 952 q 349 938 349 952 q 315 909 349 920 q 282 854 282 898 l 282 489 q 289 305 282 385 q 324 170 296 225 q 410 87 352 115 q 569 58 467 58 q 812 199 748 58 q 857 489 857 298 l 857 852 q 823 908 857 896 q 789 938 789 920 q 804 952 789 952 l 977 952 q 990 938 990 952 q 957 908 990 920 q 923 852 923 896 l 923 399 q 904 214 922 298 q 838 73 886 130 q 569 -26 752 -26 q 372 -5 453 -26 q 241 74 290 17 q 159 399 159 170 m 762 1227 q 707 1116 734 1153 q 648 1079 678 1079 q 530 1136 594 1079 q 463 1167 494 1167 q 416 1147 439 1167 q 402 1135 410 1142 q 385 1116 394 1128 q 356 1066 368 1093 q 347 1059 353 1059 q 339 1063 344 1059 q 333 1076 333 1068 q 337 1092 333 1083 q 382 1192 359 1141 q 454 1244 405 1244 q 574 1185 513 1244 q 639 1153 607 1153 q 694 1177 667 1153 q 741 1249 720 1198 q 750 1257 743 1257 q 753 1257 751 1257 q 764 1242 762 1255 l 764 1239 q 762 1227 764 1233 z "},"":{"ha":840,"x_min":58,"x_max":773,"o":"m 705 99 q 739 43 705 55 q 773 14 773 31 q 759 0 773 0 l 594 0 q 583 9 583 0 l 583 53 q 516 27 545 39 q 463 8 488 16 q 334 -20 400 -13 q 315 -20 324 -20 q 208 18 259 -20 q 125 288 125 80 l 125 533 q 92 588 125 576 q 58 618 58 600 q 72 632 58 632 q 160 646 117 634 q 248 673 204 658 l 248 288 q 310 79 248 139 q 406 41 349 41 q 477 54 439 41 q 515 67 492 58 q 554 82 538 76 q 565 86 557 83 q 583 93 573 89 l 583 533 q 549 588 583 576 q 515 618 515 600 q 529 632 515 632 q 617 646 574 634 q 705 673 661 658 l 705 99 m 621 920 q 566 808 592 843 q 506 771 537 771 q 389 828 453 771 q 322 859 353 859 q 275 840 297 859 q 261 827 269 834 q 243 808 253 820 q 214 758 226 784 q 205 751 211 751 q 197 755 202 751 q 191 768 191 760 q 195 784 191 775 q 240 884 218 833 q 312 936 263 936 q 433 877 372 936 q 498 845 465 845 q 553 869 526 845 q 599 941 579 890 q 609 949 602 949 l 612 949 q 622 935 620 947 l 622 931 q 621 920 622 926 z "},"":{"ha":1054,"x_min":91,"x_max":990,"o":"m 159 399 l 159 853 q 125 908 159 897 q 91 938 91 920 q 105 952 91 952 l 335 952 q 349 938 349 952 q 315 909 349 920 q 282 854 282 898 l 282 489 q 289 305 282 385 q 324 170 296 225 q 410 87 352 115 q 569 58 467 58 q 812 199 748 58 q 857 489 857 298 l 857 852 q 823 908 857 896 q 789 938 789 920 q 804 952 789 952 l 977 952 q 990 938 990 952 q 957 908 990 920 q 923 852 923 896 l 923 399 q 904 214 922 298 q 838 73 886 130 q 569 -26 752 -26 q 372 -5 453 -26 q 241 74 290 17 q 159 399 159 170 m 337 1156 l 744 1156 q 751 1148 751 1156 l 751 1090 q 744 1083 751 1083 l 337 1083 q 330 1090 330 1083 l 330 1148 q 337 1156 330 1156 z "},"":{"ha":840,"x_min":58,"x_max":773,"o":"m 705 99 q 739 43 705 55 q 773 14 773 31 q 759 0 773 0 l 594 0 q 583 9 583 0 l 583 53 q 516 27 545 39 q 463 8 488 16 q 334 -20 400 -13 q 315 -20 324 -20 q 208 18 259 -20 q 125 288 125 80 l 125 533 q 92 588 125 576 q 58 618 58 600 q 72 632 58 632 q 160 646 117 634 q 248 673 204 658 l 248 288 q 310 79 248 139 q 406 41 349 41 q 477 54 439 41 q 515 67 492 58 q 554 82 538 76 q 565 86 557 83 q 583 93 573 89 l 583 533 q 549 588 583 576 q 515 618 515 600 q 529 632 515 632 q 617 646 574 634 q 705 673 661 658 l 705 99 m 204 913 l 610 913 q 618 907 618 913 l 618 848 q 610 841 618 841 l 204 841 q 197 848 197 841 l 197 907 q 204 913 197 913 z "},"":{"ha":1054,"x_min":91,"x_max":990,"o":"m 159 399 l 159 853 q 125 908 159 897 q 91 938 91 920 q 105 952 91 952 l 335 952 q 349 938 349 952 q 315 909 349 920 q 282 854 282 898 l 282 489 q 289 305 282 385 q 324 170 296 225 q 410 87 352 115 q 569 58 467 58 q 812 199 748 58 q 857 489 857 298 l 857 852 q 823 908 857 896 q 789 938 789 920 q 804 952 789 952 l 977 952 q 990 938 990 952 q 957 908 990 920 q 923 852 923 896 l 923 399 q 904 214 922 298 q 838 73 886 130 q 569 -26 752 -26 q 372 -5 453 -26 q 241 74 290 17 q 159 399 159 170 m 541 1033 q 377 1109 433 1033 q 334 1234 338 1160 l 334 1236 q 353 1253 334 1253 q 371 1234 366 1253 q 540 1121 399 1123 l 543 1121 q 710 1234 681 1121 q 728 1253 715 1253 q 747 1236 747 1253 l 747 1234 q 704 1109 742 1160 q 541 1033 648 1033 z "},"":{"ha":840,"x_min":58,"x_max":773,"o":"m 705 99 q 739 43 705 55 q 773 14 773 31 q 759 0 773 0 l 594 0 q 583 9 583 0 l 583 53 q 516 27 545 39 q 463 8 488 16 q 334 -20 400 -13 q 315 -20 324 -20 q 208 18 259 -20 q 125 288 125 80 l 125 533 q 92 588 125 576 q 58 618 58 600 q 72 632 58 632 q 160 646 117 634 q 248 673 204 658 l 248 288 q 310 79 248 139 q 406 41 349 41 q 477 54 439 41 q 515 67 492 58 q 554 82 538 76 q 565 86 557 83 q 583 93 573 89 l 583 533 q 549 588 583 576 q 515 618 515 600 q 529 632 515 632 q 617 646 574 634 q 705 673 661 658 l 705 99 m 408 756 q 243 832 299 756 q 201 958 204 886 l 201 960 q 219 976 201 976 q 237 958 233 976 q 406 845 267 846 l 410 845 q 577 958 548 845 q 595 976 582 976 q 614 958 614 976 q 571 832 609 885 q 408 756 515 756 z "},"":{"ha":1054,"x_min":91,"x_max":990,"o":"m 159 399 l 159 853 q 125 908 159 897 q 91 938 91 920 q 105 952 91 952 l 335 952 q 349 938 349 952 q 315 909 349 920 q 282 854 282 898 l 282 489 q 289 305 282 385 q 324 170 296 225 q 410 87 352 115 q 569 58 467 58 q 812 199 748 58 q 857 489 857 298 l 857 852 q 823 908 857 896 q 789 938 789 920 q 804 952 789 952 l 977 952 q 990 938 990 952 q 957 908 990 920 q 923 852 923 896 l 923 399 q 904 214 922 298 q 838 73 886 130 q 569 -26 752 -26 q 372 -5 453 -26 q 241 74 290 17 q 159 399 159 170 m 542 1302 q 635 1262 596 1302 q 674 1166 674 1222 q 635 1071 674 1110 q 542 1031 596 1031 q 448 1071 487 1031 q 409 1166 409 1110 q 448 1262 409 1222 q 542 1302 487 1302 m 536 1283 q 480 1249 502 1283 q 461 1177 461 1219 l 461 1166 q 489 1084 463 1118 q 548 1050 514 1050 q 604 1084 581 1050 q 623 1158 623 1116 l 623 1166 q 595 1249 621 1215 q 536 1283 570 1283 z "},"":{"ha":840,"x_min":58,"x_max":773,"o":"m 705 99 q 739 43 705 55 q 773 14 773 31 q 759 0 773 0 l 594 0 q 583 9 583 0 l 583 53 q 516 27 545 39 q 463 8 488 16 q 334 -20 400 -13 q 315 -20 324 -20 q 208 18 259 -20 q 125 288 125 80 l 125 533 q 92 588 125 576 q 58 618 58 600 q 72 632 58 632 q 160 646 117 634 q 248 673 204 658 l 248 288 q 310 79 248 139 q 406 41 349 41 q 477 54 439 41 q 515 67 492 58 q 554 82 538 76 q 565 86 557 83 q 583 93 573 89 l 583 533 q 549 588 583 576 q 515 618 515 600 q 529 632 515 632 q 617 646 574 634 q 705 673 661 658 l 705 99 m 408 1027 q 501 987 462 1027 q 540 891 540 947 q 501 795 540 835 q 408 756 462 756 q 314 795 353 756 q 275 891 275 835 q 314 987 275 947 q 408 1027 353 1027 m 402 1008 q 346 974 368 1008 q 327 902 327 943 l 327 892 q 354 809 329 843 q 414 775 380 775 q 469 809 447 775 q 489 884 489 840 l 489 892 q 461 974 486 939 q 402 1008 435 1008 z "},"":{"ha":1054,"x_min":91,"x_max":990,"o":"m 303 1099 q 298 1097 300 1097 q 287 1109 287 1097 q 292 1120 287 1115 l 546 1295 q 574 1303 559 1303 q 624 1253 624 1303 q 592 1206 624 1217 l 303 1099 m 517 1099 q 513 1097 515 1097 q 501 1109 501 1097 q 506 1120 501 1115 l 760 1295 q 788 1303 772 1303 q 838 1253 838 1303 q 806 1206 838 1217 l 517 1099 m 159 399 l 159 853 q 125 908 159 897 q 91 938 91 920 q 105 952 91 952 l 335 952 q 349 938 349 952 q 315 909 349 920 q 282 854 282 898 l 282 489 q 289 305 282 385 q 324 170 296 225 q 410 87 352 115 q 569 58 467 58 q 812 199 748 58 q 857 489 857 298 l 857 852 q 823 908 857 896 q 789 938 789 920 q 804 952 789 952 l 977 952 q 990 938 990 952 q 957 908 990 920 q 923 852 923 896 l 923 399 q 904 214 922 298 q 838 73 886 130 q 569 -26 752 -26 q 372 -5 453 -26 q 241 74 290 17 q 159 399 159 170 z "}}}
